<?xml version="1.0" encoding="UTF-8" standalone="no"?>
<svg width="10.200377in" height="10.670693in" viewBox="0 0 259.0896 271.0356" version="1.1" xmlns="http://www.w3.org/2000/svg">
  <path
       id="rect22-7-5"
       style="display:inline;opacity:1;fill:#222425;fill-opacity:1;fill-rule:evenodd;stroke:none"
       d="m 159.11934,53.273556 a 102.88075,71.533424 0.7294021 0 0 -51.49605,9.093778 102.88075,71.533424 0.7294021 0 0 -51.751728,59.220136 c -0.344433,1.60463 -0.525468,3.26932 -0.525468,4.97714 v 41.51743 c 0,13.2456 10.891192,23.90864 24.420183,23.90864 H 237.41254 c 13.529,0 24.42065,-10.66304 24.42065,-23.90864 v -41.51743 c 0,-1.432 -0.12724,-2.83383 -0.3714,-4.19526 A 102.88075,71.533424 0.7294021 0 0 210.49871,63.347221 102.88075,71.533424 0.7294021 0 0 159.11934,53.273556 Z"
       transform="translate(-29.205193,-20.301249)" />
</svg>
