<?xml version="1.0" encoding="UTF-8" standalone="no"?>
<!-- Created with Inkscape (http://www.inkscape.org/) -->

<svg
   width="10.200377in"
   height="10.670693in"
   viewBox="0 0 259.0896 271.0356"
   version="1.1"
   id="svg1"
   xml:space="preserve"
   inkscape:version="1.4.3 (0d15f75, 2025-12-25)"
   sodipodi:docname="vintage_vu.svg"
   xmlns:inkscape="http://www.inkscape.org/namespaces/inkscape"
   xmlns:sodipodi="http://sodipodi.sourceforge.net/DTD/sodipodi-0.dtd"
   xmlns="http://www.w3.org/2000/svg"
   xmlns:svg="http://www.w3.org/2000/svg"><sodipodi:namedview
     id="namedview1"
     pagecolor="#ffffff"
     bordercolor="#000000"
     borderopacity="1"
     inkscape:showpageshadow="false"
     inkscape:pageopacity="0"
     inkscape:pagecheckerboard="false"
     inkscape:deskcolor="#313131"
     inkscape:document-units="px"
     inkscape:zoom="0.52152805"
     inkscape:cx="453.47513"
     inkscape:cy="812.03686"
     inkscape:window-width="1800"
     inkscape:window-height="1097"
     inkscape:window-x="0"
     inkscape:window-y="40"
     inkscape:window-maximized="0"
     inkscape:current-layer="layer4"
     labelstyle="default"
     showguides="true"
     guidecolor="#000000"
     guideopacity="0.6"
     showgrid="true"
     inkscape:antialias-rendering="true" /><defs
     id="defs1"><filter
       inkscape:collect="always"
       style="color-interpolation-filters:sRGB"
       id="filter47"
       x="-0.063288788"
       y="-0.1293613"
       width="1.1265776"
       height="1.2587226"><feGaussianBlur
         inkscape:collect="always"
         stdDeviation="0.10313382"
         id="feGaussianBlur47" /></filter><filter
       inkscape:collect="always"
       style="color-interpolation-filters:sRGB"
       id="filter48"
       x="-0.017749375"
       y="-0.12063236"
       width="1.0354987"
       height="1.2412647"><feGaussianBlur
         inkscape:collect="always"
         stdDeviation="0.10309353"
         id="feGaussianBlur48" /></filter><filter
       inkscape:collect="always"
       style="color-interpolation-filters:sRGB"
       id="filter49"
       x="-0.063288788"
       y="-0.1293613"
       width="1.1265776"
       height="1.2587226"><feGaussianBlur
         inkscape:collect="always"
         stdDeviation="0.10313382"
         id="feGaussianBlur49" /></filter></defs><g
     inkscape:label="Layer 1"
     inkscape:groupmode="layer"
     id="layer1"
     transform="translate(8.2417304,-18.261004)"
     style="display:inline"><rect
       style="display:inline;opacity:1;fill:#2f2f2f;fill-opacity:1;fill-rule:evenodd;stroke:none;stroke-width:0.0980928;stroke-dasharray:none;stroke-opacity:1"
       id="rect18"
       width="252.10695"
       height="265.30627"
       x="-4.7504025"
       y="21.125679"
       ry="25.673306"
       inkscape:label="housing main" /><rect
       style="display:inline;opacity:1;fill:#000000;fill-opacity:1;fill-rule:evenodd;stroke:none;stroke-width:0.184772;stroke-dasharray:none;stroke-opacity:1"
       id="rect18-5"
       width="244.34711"
       height="256.97247"
       x="-0.87048703"
       y="25.332422"
       ry="24.866856"
       inkscape:label="housing inside" /><path
       id="rect22-7"
       style="display:inline;opacity:1;fill:#1d1d1d;fill-opacity:1;fill-rule:evenodd;stroke:none;stroke-width:0.122097;stroke-dasharray:none;stroke-opacity:1"
       d="M 121.74803,49.283648 A 105.43704,72.450326 0.70542766 0 0 68.972333,58.493972 105.43704,72.450326 0.70542766 0 0 15.93462,118.47306 c -0.352992,1.62521 -0.538527,3.31123 -0.538527,5.04094 v 42.04951 c 0,13.41536 11.161829,24.21506 25.027004,24.21506 H 201.98672 c 13.86518,0 25.02749,-10.7997 25.02749,-24.21506 V 123.514 c 0,-1.45035 -0.1304,-2.87015 -0.38065,-4.24904 A 105.43704,72.450326 0.70542766 0 0 174.40413,59.486416 105.43704,72.450326 0.70542766 0 0 121.74803,49.283648 Z" /><path
       id="not_this"
       style="display:inline;opacity:1;fill:#171717;fill-opacity:1;fill-rule:evenodd;stroke:none;stroke-width:0.133844;stroke-dasharray:none;stroke-opacity:1"
       inkscape:label="not_this"
       d="m 114.74508,201.79037 c -1.17089,0 -2.11357,0.94268 -2.11357,2.11357 v 23.82852 a 18.61248,18.047438 0 0 0 -1.63297,0.93999 v -24.29051 c 0,-1.38698 -1.1131,-2.50372 -2.49546,-2.50372 -1.38236,0 -2.49494,1.11674 -2.49494,2.50372 v 28.89798 c 0,0.0445 8.4e-4,0.0889 0.003,0.13281 a 18.61248,18.047438 0 0 0 -3.32072,10.28878 18.61248,18.047438 0 0 0 3.21324,10.13633 c -0.0549,0.17823 -0.0847,0.3681 -0.0847,0.56482 v 21.97024 c 0,1.05447 0.84929,1.90324 1.90376,1.90324 h 1.18339 c 1.05447,0 1.90376,-0.84877 1.90376,-1.90324 v -17.76584 a 18.61248,18.047438 0 0 0 1.50378,0.8971 v 17.22996 c 0,0.85419 0.68731,1.54202 1.54151,1.54202 h 1.90686 c 0.8542,0 1.54203,-0.68783 1.54203,-1.54202 V 261.3273 a 18.61248,18.047438 0 0 0 1.50378,0.2589 v 15.62386 c 0,0.85419 0.68783,1.54202 1.54202,1.54202 h 1.90635 c 0.8542,0 1.54202,-0.68783 1.54202,-1.54202 V 261.5862 a 18.61248,18.047438 0 0 0 1.50379,-0.2589 v 15.40682 c 0,0.85419 0.68782,1.54202 1.54202,1.54202 h 1.90686 c 0.8542,0 1.54151,-0.68783 1.54151,-1.54202 v -17.22996 a 18.61248,18.047438 0 0 0 1.50378,-0.8971 v 17.76584 c 0,1.05447 0.84929,1.90324 1.90376,1.90324 h 1.18339 c 1.05447,0 1.90376,-0.84877 1.90376,-1.90324 v -21.97024 c 0,-0.19672 -0.0298,-0.38658 -0.0847,-0.56482 a 18.61248,18.047438 0 0 0 3.21324,-10.13633 18.61248,18.047438 0 0 0 -2.45514,-8.95915 c 0.0207,-0.13381 0.031,-0.27133 0.031,-0.41134 v -29.67416 c 0,-1.42423 -1.11258,-2.5709 -2.49493,-2.5709 -1.38236,0 -2.49546,1.14667 -2.49546,2.5709 v 24.62899 a 18.61248,18.047438 0 0 0 -1.63246,-1.06609 v -24.31582 c 0,-1.17089 -0.94267,-2.11357 -2.11356,-2.11357 h -0.76378 c -1.17089,0 -2.11357,0.94268 -2.11357,2.11357 v 22.30354 a 18.61248,18.047438 0 0 0 -1.63246,-0.32659 v -22.13767 c 0,-1.08183 -0.87102,-1.95285 -1.95285,-1.95285 h -1.0852 c -1.08183,0 -1.95234,0.87102 -1.95234,1.95285 v 22.02036 a 18.61248,18.047438 0 0 0 -1.63297,0.24702 v -22.10666 c 0,-1.17089 -0.94268,-2.11357 -2.11357,-2.11357 z" /><circle
       style="display:inline;opacity:0.5;fill:#6b6b6b;fill-opacity:1;fill-rule:evenodd;stroke:none;stroke-width:0.1;stroke-dasharray:none;stroke-opacity:1"
       id="path18"
       cx="158.75"
       cy="245.74168"
       r="13.693438"
       inkscape:label="calibration base"
       transform="translate(-37.446923,-2.0402444)" /><circle
       style="display:inline;opacity:0.403;fill:#000000;fill-opacity:1;fill-rule:evenodd;stroke:none;stroke-width:0.0860622;stroke-dasharray:none;stroke-opacity:1"
       id="path18-6"
       cx="121.30308"
       cy="243.70145"
       inkscape:label="calibration base inner"
       r="11.784876" /><path
       id="rect22"
       style="display:inline;opacity:1;fill:#1b1b1b;fill-opacity:1;fill-rule:evenodd;stroke:none;stroke-width:0.132452;stroke-dasharray:none;stroke-opacity:1"
       d="M 121.78444,39.337754 A 112.50839,79.900719 0.77643048 0 0 65.469533,49.495273 112.50839,79.900719 0.77643048 0 0 8.8750543,115.64266 c -0.3766648,1.79234 -0.5746419,3.65176 -0.5746419,5.55935 v 46.37391 c 0,14.795 11.9103516,26.70535 26.7053466,26.70535 H 207.40402 c 14.795,0 26.70587,-11.91035 26.70587,-26.70535 v -46.37391 c 0,-1.59952 -0.13915,-3.16533 -0.40618,-4.68602 a 112.50839,79.900719 0.77643048 0 0 -55.732,-65.92621 112.50839,79.900719 0.77643048 0 0 -56.18727,-11.252026 z" /><path
       id="rect22-7-5"
       style="display:inline;opacity:0.872;fill:#f2d79a;fill-opacity:1;fill-rule:evenodd;stroke:none;stroke-width:0.119842;stroke-dasharray:none;stroke-opacity:1"
       d="m 159.11934,53.273556 a 102.88075,71.533424 0.7294021 0 0 -51.49605,9.093778 102.88075,71.533424 0.7294021 0 0 -51.751728,59.220136 c -0.344433,1.60463 -0.525468,3.26932 -0.525468,4.97714 v 41.51743 c 0,13.2456 10.891192,23.90864 24.420183,23.90864 H 237.41254 c 13.529,0 24.42065,-10.66304 24.42065,-23.90864 v -41.51743 c 0,-1.432 -0.12724,-2.83383 -0.3714,-4.19526 A 102.88075,71.533424 0.7294021 0 0 210.49871,63.347221 102.88075,71.533424 0.7294021 0 0 159.11934,53.273556 Z"
       transform="translate(-37.446923,-2.040245)" /><path
       style="opacity:1;fill:#000000;fill-opacity:1;fill-rule:evenodd;stroke:none;stroke-width:0.0534548;stroke-dasharray:none;stroke-opacity:1"
       id="arm_pivot_arc"
       sodipodi:type="arc"
       sodipodi:cx="-121.30307"
       sodipodi:cy="-189.91115"
       sodipodi:rx="17.30064"
       sodipodi:ry="6.0691466"
       sodipodi:start="0"
       sodipodi:end="3.1415927"
       sodipodi:arc-type="arc"
       d="m -104.00243,-189.91115 a 17.30064,6.0691466 0 0 1 -8.65032,5.25604 17.30064,6.0691466 0 0 1 -17.30064,0 17.30064,6.0691466 0 0 1 -8.65032,-5.25604"
       transform="scale(-1)"
       sodipodi:open="true"
       inkscape:label="arm_pivot_arc" /><rect
       style="display:inline;opacity:1;fill:#161616;fill-opacity:1;fill-rule:evenodd;stroke:none;stroke-width:0.103524;stroke-dasharray:none;stroke-opacity:1"
       id="rect19"
       width="4.9904637"
       height="36.216507"
       x="252.37486"
       y="244.96048"
       ry="2.6742148"
       transform="translate(-37.446923,-2.0402444)" /><rect
       style="display:inline;opacity:1;fill:#171717;fill-opacity:1;fill-rule:evenodd;stroke:none;stroke-width:0.104578;stroke-dasharray:none;stroke-opacity:1"
       id="rect19-0"
       width="4.9904637"
       height="36.957527"
       x="60.134674"
       y="244.21945"
       ry="2.7289314"
       transform="translate(-37.446923,-2.0402444)" /><rect
       style="display:inline;opacity:1;fill:#161616;fill-opacity:1;fill-rule:evenodd;stroke:none;stroke-width:0.126754;stroke-dasharray:none;stroke-opacity:1"
       id="rect19-2"
       width="4.9904637"
       height="54.293629"
       x="259.47067"
       y="226.88336"
       ry="4.0090237"
       transform="translate(-37.446923,-2.0402444)" /><rect
       style="display:inline;opacity:1;fill:#171717;fill-opacity:1;fill-rule:evenodd;stroke:none;stroke-width:0.126754;stroke-dasharray:none;stroke-opacity:1"
       id="rect19-2-7"
       width="4.9904637"
       height="54.293629"
       x="53.09116"
       y="226.88336"
       ry="4.0090237"
       transform="translate(-37.446923,-2.0402444)" /><rect
       style="display:inline;opacity:1;fill:#161616;fill-opacity:1;fill-rule:evenodd;stroke:none;stroke-width:0.142418;stroke-dasharray:none;stroke-opacity:1"
       id="rect19-2-8"
       width="4.9904637"
       height="68.541298"
       x="266.56647"
       y="211.53259"
       ry="5.0610666"
       transform="translate(-37.446923,-2.0402444)" /><rect
       style="display:inline;opacity:1;fill:#171717;fill-opacity:1;fill-rule:evenodd;stroke:none;stroke-width:0.142815;stroke-dasharray:none;stroke-opacity:1"
       id="rect19-2-4"
       width="4.9904637"
       height="68.924545"
       x="46.047642"
       y="209.75719"
       ry="5.0893655"
       transform="translate(-37.446923,-2.0402444)" /><rect
       style="display:inline;opacity:1;fill:#161616;fill-opacity:1;fill-rule:evenodd;stroke:none;stroke-width:0.152638;stroke-dasharray:none;stroke-opacity:1"
       id="rect19-2-8-1"
       width="4.9904637"
       height="78.73188"
       x="273.66229"
       y="193.45512"
       ry="5.8135357"
       transform="translate(-37.446923,-2.0402444)" /><rect
       style="display:inline;opacity:1;fill:#171717;fill-opacity:1;fill-rule:evenodd;stroke:none;stroke-width:0.152638;stroke-dasharray:none;stroke-opacity:1"
       id="rect19-2-8-1-7"
       width="4.9904637"
       height="78.73188"
       x="39.004128"
       y="192.68231"
       ry="5.8135357"
       transform="translate(-37.446923,-2.0402444)" /><rect
       style="opacity:0.608392;mix-blend-mode:normal;fill:#000000;fill-opacity:1;fill-rule:evenodd;stroke:none;stroke-width:0.0951844;stroke-dasharray:none;stroke-opacity:1;filter:url(#filter48)"
       id="rect20"
       width="13.939898"
       height="2.0510621"
       x="134.54539"
       y="230.52623"
       ry="0"
       rx="0"
       transform="matrix(0.99998668,-0.00516086,0.01997074,0.99980057,-24.618926,13.163446)" /><rect
       style="opacity:0.545455;mix-blend-mode:normal;fill:#101010;fill-opacity:1;fill-rule:evenodd;stroke:none;stroke-width:0.134432;stroke-dasharray:none;stroke-opacity:1;filter:url(#filter47)"
       id="rect21"
       width="3.9109797"
       height="1.9134097"
       x="132.08662"
       y="226.06836"
       ry="0"
       transform="matrix(0.9996077,0.02800813,0.01419936,0.99989919,-24.618926,13.163446)" /><rect
       style="display:inline;opacity:0.461538;mix-blend-mode:normal;fill:#101010;fill-opacity:1;fill-rule:evenodd;stroke:none;stroke-width:0.134432;stroke-dasharray:none;stroke-opacity:1;filter:url(#filter49)"
       id="rect21-9"
       width="3.9109797"
       height="1.9134097"
       x="149.94936"
       y="225.60561"
       ry="0"
       transform="matrix(0.9996077,0.02800813,0.01419936,0.99989919,-24.618926,13.163446)" /></g><g
     inkscape:groupmode="layer"
     id="layer4"
     inkscape:label="Layer 2"
     style="display:inline;opacity:1"
     transform="translate(-29.205193,-20.301249)"><circle
       style="display:inline;opacity:1;fill:#000000;fill-opacity:1;fill-rule:evenodd;stroke:none;stroke-width:0.1;stroke-dasharray:none;stroke-opacity:1"
       id="path25"
       cx="51.791927"
       cy="146.14665"
       r="1.5822824"
       transform="translate(37.446923,2.0402449)" /><circle
       style="display:inline;opacity:1;fill:#000000;fill-opacity:1;fill-rule:evenodd;stroke:none;stroke-width:0.1;stroke-dasharray:none;stroke-opacity:1"
       id="path25-2"
       cx="60.190258"
       cy="137.37888"
       r="1.5822824"
       transform="translate(37.446923,2.0402449)" /><circle
       style="display:inline;opacity:1;fill:#000000;fill-opacity:1;fill-rule:evenodd;stroke:none;stroke-width:0.1;stroke-dasharray:none;stroke-opacity:1"
       id="path25-2-9"
       cx="65.864662"
       cy="132.57144"
       r="1.5822824"
       transform="translate(37.446923,2.0402449)" /><circle
       style="display:inline;opacity:1;fill:#000000;fill-opacity:1;fill-rule:evenodd;stroke:none;stroke-width:0.1;stroke-dasharray:none;stroke-opacity:1"
       id="path25-2-9-2"
       cx="74.82077"
       cy="126.33437"
       r="1.5822824"
       transform="translate(37.446923,2.0402449)" /><circle
       style="display:inline;opacity:1;fill:#000000;fill-opacity:1;fill-rule:evenodd;stroke:none;stroke-width:0.1;stroke-dasharray:none;stroke-opacity:1"
       id="path25-2-9-2-7"
       cx="85.321465"
       cy="121.03236"
       r="1.5822824"
       transform="translate(37.446923,2.0402449)" /><circle
       style="display:inline;opacity:1;fill:#000000;fill-opacity:1;fill-rule:evenodd;stroke:none;stroke-width:0.1;stroke-dasharray:none;stroke-opacity:1"
       id="path25-2-9-2-7-0"
       cx="96.902924"
       cy="116.66648"
       r="1.5822824"
       transform="translate(37.446923,2.0402449)" /><circle
       style="display:inline;opacity:1;fill:#000000;fill-opacity:1;fill-rule:evenodd;stroke:none;stroke-width:0.1;stroke-dasharray:none;stroke-opacity:1"
       id="path25-2-9-2-7-0-7"
       cx="109.43542"
       cy="114.0278"
       r="1.5822824"
       transform="translate(37.446923,2.0402449)" /><circle
       style="display:inline;opacity:1;fill:#000000;fill-opacity:1;fill-rule:evenodd;stroke:none;stroke-width:0.1;stroke-dasharray:none;stroke-opacity:1"
       id="path25-2-9-2-7-0-7-4"
       cx="122.52769"
       cy="113.11759"
       r="1.5822824"
       transform="translate(37.446923,2.0402449)" /><path
       style="font-weight:900;font-size:7.05556px;line-height:0;font-family:'Liber Grotesque Family';-inkscape-font-specification:'Liber Grotesque Family, Heavy';letter-spacing:0.134937px;word-spacing:0px;direction:rtl;fill-rule:evenodd;stroke-width:0.1"
       d="m 57.255057,131.57159 h -1.481668 l -1.728612,-5.18583 h 1.016 l 1.453446,4.36739 1.453445,-4.36739 h 1.016001 z m 3.260545,-2.25072 q 0,0.31045 0.105833,0.5715 0.105834,0.26106 0.289278,0.4445 0.183445,0.18345 0.430389,0.28928 0.246945,0.0988 0.529167,0.0988 0.282223,0 0.529167,-0.0988 0.246945,-0.10583 0.43039,-0.28928 0.183444,-0.18344 0.289278,-0.4445 0.105833,-0.26105 0.105833,-0.5715 v -2.93511 h 0.973667 v 2.93511 q 0,0.48683 -0.183444,0.91017 -0.183445,0.42333 -0.500945,0.74083 -0.3175,0.31045 -0.740834,0.49389 -0.423334,0.18345 -0.903112,0.18345 -0.479778,0 -0.903111,-0.18345 -0.423334,-0.18344 -0.740834,-0.49389 -0.3175,-0.3175 -0.500945,-0.74083 -0.183444,-0.42334 -0.183444,-0.91017 v -2.93511 h 0.973667 z"
       id="text25-0"
       transform="rotate(-24.806925)"
       aria-label="VU" /><path
       style="font-weight:900;font-size:8.1439px;line-height:0;font-family:'Liber Grotesque Family';-inkscape-font-specification:'Liber Grotesque Family, Heavy';letter-spacing:0.155751px;word-spacing:0px;direction:rtl;fill-rule:evenodd;stroke-width:0.115425"
       d="m -49.857124,150.76343 h -4.161533 v -0.78182 l 2.540897,-2.37802 q 0.211741,-0.20359 0.390907,-0.44791 0.179166,-0.25246 0.179166,-0.56193 0,-0.44791 -0.276893,-0.74109 -0.268749,-0.30133 -0.749239,-0.30133 -0.488634,0 -0.765526,0.30133 -0.276893,0.29318 -0.276893,0.74109 h -1.042419 q 0,-0.42348 0.14659,-0.80625 0.154734,-0.38276 0.431627,-0.65965 0.276892,-0.28504 0.659656,-0.44792 0.382763,-0.17102 0.846965,-0.17102 0.472347,0 0.85511,0.17102 0.390907,0.16288 0.659656,0.44792 0.276892,0.27689 0.423482,0.65965 0.146591,0.38277 0.146591,0.80625 0,0.28504 -0.06515,0.52121 -0.06515,0.23617 -0.195453,0.45606 -0.130303,0.21988 -0.325756,0.43163 -0.18731,0.21174 -0.431627,0.43162 l -1.522909,1.37632 h 2.532753 z m 1.092301,-3.07025 q 0,-0.65966 0.14659,-1.24602 0.14659,-0.58636 0.439771,-1.02613 0.301324,-0.43977 0.749238,-0.69223 0.447915,-0.26061 1.050563,-0.26061 0.602649,0 1.050563,0.25246 0.447915,0.25246 0.749239,0.69224 0.301325,0.43977 0.447915,1.02613 0.14659,0.58636 0.14659,1.25416 0,0.65965 -0.14659,1.24601 -0.14659,0.58636 -0.447915,1.02614 -0.301324,0.43977 -0.749239,0.70037 -0.447914,0.25246 -1.050563,0.25246 -0.602648,0 -1.050563,-0.25246 -0.447914,-0.2606 -0.749238,-0.70037 -0.293181,-0.43978 -0.439771,-1.02614 -0.14659,-0.58636 -0.14659,-1.24601 z m 2.394306,2.15813 q 0.268749,0 0.488634,-0.15473 0.219886,-0.16288 0.37462,-0.44792 0.162878,-0.29318 0.244317,-0.68409 0.08958,-0.39905 0.08958,-0.87139 0,-0.47235 -0.08958,-0.8714 -0.08958,-0.39905 -0.252461,-0.68409 -0.154734,-0.29318 -0.37462,-0.44791 -0.219885,-0.16288 -0.488634,-0.16288 -0.268748,0 -0.488634,0.16288 -0.219885,0.15473 -0.382763,0.44791 -0.154734,0.28504 -0.244317,0.68409 -0.08144,0.39905 -0.08144,0.8714 0,0.48049 0.08144,0.87954 0.08958,0.39091 0.244317,0.67594 0.162878,0.28504 0.382763,0.44792 0.22803,0.15473 0.496778,0.15473 z m -12.746217,-0.65151 v -1.04242 h 4.169676 v 1.04242 z"
       id="text25-0-3"
       transform="rotate(-48.524288)"
       aria-label="20-" /><path
       style="font-weight:900;font-size:8.1439px;line-height:0;font-family:'Liber Grotesque Family';-inkscape-font-specification:'Liber Grotesque Family, Heavy';letter-spacing:0.155751px;word-spacing:0px;direction:rtl;fill-rule:evenodd;stroke-width:0.115425"
       d="m -5.0919309,150.75564 v -0.90397 h 0.7085193 q 0.1384463,0 0.2280292,-0.10587 0.089583,-0.11401 0.089583,-0.28504 v -0.67594 h 1.0749948 v 5.20395 h 1.0261314 v 0.96098 H -5.083787 v -0.96098 h 1.0179875 v -3.23313 z m 3.8530698,1.12386 q 0,-0.65965 0.1465902,-1.24601 0.14659022,-0.58636 0.43977061,-1.02614 0.3013243,-0.43977 0.7492388,-0.69223 0.44791449,-0.2606 1.05056309,-0.2606 0.6026486,0 1.0505631,0.25246 0.4479145,0.25246 0.7492388,0.69223 0.3013243,0.43977 0.4479145,1.02613 0.1465902,0.58636 0.1465902,1.25416 0,0.65966 -0.1465902,1.24602 -0.1465902,0.58636 -0.4479145,1.02613 -0.3013243,0.43977 -0.7492388,0.70038 -0.4479145,0.25246 -1.0505631,0.25246 -0.6026486,0 -1.05056309,-0.25246 -0.4479145,-0.26061 -0.7492388,-0.70038 -0.29318039,-0.43977 -0.43977061,-1.02613 -0.1465902,-0.58636 -0.1465902,-1.24602 z m 2.3943066,2.15814 q 0.2687487,0 0.488634,-0.15474 0.2198853,-0.16288 0.3746194,-0.44791 0.162878,-0.29318 0.244317,-0.68409 0.089583,-0.39905 0.089583,-0.8714 0,-0.47234 -0.089583,-0.87139 -0.089583,-0.39906 -0.2524609,-0.68409 -0.1547341,-0.29318 -0.3746194,-0.44792 -0.2198853,-0.16287 -0.488634,-0.16287 -0.2687487,0 -0.488634,0.16287 -0.2198853,0.15474 -0.3827633,0.44792 -0.1547341,0.28503 -0.24431699,0.68409 -0.081439,0.39905 -0.081439,0.87139 0,0.48049 0.081439,0.87954 0.08958289,0.39091 0.24431699,0.67595 0.162878,0.28503 0.3827633,0.44791 0.2280292,0.15474 0.4967779,0.15474 z m -11.2721585,-0.65152 v -1.04242 h 4.1696766 v 1.04242 z"
       id="text25-0-3-2"
       transform="rotate(-38.619057)"
       aria-label="10-" /><path
       style="font-weight:900;font-size:8.1439px;line-height:0;font-family:'Liber Grotesque Family';-inkscape-font-specification:'Liber Grotesque Family, Heavy';letter-spacing:0.155751px;word-spacing:0px;direction:rtl;fill-rule:evenodd;stroke-width:0.115425"
       d="m 34.355098,153.52602 1.816089,-5.2121 h -2.638623 v -0.95284 h 3.949791 l 0.08144,0.11402 -2.084838,6.05092 z m -5.643719,-1.56363 v -1.04242 h 4.169677 v 1.04242 z"
       id="text25-0-3-2-6"
       transform="rotate(-31.487725)"
       aria-label="7-" /><path
       style="font-weight:900;font-size:8.1439px;line-height:0;font-family:'Liber Grotesque Family';-inkscape-font-specification:'Liber Grotesque Family, Heavy';letter-spacing:0.155751px;word-spacing:0px;direction:rtl;fill-rule:evenodd;stroke-width:0.115425"
       d="m 88.655461,137.04178 q 0.219885,0 0.407195,-0.0814 0.195453,-0.0896 0.3339,-0.23617 0.14659,-0.14659 0.228029,-0.3339 0.08958,-0.19545 0.08958,-0.41534 0,-0.21988 -0.08144,-0.41534 -0.08144,-0.19545 -0.228029,-0.3339 -0.138447,-0.14659 -0.3339,-0.22803 -0.18731,-0.0896 -0.407195,-0.0896 -0.358332,0 -0.610793,0.16288 -0.244317,0.15473 -0.399051,0.38276 H 86.63577 l 0.285036,-3.55888 h 3.29828 v 0.96098 h -2.402451 l -0.09773,1.37632 q 0.18731,-0.13845 0.431627,-0.23618 0.252461,-0.10587 0.594505,-0.10587 0.43977,0 0.806246,0.16288 0.366475,0.16288 0.62708,0.44791 0.268749,0.2769 0.415339,0.65966 0.14659,0.38276 0.14659,0.81439 0,0.43163 -0.171022,0.81439 -0.162878,0.37462 -0.447914,0.65966 -0.276893,0.27689 -0.659656,0.44791 -0.382763,0.16288 -0.806246,0.16288 -0.358332,0 -0.692232,-0.11402 -0.325756,-0.12215 -0.594504,-0.32575 -0.260605,-0.21174 -0.456059,-0.49678 -0.187309,-0.29318 -0.276892,-0.62708 H 87.7352 q 0.130303,0.25246 0.366476,0.39905 0.244317,0.14659 0.553785,0.14659 z m -7.182916,-0.54564 v -1.04242 h 4.169677 v 1.04242 z"
       id="text25-0-3-2-6-4"
       transform="rotate(-16.846717)"
       aria-label="5-" /><path
       style="font-weight:900;font-size:8.1439px;line-height:0;font-family:'Liber Grotesque Family';-inkscape-font-specification:'Liber Grotesque Family, Heavy';letter-spacing:0.155751px;word-spacing:0px;direction:rtl;fill-rule:evenodd;stroke-width:0.115425"
       d="m 126.13291,118.7892 q 0,-0.36648 0.14659,-0.68409 0.14659,-0.32576 0.39905,-0.56193 0.2606,-0.24432 0.61894,-0.38276 0.35833,-0.13845 0.78181,-0.13845 0.44792,0 0.80625,0.13845 0.35833,0.13844 0.61079,0.37462 0.25246,0.23617 0.38276,0.56193 0.1303,0.31761 0.1303,0.69223 0,0.45605 -0.13844,0.76552 -0.1303,0.30947 -0.35833,0.51307 0.14659,0.0896 0.29318,0.23617 0.14659,0.13845 0.25246,0.31761 0.11401,0.17103 0.17916,0.38277 0.0733,0.21174 0.0733,0.43977 0,0.44791 -0.15473,0.83068 -0.15474,0.37462 -0.44792,0.65151 -0.28504,0.26875 -0.70037,0.42348 -0.4072,0.15473 -0.92841,0.15473 -0.4642,0 -0.88768,-0.15473 -0.41534,-0.15473 -0.73296,-0.42348 -0.30946,-0.27689 -0.49677,-0.65151 -0.17917,-0.38277 -0.17917,-0.83068 h 1.132 q 0,0.21174 0.0896,0.39905 0.0896,0.18731 0.24431,0.32576 0.15474,0.13844 0.36648,0.22802 0.21988,0.0814 0.4642,0.0814 0.50492,0 0.78996,-0.26875 0.29318,-0.27689 0.30132,-0.69223 0.008,-0.41534 -0.26875,-0.64337 -0.27689,-0.22802 -0.70037,-0.22802 h -0.80625 v -0.95284 h 0.64337 q 0.39905,0 0.64337,-0.22803 0.24432,-0.23617 0.24432,-0.61079 0,-0.3339 -0.22803,-0.56193 -0.21989,-0.22803 -0.61894,-0.22803 -0.17917,0 -0.3339,0.0652 -0.14659,0.057 -0.2606,0.15473 -0.10587,0.0977 -0.17103,0.22803 -0.057,0.13031 -0.057,0.2769 z m -5.29353,2.98881 v -1.04242 h 4.16967 v 1.04242 z"
       id="text25-0-3-2-6-4-6"
       transform="rotate(-9.2477106)"
       aria-label="3-" /><path
       style="font-weight:900;font-size:8.1439px;line-height:0;font-family:'Liber Grotesque Family';-inkscape-font-specification:'Liber Grotesque Family, Heavy';letter-spacing:0.155751px;word-spacing:0px;direction:rtl;fill-rule:evenodd;stroke-width:0.115425"
       d="m 157.99645,105.94382 h -4.16153 V 105.162 l 2.5409,-2.37802 q 0.21174,-0.20359 0.3909,-0.44791 0.17917,-0.25246 0.17917,-0.56193 0,-0.44791 -0.27689,-0.74109 -0.26875,-0.30133 -0.74924,-0.30133 -0.48864,0 -0.76553,0.30133 -0.27689,0.29318 -0.27689,0.74109 h -1.04242 q 0,-0.42348 0.14659,-0.80625 0.15473,-0.38276 0.43163,-0.65965 0.27689,-0.28504 0.65965,-0.447916 0.38276,-0.171022 0.84697,-0.171022 0.47234,0 0.85511,0.171022 0.3909,0.162876 0.65965,0.447916 0.2769,0.27689 0.42349,0.65965 0.14659,0.38277 0.14659,0.80625 0,0.28504 -0.0652,0.52121 -0.0651,0.23617 -0.19545,0.45606 -0.1303,0.21988 -0.32576,0.43163 -0.1873,0.21174 -0.43162,0.43162 l -1.52291,1.37632 h 2.53275 z m -9.25961,-1.56363 v -1.04242 h 4.16968 v 1.04242 z"
       id="text25-0-3-2-6-4-6-3"
       transform="rotate(-1.9329744)"
       aria-label="2-" /><path
       style="font-weight:900;font-size:8.1439px;line-height:0;font-family:'Liber Grotesque Family';-inkscape-font-specification:'Liber Grotesque Family, Heavy';letter-spacing:0.155751px;word-spacing:0px;direction:rtl;fill-rule:evenodd;stroke-width:0.115425"
       d="m 181.59051,79.689162 v -0.903973 h 0.70852 q 0.13844,0 0.22803,-0.105871 0.0896,-0.114014 0.0896,-0.285036 v -0.675944 h 1.07499 v 5.203952 h 1.02614 v 0.96098 h -3.11912 v -0.96098 h 1.01799 v -3.233128 z m -5.02478,2.630479 v -1.042419 h 4.16967 v 1.042419 z"
       id="text25-0-3-2-6-4-6-3-8"
       transform="rotate(5.6578805)"
       aria-label="1-" /><path
       style="font-weight:900;font-size:8.1439px;line-height:0;font-family:'Liber Grotesque Family';-inkscape-font-specification:'Liber Grotesque Family, Heavy';letter-spacing:0.155751px;word-spacing:0px;direction:rtl;fill-rule:evenodd;stroke-width:0.115425"
       d="m 207.60219,53.113439 q 0,-0.659656 0.14659,-1.246017 0.14659,-0.586361 0.43977,-1.026131 0.30133,-0.439771 0.74924,-0.692232 0.44792,-0.260605 1.05057,-0.260605 0.60265,0 1.05056,0.252461 0.44791,0.252461 0.74924,0.692232 0.30132,0.43977 0.44791,1.026131 0.14659,0.586361 0.14659,1.254161 0,0.659656 -0.14659,1.246017 -0.14659,0.58636 -0.44791,1.026131 -0.30133,0.439771 -0.74924,0.700375 -0.44791,0.252461 -1.05056,0.252461 -0.60265,0 -1.05057,-0.252461 -0.44791,-0.260604 -0.74924,-0.700375 -0.29318,-0.439771 -0.43977,-1.026131 -0.14659,-0.586361 -0.14659,-1.246017 z m 2.39431,2.158133 q 0.26875,0 0.48863,-0.154734 0.21989,-0.162878 0.37462,-0.447914 0.16288,-0.293181 0.24432,-0.684088 0.0896,-0.399051 0.0896,-0.871397 0,-0.472346 -0.0896,-0.871397 -0.0896,-0.399052 -0.25246,-0.684088 -0.15473,-0.29318 -0.37462,-0.447915 -0.21988,-0.162878 -0.48863,-0.162878 -0.26875,0 -0.48864,0.162878 -0.21988,0.154735 -0.38276,0.447915 -0.15473,0.285036 -0.24432,0.684088 -0.0814,0.399051 -0.0814,0.871397 0,0.48049 0.0814,0.879541 0.0896,0.390907 0.24432,0.675944 0.16288,0.285036 0.38276,0.447914 0.22803,0.154734 0.49678,0.154734 z"
       id="text25-0-3-2-6-4-6-3-8-3"
       transform="rotate(13.804529)"
       aria-label="0" /><path
       style="font-weight:900;font-size:8.1439px;line-height:0;font-family:'Liber Grotesque Family';-inkscape-font-specification:'Liber Grotesque Family, Heavy';letter-spacing:0.155751px;word-spacing:0px;direction:rtl;fill:#b23917;fill-opacity:1;fill-rule:evenodd;stroke-width:0.115425"
       d="m 233.45977,15.66955 v -0.903972 h 0.70852 q 0.13845,0 0.22803,-0.105871 0.0896,-0.114015 0.0896,-0.285037 v -0.675943 h 1.075 v 5.203952 h 1.02613 v 0.96098 h -3.11912 v -0.96098 h 1.01799 V 15.66955 Z m -5.02478,2.63048 v -1.042419 h 1.56363 v -1.563629 h 1.04242 v 1.563629 h 1.56362 v 1.042419 h -1.56362 v 1.563629 h -1.04242 V 18.30003 Z"
       id="text25-0-3-2-6-4-6-3-8-3-3"
       transform="rotate(23.473844)"
       aria-label="1+" /><path
       style="font-weight:900;font-size:8.1439px;line-height:0;font-family:'Liber Grotesque Family';-inkscape-font-specification:'Liber Grotesque Family, Heavy';letter-spacing:0.155751px;word-spacing:0px;direction:rtl;fill:#b23917;fill-opacity:1;fill-rule:evenodd;stroke-width:0.115425"
       d="m 255.34656,-42.682663 h -4.16153 v -0.781814 l 2.5409,-2.378019 q 0.21174,-0.203598 0.39091,-0.447915 0.17916,-0.252461 0.17916,-0.561929 0,-0.447914 -0.27689,-0.741095 -0.26875,-0.301324 -0.74924,-0.301324 -0.48863,0 -0.76553,0.301324 -0.27689,0.293181 -0.27689,0.741095 h -1.04242 q 0,-0.423483 0.14659,-0.806246 0.15474,-0.382763 0.43163,-0.659656 0.27689,-0.285036 0.65965,-0.447914 0.38277,-0.171022 0.84697,-0.171022 0.47235,0 0.85511,0.171022 0.39091,0.162878 0.65966,0.447914 0.27689,0.276893 0.42348,0.659656 0.14659,0.382763 0.14659,0.806246 0,0.285037 -0.0652,0.52121 -0.0651,0.236173 -0.19546,0.456058 -0.1303,0.219886 -0.32575,0.431627 -0.18731,0.211741 -0.43163,0.431627 l -1.52291,1.376319 h 2.53275 z m -9.25961,-1.563629 v -1.042419 h 1.56363 v -1.563629 h 1.04242 v 1.563629 h 1.56363 v 1.042419 H 248.693 v 1.563629 h -1.04242 v -1.563629 z"
       id="text25-0-3-2-6-4-6-3-8-3-3-1"
       transform="rotate(38.026687)"
       aria-label="2+" /><path
       style="font-weight:900;font-size:8.1439px;line-height:0;font-family:'Liber Grotesque Family';-inkscape-font-specification:'Liber Grotesque Family, Heavy';letter-spacing:0.155751px;word-spacing:0px;direction:rtl;fill:#b23917;fill-opacity:1;fill-rule:evenodd;stroke-width:0.115425"
       d="m 267.24601,-75.940128 q 0,-0.366475 0.14659,-0.684087 0.14659,-0.325756 0.39905,-0.561929 0.2606,-0.244317 0.61893,-0.382764 0.35834,-0.138446 0.78182,-0.138446 0.44791,0 0.80624,0.138446 0.35834,0.138447 0.6108,0.37462 0.25246,0.236173 0.38276,0.561929 0.1303,0.317612 0.1303,0.692231 0,0.456059 -0.13844,0.765527 -0.13031,0.309468 -0.35833,0.513066 0.14659,0.08958 0.29318,0.236173 0.14659,0.138446 0.25246,0.317612 0.11401,0.171022 0.17916,0.382763 0.0733,0.211741 0.0733,0.439771 0,0.447914 -0.15474,0.830677 -0.15473,0.37462 -0.44791,0.651512 -0.28504,0.268749 -0.70038,0.423483 -0.40719,0.154734 -0.9284,0.154734 -0.4642,0 -0.88769,-0.154734 -0.41534,-0.154734 -0.73295,-0.423483 -0.30947,-0.276892 -0.49678,-0.651512 -0.17916,-0.382763 -0.17916,-0.830677 h 1.132 q 0,0.211741 0.0896,0.399051 0.0896,0.187309 0.24432,0.325756 0.15474,0.138446 0.36648,0.228029 0.21988,0.08144 0.4642,0.08144 0.50492,0 0.78996,-0.268749 0.29318,-0.276892 0.30132,-0.692231 0.008,-0.415339 -0.26875,-0.643368 -0.27689,-0.22803 -0.70037,-0.22803 h -0.80625 v -0.952836 h 0.64337 q 0.39905,0 0.64337,-0.228029 0.24431,-0.236173 0.24431,-0.610793 0,-0.333899 -0.22802,-0.561929 -0.21989,-0.228029 -0.61894,-0.228029 -0.17917,0 -0.3339,0.06515 -0.14659,0.05701 -0.26061,0.154734 -0.10587,0.09773 -0.17102,0.22803 -0.057,0.130302 -0.057,0.276892 z m -5.29353,2.988812 v -1.04242 h 1.56362 v -1.563628 h 1.04242 v 1.563628 h 1.56363 v 1.04242 h -1.56363 v 1.563628 h -1.04242 v -1.563628 z"
       id="text25-0-3-2-6-4-6-3-8-3-3-1-5"
       transform="rotate(44.644537)"
       aria-label="3+" /><path
       style="font-weight:900;font-size:7.05556px;line-height:0;font-family:'Liber Grotesque Family';-inkscape-font-specification:'Liber Grotesque Family, Heavy';letter-spacing:0.134937px;word-spacing:0px;direction:rtl;fill:#b23917;fill-rule:evenodd;stroke-width:0.1"
       d="m 228.9255,6.1910048 h -1.48166 l -1.72861,-5.1858367 h 1.016 l 1.45344,4.3673917 1.45345,-4.3673917 h 1.016 z m 3.26055,-2.2507237 q 0,0.3104446 0.10583,0.5715003 0.10584,0.2610558 0.28928,0.4445003 0.18345,0.1834446 0.43039,0.289278 0.24695,0.098778 0.52917,0.098778 0.28222,0 0.52916,-0.098778 0.24695,-0.1058334 0.43039,-0.289278 0.18345,-0.1834445 0.28928,-0.4445003 0.10584,-0.2610557 0.10584,-0.5715003 v -2.935113 h 0.97366 v 2.935113 q 0,0.4868336 -0.18344,0.9101672 -0.18345,0.4233336 -0.50095,0.7408338 -0.3175,0.3104447 -0.74083,0.4938893 -0.42333,0.1834445 -0.90311,0.1834445 -0.47978,0 -0.90311,-0.1834445 -0.42334,-0.1834446 -0.74084,-0.4938893 -0.3175,-0.3175002 -0.50094,-0.7408338 -0.18345,-0.4233336 -0.18345,-0.9101672 v -2.935113 h 0.97367 z"
       id="text25-0-6"
       transform="rotate(22.68453)"
       aria-label="VU" /><path
       id="path29"
       style="opacity:1;fill:none;fill-opacity:1;fill-rule:evenodd;stroke:#000000;stroke-width:1.5875;stroke-dasharray:none;stroke-opacity:1"
       d="m 159.29835,93.994003 c -22.26533,-5.882426 -47.04623,-4.536405 -67.761347,3.511987 -16.32021,6.34085 -27.573587,18.24695 -35.168167,28.30748"
       sodipodi:nodetypes="csc"
       transform="translate(29.205193,20.301249)" /><path
       id="path25-2-9-2-7-0-7-4-7-4"
       style="display:inline;opacity:1;fill-rule:evenodd;stroke-width:0.1"
       transform="translate(37.446923,2.0402449)"
       d="m 150.39985,117.04856 a 1.5822824,1.5822824 0 0 1 -1.58228,1.58228 1.5822824,1.5822824 0 0 1 -1.58229,-1.58228 1.5822824,1.5822824 0 0 1 1.58229,-1.58228 1.5822824,1.5822824 0 0 1 1.58228,1.58228 z" /><path
       id="path30"
       style="opacity:1;fill:none;fill-opacity:1;fill-rule:evenodd;stroke:#b23917;stroke-width:1.5875;stroke-dasharray:none;stroke-opacity:1"
       d="M 204.96014,123.831 C 197.17932,113.75556 185.8973,104.81693 169.80972,97.266348 166.54166,95.732509 162.92667,94.85207 159.30328,93.907993"
       sodipodi:nodetypes="csc"
       transform="translate(29.205193,20.301249)" /><path
       id="path25-2-9-2-7-0-7-4-7"
       style="display:inline;opacity:1;fill-rule:evenodd;stroke-width:0.1"
       transform="translate(37.446923,2.0402449)"
       d="m 137.35454,114.17287 a 1.5822824,1.5822824 0 0 1 -1.58228,1.58228 1.5822824,1.5822824 0 0 1 -1.58228,-1.58228 1.5822824,1.5822824 0 0 1 1.58228,-1.58229 1.5822824,1.5822824 0 0 1 1.58228,1.58229 z" /><path
       style="opacity:1;fill:none;fill-opacity:1;fill-rule:evenodd;stroke:#000000;stroke-width:1.5875;stroke-dasharray:none;stroke-opacity:1"
       d="M 85.949113,145.38311 81.679,142.17248"
       id="path31" /><path
       style="opacity:1;fill:none;fill-opacity:1;fill-rule:evenodd;stroke:#000000;stroke-width:1.5875;stroke-dasharray:none;stroke-opacity:1"
       d="m 88.386639,142.52642 -5.340905,-4.96425"
       id="neg_20_mark"
       inkscape:label="neg_20_mark" /><path
       style="opacity:1;fill:none;fill-opacity:1;fill-rule:evenodd;stroke:#000000;stroke-width:1.5875;stroke-dasharray:none;stroke-opacity:1"
       d="m 101.5107,129.1951 -3.873521,-4.98944"
       id="neg_10_mark"
       inkscape:label="neg_10_mark" /><path
       style="opacity:1;fill:none;fill-opacity:1;fill-rule:evenodd;stroke:#000000;stroke-width:1.5875;stroke-dasharray:none;stroke-opacity:1"
       d="m 114.22763,120.65015 -2.86592,-5.10882"
       id="neg_7_mark"
       inkscape:label="neg_7_mark" /><path
       style="opacity:1;fill:none;fill-opacity:1;fill-rule:evenodd;stroke:#000000;stroke-width:1.5875;stroke-dasharray:none;stroke-opacity:1"
       d="m 120.74865,117.65962 -1.4122,-3.1982"
       id="path35" /><path
       style="opacity:1;fill:none;fill-opacity:1;fill-rule:evenodd;stroke:#000000;stroke-width:1.5875;stroke-dasharray:none;stroke-opacity:1"
       d="m 128.30804,115.16751 -2.11829,-5.89799"
       id="neg_5_mark"
       inkscape:label="neg_5_mark" /><path
       style="opacity:1;fill:none;fill-opacity:1;fill-rule:evenodd;stroke:#000000;stroke-width:1.5875;stroke-dasharray:none;stroke-opacity:1"
       d="m 137.11349,112.80001 -0.99684,-4.11198"
       id="path37" /><path
       style="opacity:1;fill:none;fill-opacity:1;fill-rule:evenodd;stroke:#000000;stroke-width:1.5875;stroke-dasharray:none;stroke-opacity:1"
       d="m 147.20653,111.30475 -0.74763,-6.8533"
       id="neg_3_mark"
       inkscape:label="neg_3_mark" /><path
       style="opacity:1;fill:none;fill-opacity:1;fill-rule:evenodd;stroke:#000000;stroke-width:1.5875;stroke-dasharray:none;stroke-opacity:1"
       d="m 159.00251,110.34944 0.12461,-6.64563"
       id="neg_2_mark"
       inkscape:label="neg_2_mark" /><path
       style="opacity:1;fill:none;fill-opacity:1;fill-rule:evenodd;stroke:#000000;stroke-width:1.5875;stroke-dasharray:none;stroke-opacity:1"
       d="m 172.33529,111.18014 0.95531,-6.52102"
       id="neg_1_mark"
       inkscape:label="neg_1_mark" /><path
       style="opacity:1;fill:none;fill-opacity:1;fill-rule:evenodd;stroke:#000000;stroke-width:1.5875;stroke-dasharray:none;stroke-opacity:1"
       d="m 179.85315,112.13545 0.87224,-3.94584"
       id="path41" /><path
       style="opacity:1;fill:none;fill-opacity:1;fill-rule:evenodd;stroke:#b23917;stroke-width:1.5875;stroke-dasharray:none;stroke-opacity:1"
       d="m 195.63651,116.20589 1.20452,-3.03206"
       id="path43"
       inkscape:label="path43" /><path
       style="opacity:1;fill:none;fill-opacity:1;fill-rule:evenodd;stroke:#000000;stroke-width:1.5875;stroke-dasharray:none;stroke-opacity:1"
       d="m 187.49562,113.67225 1.74448,-5.56571"
       id="zero_mark"
       inkscape:label="zero_mark" /><path
       style="opacity:1;fill:none;fill-opacity:1;fill-rule:evenodd;stroke:#b23917;stroke-width:1.5875;stroke-dasharray:none;stroke-opacity:1"
       d="m 203.69433,119.57024 2.61671,-4.94268"
       id="pos_1_mark"
       inkscape:label="pos_1_mark" /><path
       style="opacity:1;fill:none;fill-opacity:1;fill-rule:evenodd;stroke:#b23917;stroke-width:1.5875;stroke-dasharray:none;stroke-opacity:1"
       d="m 219.64382,129.74635 3.61356,-4.23659"
       id="pos_2_mark"
       inkscape:label="pos_2_mark" /><path
       style="opacity:1;fill:none;fill-opacity:1;fill-rule:evenodd;stroke:#b23917;stroke-width:1.69305;stroke-dasharray:none;stroke-opacity:1"
       d="m 233.37926,144.49318 5.38341,-3.74186"
       id="pos_3_mark"
       inkscape:label="pos_3_mark" /><path
       d="m -54.137837,170.36128 q 0,-0.42389 0.09359,-0.81475 0.09909,-0.39086 0.291769,-0.68814 0.198183,-0.30278 0.495457,-0.47894 0.30278,-0.18167 0.710156,-0.18167 0.407376,0 0.70465,0.18167 0.302779,0.17616 0.500962,0.47344 0.198183,0.29727 0.29177,0.68813 0.09909,0.39086 0.09909,0.82026 0,0.42389 -0.09909,0.81475 -0.09359,0.39086 -0.29177,0.69364 -0.198183,0.29728 -0.500962,0.47894 -0.297274,0.17617 -0.70465,0.17617 -0.407376,0 -0.710156,-0.17617 -0.297274,-0.18166 -0.495457,-0.47894 -0.192678,-0.30278 -0.291769,-0.69364 -0.09359,-0.39086 -0.09359,-0.81475 z m 1.596473,1.67354 q 0.242223,0 0.434901,-0.12111 0.192678,-0.12661 0.3248,-0.34682 0.137627,-0.22571 0.209193,-0.53399 0.07157,-0.30829 0.07157,-0.67162 0,-0.36884 -0.07157,-0.67162 -0.07157,-0.30828 -0.209193,-0.52849 -0.132122,-0.22571 -0.330305,-0.34682 -0.192678,-0.12662 -0.434901,-0.12662 -0.242224,0 -0.434902,0.12662 -0.192677,0.12111 -0.330304,0.34682 -0.132122,0.22021 -0.203688,0.52849 -0.07157,0.30278 -0.07157,0.67162 0,0.36884 0.07157,0.67712 0.07157,0.30278 0.203688,0.52849 0.137627,0.22021 0.330304,0.34682 0.192678,0.12111 0.440407,0.12111 z"
       id="text46"
       style="font-weight:450;font-size:5.50508px;line-height:0;font-family:'Liber Grotesque Family';-inkscape-font-specification:'Liber Grotesque Family,  weight=450';letter-spacing:1.59475px;word-spacing:0px;direction:rtl;fill-rule:evenodd;stroke-width:0"
       transform="matrix(0.64458548,-0.76662272,0.75165547,0.65742071,0,0)"
       aria-label="0" /><path
       style="font-weight:450;font-size:5.21124px;line-height:0;font-family:'Liber Grotesque Family';-inkscape-font-specification:'Liber Grotesque Family,  weight=450';letter-spacing:-0.150276px;word-spacing:0px;direction:rtl;fill-rule:evenodd;stroke-width:0"
       d="m -42.866938,175.40523 h -2.662944 v -0.3231 l 1.693653,-1.50084 q 0.213661,-0.18239 0.359576,-0.38563 0.145915,-0.20324 0.145915,-0.45859 0,-0.1876 -0.06254,-0.34915 -0.06253,-0.16155 -0.177182,-0.2762 -0.114648,-0.11985 -0.276196,-0.18239 -0.156337,-0.0677 -0.349153,-0.0677 -0.187605,0 -0.349153,0.0677 -0.161549,0.0678 -0.276196,0.18761 -0.114647,0.11985 -0.182393,0.2814 -0.06253,0.15634 -0.06253,0.33873 h -0.463801 q 0,-0.27098 0.09901,-0.51591 0.104225,-0.24493 0.281407,-0.42211 0.177182,-0.18239 0.42211,-0.28662 0.244929,-0.10943 0.531547,-0.10943 0.29704,0 0.541969,0.10422 0.244928,0.10423 0.416899,0.28662 0.177182,0.17718 0.276196,0.42211 0.09901,0.24493 0.09901,0.52112 0,0.1824 -0.05211,0.34394 -0.0469,0.15634 -0.140704,0.30226 -0.08859,0.14591 -0.218872,0.28661 -0.130281,0.1355 -0.291829,0.2762 l -1.209008,1.03704 h 1.907314 z m 0.449018,-1.96985 q 0,-0.40127 0.08859,-0.77126 0.0938,-0.37 0.276196,-0.65141 0.187604,-0.28662 0.469011,-0.45338 0.286618,-0.17197 0.67225,-0.17197 0.385632,0 0.667039,0.17197 0.286618,0.16676 0.474223,0.44817 0.187604,0.28141 0.276195,0.6514 0.0938,0.37 0.0938,0.77648 0,0.40126 -0.0938,0.77126 -0.08859,0.37 -0.276195,0.65662 -0.187605,0.28141 -0.474223,0.45338 -0.281407,0.16676 -0.667039,0.16676 -0.385632,0 -0.67225,-0.16676 -0.281407,-0.17197 -0.469011,-0.45338 -0.182394,-0.28662 -0.276196,-0.65662 -0.08859,-0.37 -0.08859,-0.77126 z m 1.511259,1.58422 q 0.229295,0 0.411688,-0.11465 0.182394,-0.11986 0.307463,-0.32831 0.130281,-0.21366 0.198028,-0.50549 0.06775,-0.29183 0.06775,-0.63577 0,-0.34915 -0.06775,-0.63577 -0.06775,-0.29183 -0.198028,-0.50028 -0.125069,-0.21366 -0.312674,-0.32831 -0.182393,-0.11986 -0.411688,-0.11986 -0.229294,0 -0.411688,0.11986 -0.182393,0.11465 -0.312674,0.32831 -0.12507,0.20845 -0.192816,0.50028 -0.06775,0.28662 -0.06775,0.63577 0,0.34915 0.06775,0.64098 0.06775,0.28662 0.192816,0.50028 0.130281,0.20845 0.312674,0.32831 0.182394,0.11465 0.416899,0.11465 z"
       id="text46-2"
       transform="matrix(0.70954035,-0.69823988,0.7613045,0.6601835,0,0)"
       aria-label="20&#10;" /><path
       style="font-weight:450;font-size:5.21124px;line-height:0;font-family:'Liber Grotesque Family';-inkscape-font-specification:'Liber Grotesque Family,  weight=450';letter-spacing:-0.150276px;word-spacing:0px;direction:rtl;fill-rule:evenodd;stroke-width:0"
       d="m 24.051645,173.30395 h -0.667038 v 0.76084 h -0.463801 v -0.76084 h -1.698864 l -0.08338,-0.13549 1.782244,-3.04858 h 0.463801 v 2.75675 h 0.667038 z m -2.251255,-0.42732 h 1.120416 v -1.87605 z m 2.491826,-0.78169 q 0,-0.40127 0.08859,-0.77126 0.0938,-0.37 0.276196,-0.65141 0.187605,-0.28662 0.469012,-0.45338 0.286618,-0.17197 0.672249,-0.17197 0.385632,0 0.667039,0.17197 0.286618,0.16676 0.474223,0.44817 0.187605,0.28141 0.276196,0.65141 0.0938,0.36999 0.0938,0.77647 0,0.40127 -0.0938,0.77126 -0.08859,0.37 -0.276196,0.65662 -0.187605,0.28141 -0.474223,0.45338 -0.281407,0.16676 -0.667039,0.16676 -0.385631,0 -0.672249,-0.16676 -0.281407,-0.17197 -0.469012,-0.45338 -0.182393,-0.28662 -0.276196,-0.65662 -0.08859,-0.36999 -0.08859,-0.77126 z m 1.51126,1.58422 q 0.229294,0 0.411688,-0.11465 0.182393,-0.11986 0.307463,-0.32831 0.130281,-0.21366 0.198027,-0.50549 0.06775,-0.29183 0.06775,-0.63577 0,-0.34915 -0.06775,-0.63577 -0.06775,-0.29183 -0.198027,-0.50028 -0.12507,-0.21366 -0.312675,-0.32831 -0.182393,-0.11986 -0.411688,-0.11986 -0.229294,0 -0.411688,0.11986 -0.182393,0.11465 -0.312674,0.32831 -0.12507,0.20845 -0.192816,0.50028 -0.06775,0.28662 -0.06775,0.63577 0,0.34915 0.06775,0.64098 0.06775,0.28662 0.192816,0.50028 0.130281,0.20845 0.312674,0.32831 0.182394,0.11465 0.4169,0.11465 z"
       id="text46-2-2"
       transform="matrix(0.87550876,-0.47378354,0.54807251,0.84560235,0,0)"
       aria-label="40&#10;" /><path
       style="font-weight:450;font-size:5.21124px;line-height:0;font-family:'Liber Grotesque Family';-inkscape-font-specification:'Liber Grotesque Family,  weight=450';letter-spacing:-0.150276px;word-spacing:0px;direction:rtl;fill-rule:evenodd;stroke-width:0"
       d="m 108.63685,138.86666 q 0,-0.22409 0.0782,-0.4169 0.0782,-0.19803 0.18761,-0.38042 l 1.12041,-1.88647 h 0.50549 l -0.85985,1.4852 q 0.31789,-0.0886 0.60971,-0.0313 0.21367,0.0365 0.40127,0.14071 0.18761,0.10422 0.3231,0.26577 0.1407,0.16155 0.21887,0.37 0.0834,0.20845 0.0834,0.45338 0,0.27619 -0.10423,0.52112 -0.10422,0.23972 -0.28661,0.42211 -0.1824,0.18239 -0.42733,0.28662 -0.23971,0.10422 -0.51591,0.10422 -0.27619,0 -0.52112,-0.10422 -0.23972,-0.10423 -0.42211,-0.28662 -0.1824,-0.18239 -0.28662,-0.42211 -0.10423,-0.24493 -0.10423,-0.52112 z m 2.20436,0 q 0,-0.17719 -0.0678,-0.33352 -0.0625,-0.16155 -0.18239,-0.2762 -0.11465,-0.11986 -0.27099,-0.1876 -0.15633,-0.0678 -0.33351,-0.0678 -0.17719,0 -0.33874,0.0678 -0.16154,0.0625 -0.2814,0.18239 -0.11986,0.11465 -0.19282,0.27098 -0.073,0.15634 -0.073,0.34395 0,0.18239 0.0678,0.33873 0.0677,0.15633 0.18239,0.27619 0.11986,0.11986 0.2762,0.18761 0.16155,0.0677 0.34394,0.0677 0.17718,0 0.33352,-0.0677 0.16155,-0.0677 0.28141,-0.18761 0.11986,-0.11986 0.1876,-0.27619 0.0678,-0.15634 0.0678,-0.33873 z m 0.75647,-0.69831 q 0,-0.40127 0.0886,-0.77126 0.0938,-0.37 0.2762,-0.65141 0.1876,-0.28662 0.46901,-0.45338 0.28662,-0.17197 0.67225,-0.17197 0.38563,0 0.66704,0.17197 0.28662,0.16676 0.47422,0.44817 0.18761,0.28141 0.2762,0.65141 0.0938,0.36999 0.0938,0.77647 0,0.40127 -0.0938,0.77126 -0.0886,0.37 -0.2762,0.65662 -0.1876,0.28141 -0.47422,0.45338 -0.28141,0.16676 -0.66704,0.16676 -0.38563,0 -0.67225,-0.16676 -0.28141,-0.17197 -0.46901,-0.45338 -0.18239,-0.28662 -0.2762,-0.65662 -0.0886,-0.36999 -0.0886,-0.77126 z m 1.51126,1.58422 q 0.2293,0 0.41169,-0.11465 0.18239,-0.11986 0.30746,-0.32831 0.13028,-0.21366 0.19803,-0.50549 0.0677,-0.29183 0.0677,-0.63577 0,-0.34915 -0.0677,-0.63577 -0.0678,-0.29183 -0.19803,-0.50028 -0.12507,-0.21366 -0.31267,-0.32831 -0.1824,-0.11986 -0.41169,-0.11986 -0.22929,0 -0.41169,0.11986 -0.18239,0.11465 -0.31267,0.32831 -0.12507,0.20845 -0.19282,0.50028 -0.0677,0.28662 -0.0677,0.63577 0,0.34915 0.0677,0.64098 0.0678,0.28662 0.19282,0.50028 0.13028,0.20845 0.31267,0.32831 0.1824,0.11465 0.4169,0.11465 z"
       id="text46-2-2-5"
       transform="matrix(0.98979629,-0.10625313,0.18633425,0.9903062,0,0)"
       aria-label="60&#10;" /><path
       style="font-weight:450;font-size:5.21124px;line-height:0;font-family:'Liber Grotesque Family';-inkscape-font-specification:'Liber Grotesque Family,  weight=450';letter-spacing:-0.150276px;word-spacing:0px;direction:rtl;fill-rule:evenodd;stroke-width:0"
       d="m 154.19337,115.79356 q 0,0.24493 -0.12506,0.4638 -0.12507,0.21887 -0.35958,0.34394 0.16155,0.0625 0.28662,0.17197 0.12507,0.10944 0.21366,0.24493 0.0886,0.13549 0.13549,0.29183 0.0469,0.15113 0.0469,0.30225 0,0.27099 -0.10422,0.50549 -0.10423,0.2293 -0.29183,0.39606 -0.1824,0.16676 -0.43775,0.26056 -0.25014,0.099 -0.55239,0.099 -0.30225,0 -0.5576,-0.099 -0.25014,-0.0938 -0.43774,-0.26056 -0.1824,-0.16676 -0.28662,-0.39606 -0.10423,-0.2345 -0.10423,-0.50549 0,-0.15112 0.0469,-0.30225 0.0469,-0.15634 0.1355,-0.29183 0.0886,-0.13549 0.21366,-0.24493 0.13028,-0.10943 0.28661,-0.17197 -0.2345,-0.12507 -0.35957,-0.34394 -0.12507,-0.21887 -0.12507,-0.4638 0,-0.2293 0.0886,-0.42732 0.0938,-0.19803 0.25535,-0.34394 0.16155,-0.15113 0.37521,-0.23451 0.21887,-0.0834 0.46901,-0.0834 0.25014,0 0.46901,0.0834 0.21888,0.0834 0.37521,0.23451 0.16155,0.14591 0.25014,0.34394 0.0938,0.19802 0.0938,0.42732 z m -1.18295,2.65252 q 0.17719,0 0.33873,-0.0521 0.16155,-0.0573 0.28662,-0.16155 0.12507,-0.10423 0.19803,-0.25535 0.073,-0.15113 0.073,-0.34915 0,-0.16676 -0.0625,-0.31268 -0.0625,-0.14591 -0.18239,-0.25535 -0.11465,-0.10944 -0.28141,-0.17197 -0.16155,-0.0677 -0.37,-0.0677 -0.21366,0 -0.38042,0.0677 -0.16676,0.0625 -0.28662,0.17197 -0.11464,0.10944 -0.17718,0.25535 -0.0625,0.14592 -0.0625,0.31268 0,0.19281 0.073,0.34394 0.073,0.15112 0.19803,0.26056 0.12507,0.10422 0.28662,0.16155 0.16676,0.0521 0.34915,0.0521 z m -0.005,-2.02196 q 0.14592,0 0.27099,-0.0521 0.13028,-0.0521 0.22408,-0.14071 0.099,-0.0886 0.15113,-0.20324 0.0573,-0.11985 0.0573,-0.25013 0,-0.1355 -0.0573,-0.25536 -0.0521,-0.11985 -0.15113,-0.20323 -0.0938,-0.0886 -0.22408,-0.1355 -0.12507,-0.0521 -0.27099,-0.0521 -0.15634,0 -0.28662,0.0521 -0.13028,0.0521 -0.22408,0.14071 -0.0886,0.0834 -0.1407,0.20324 -0.0469,0.11985 -0.0469,0.25014 0,0.12507 0.0521,0.24492 0.0521,0.11465 0.1407,0.20324 0.0938,0.0886 0.21887,0.14592 0.13028,0.0521 0.28662,0.0521 z m 1.7883,0.31267 q 0,-0.40126 0.0886,-0.77126 0.0938,-0.37 0.2762,-0.6514 0.1876,-0.28662 0.46901,-0.45338 0.28662,-0.17197 0.67225,-0.17197 0.38563,0 0.66704,0.17197 0.28662,0.16676 0.47422,0.44816 0.18761,0.28141 0.2762,0.65141 0.0938,0.37 0.0938,0.77647 0,0.40127 -0.0938,0.77127 -0.0886,0.37 -0.2762,0.65661 -0.1876,0.28141 -0.47422,0.45338 -0.28141,0.16676 -0.66704,0.16676 -0.38563,0 -0.67225,-0.16676 -0.28141,-0.17197 -0.46901,-0.45338 -0.18239,-0.28661 -0.2762,-0.65661 -0.0886,-0.37 -0.0886,-0.77127 z m 1.51126,1.58422 q 0.2293,0 0.41169,-0.11465 0.18239,-0.11986 0.30746,-0.3283 0.13028,-0.21367 0.19803,-0.5055 0.0678,-0.29182 0.0678,-0.63577 0,-0.34915 -0.0678,-0.63577 -0.0677,-0.29183 -0.19803,-0.50028 -0.12507,-0.21366 -0.31267,-0.3283 -0.18239,-0.11986 -0.41169,-0.11986 -0.22929,0 -0.41169,0.11986 -0.18239,0.11464 -0.31267,0.3283 -0.12507,0.20845 -0.19282,0.50028 -0.0677,0.28662 -0.0677,0.63577 0,0.34916 0.0677,0.64099 0.0677,0.28661 0.19282,0.50028 0.13028,0.20844 0.31267,0.3283 0.1824,0.11465 0.4169,0.11465 z"
       id="text46-2-2-5-0"
       transform="matrix(0.99513136,0.02645857,0.05284189,1.0062974,0,0)"
       aria-label="80&#10;" /><path
       style="font-weight:450;font-size:5.21124px;line-height:0;font-family:'Liber Grotesque Family';-inkscape-font-specification:'Liber Grotesque Family,  weight=450';letter-spacing:-0.150276px;word-spacing:0px;direction:rtl;fill-rule:evenodd;stroke-width:0"
       d="m 204.52849,65.647497 v -0.401266 h 0.52633 q 0.073,0 0.11986,-0.05732 0.0521,-0.05732 0.0521,-0.151126 v -0.453377 h 0.46902 v 3.517586 h 0.6983 v 0.427322 h -1.8604 V 68.10199 h 0.68788 v -2.454493 z m 2.08013,0.911966 q 0,-0.401265 0.0886,-0.771263 0.0938,-0.369998 0.2762,-0.651405 0.1876,-0.286618 0.46901,-0.453378 0.28662,-0.171971 0.67225,-0.171971 0.38563,0 0.66704,0.171971 0.28662,0.16676 0.47422,0.448167 0.1876,0.281407 0.2762,0.651405 0.0938,0.369998 0.0938,0.776474 0,0.401266 -0.0938,0.771264 -0.0886,0.369998 -0.2762,0.656616 -0.1876,0.281407 -0.47422,0.453378 -0.28141,0.16676 -0.66704,0.16676 -0.38563,0 -0.67225,-0.16676 -0.28141,-0.171971 -0.46901,-0.453378 -0.1824,-0.286618 -0.2762,-0.656616 -0.0886,-0.369998 -0.0886,-0.771264 z m 1.51126,1.584217 q 0.22929,0 0.41169,-0.114647 0.18239,-0.119858 0.30746,-0.328308 0.13028,-0.213661 0.19803,-0.50549 0.0677,-0.29183 0.0677,-0.635772 0,-0.349153 -0.0677,-0.635771 -0.0677,-0.291829 -0.19803,-0.500279 -0.12507,-0.213661 -0.31267,-0.328308 -0.1824,-0.119858 -0.41169,-0.119858 -0.2293,0 -0.41169,0.119858 -0.18239,0.114647 -0.31267,0.328308 -0.12507,0.20845 -0.19282,0.500279 -0.0677,0.286618 -0.0677,0.635771 0,0.349154 0.0677,0.640983 0.0678,0.286618 0.19282,0.500279 0.13028,0.20845 0.31267,0.328308 0.18239,0.114647 0.4169,0.114647 z m 1.929,-1.584217 q 0,-0.401265 0.0886,-0.771263 0.0938,-0.369998 0.27619,-0.651405 0.18761,-0.286618 0.46901,-0.453378 0.28662,-0.171971 0.67225,-0.171971 0.38563,0 0.66704,0.171971 0.28662,0.16676 0.47422,0.448167 0.18761,0.281407 0.2762,0.651405 0.0938,0.369998 0.0938,0.776474 0,0.401266 -0.0938,0.771264 -0.0886,0.369998 -0.2762,0.656616 -0.1876,0.281407 -0.47422,0.453378 -0.28141,0.16676 -0.66704,0.16676 -0.38563,0 -0.67225,-0.16676 -0.2814,-0.171971 -0.46901,-0.453378 -0.18239,-0.286618 -0.27619,-0.656616 -0.0886,-0.369998 -0.0886,-0.771264 z m 1.51126,1.584217 q 0.2293,0 0.41169,-0.114647 0.18239,-0.119858 0.30746,-0.328308 0.13029,-0.213661 0.19803,-0.50549 0.0678,-0.29183 0.0678,-0.635772 0,-0.349153 -0.0678,-0.635771 -0.0677,-0.291829 -0.19803,-0.500279 -0.12507,-0.213661 -0.31267,-0.328308 -0.18239,-0.119858 -0.41169,-0.119858 -0.22929,0 -0.41169,0.119858 -0.18239,0.114647 -0.31267,0.328308 -0.12507,0.20845 -0.19282,0.500279 -0.0677,0.286618 -0.0677,0.635771 0,0.349154 0.0677,0.640983 0.0677,0.286618 0.19282,0.500279 0.13028,0.20845 0.31267,0.328308 0.1824,0.114647 0.4169,0.114647 z"
       id="text46-2-2-5-0-9"
       transform="matrix(0.95329328,0.28673758,-0.2131486,0.98488294,0,0)"
       aria-label="100&#10;" /><path
       style="font-weight:600;font-size:2.82222px;line-height:0;font-family:Neokurat;-inkscape-font-specification:'Neokurat, Semi-Bold';text-align:center;letter-spacing:0.529167px;word-spacing:0.79375px;text-anchor:middle;opacity:0.912206;fill:#000000;fill-opacity:1;fill-rule:evenodd;stroke-width:0.128159;stroke-linecap:round;stroke-linejoin:round;stroke-opacity:0.898039;paint-order:fill markers stroke"
       d="m 126.08785,155.72311 c -0.52446,-0.22588 -0.91329,-0.3436 -1.39251,-0.45212 -0.66011,-0.15379 -1.28402,-0.4069 -1.28402,-0.94039 0,-0.0542 0.01,-0.10862 0.0192,-0.16276 0.0993,-0.50636 0.70529,-0.85902 1.40158,-0.86806 0.01,0 0.01,0 0.0192,0 0.57871,0 1.19358,0.19897 1.63666,0.65105 l 0.56059,-0.52446 c -0.3888,-0.43404 -1.23878,-0.87708 -2.17918,-0.87708 -0.0192,0 -0.0362,0.01 -0.0541,0.01 -1.45582,0.0192 -2.1159,0.9675 -2.17921,1.56427 -0.01,0.0541 -0.0192,0.11759 -0.0192,0.17173 0,0.73243 0.57874,1.37444 1.48296,1.61859 0.58774,0.16276 1.06699,0.25311 1.69996,0.51542 0.30758,0.13553 0.62391,0.37073 0.62391,0.78667 0,0.0814 -0.01,0.17173 -0.0362,0.2624 -0.18071,0.56967 -0.81381,0.81381 -1.40158,0.84092 -0.0362,0.01 -0.0814,0.01 -0.11759,0.01 -0.83188,0 -1.70896,-0.37073 -1.99834,-0.72336 l -0.61488,0.49732 c 0.47925,0.62391 1.71807,0.9856 2.6494,0.9856 0.91329,0 1.9622,-0.43404 2.23345,-1.40154 0.0542,-0.16276 0.0724,-0.32552 0.0724,-0.47021 0,-0.65105 -0.39784,-1.19358 -1.12123,-1.492 z m 7.92556,-3.0382 v 2.45949 h -3.57169 v -2.45949 h -0.7686 v 6.26632 h 0.7686 V 155.913 h 3.57169 v 3.03823 h 0.7686 v -6.26632 z m 6.24374,-0.12656 -3.2643,6.39288 h 0.85905 l 1.06698,-2.08879 h 2.66747 l 1.06698,2.08879 h 0.86808 z m -0.9585,3.57166 0.9585,-1.88076 0.95846,1.88076 z m 10.84623,-2.97489 c -0.36166,-0.28931 -0.83188,-0.47018 -1.33823,-0.47018 h -3.0744 v 6.26632 h 0.7686 v -1.98027 h 2.3058 c 1.18454,0 2.14301,-0.95847 2.14301,-2.14301 0,-0.67818 -0.31656,-1.27499 -0.80478,-1.67286 z m 0.0362,1.67286 c 0,0.75953 -0.61488,1.37441 -1.37441,1.37441 h -2.3058 v -2.73984 h 2.3058 c 0.75953,0 1.37441,0.6149 1.37441,1.36543 z m 3.94697,3.35468 v -2.1159 h 3.30044 v -0.7686 h -3.30044 v -1.83561 h 3.90627 v -0.77761 h -4.67484 v 6.26632 h 4.80143 v -0.7686 z m 5.92724,-5.49772 v 0.77761 h 2.22442 v 5.48868 h 0.7686 v -5.48868 h 2.22439 v -0.77761 z m 9.18245,-0.12655 -3.26427,6.39287 h 0.85902 l 1.06701,-2.08876 h 2.66747 l 1.06698,2.08876 h 0.86809 z m -0.95847,3.57168 0.95847,-1.88079 0.9585,1.88079 z m 8.7394,-0.29829 3.13768,-3.14674 h -1.09412 l -2.59515,2.59515 -0.98561,-0.98561 v -1.60954 h -0.77763 v 6.26635 h 0.77763 v -3.57172 l 3.57172,3.57172 h 1.09409 z m 6.15329,2.35101 v -2.11593 h 3.30044 v -0.7686 h -3.30044 v -1.83559 h 3.90628 v -0.77779 h -4.67488 v 6.26632 h 4.80147 v -0.7686 z m 11.87708,0.7686 -1.44679,-1.43775 c 0.74147,-0.46114 1.22975,-1.27495 1.22975,-2.21535 0,-1.43772 -1.16644,-2.61322 -2.61322,-2.61322 h -2.60419 v 6.27536 h 0.7686 v -3.635 l 3.62597,3.635 z m -0.98564,-3.6531 c 0,0.64201 -0.35263,1.31113 -1.02178,1.65476 l -2.65843,-2.65847 v -0.83187 h 1.83559 c 1.01274,0 1.84462,0.82284 1.84462,1.83558 z"
       id="text6"
       aria-label="SHPETE" /></g></svg>
