<?xml version="1.0" encoding="UTF-8" standalone="no"?>
<svg xmlns="http://www.w3.org/2000/svg" width="12" height="12" viewBox="0 0 12 12" version="1.1">
  <defs>
    <!-- Warm brass body -->
    <radialGradient id="brassBody" cx="0.35" cy="0.35" r="0.75">
      <stop offset="0%" stop-color="#f8e8c8" stop-opacity="0.9"/>
      <stop offset="55%" stop-color="#cea161" stop-opacity="0.95"/>
      <stop offset="100%" stop-color="#5d4320" stop-opacity="1"/>
    </radialGradient>
    <!-- Subtle inner shadow on the rim -->
    <radialGradient id="innerRimShadow" cx="0.5" cy="0.5" r="0.55">
      <stop offset="60%" stop-color="#000" stop-opacity="0.18"/>
      <stop offset="100%" stop-color="#000" stop-opacity="0"/>
    </radialGradient>
    <!-- Highlight sweep across the rim -->
    <linearGradient id="rimSheen" x1="0" y1="0" x2="1" y2="1">
      <stop offset="0%" stop-color="#fff9ec" stop-opacity="0.6"/>
      <stop offset="40%" stop-color="#f8e6c3" stop-opacity="0.4"/>
      <stop offset="100%" stop-color="#f8e6c3" stop-opacity="0"/>
    </linearGradient>
  </defs>

  <!-- Brass ring with transparent center (even-odd fill) -->
  <path
    d="M6,6 m-5.5,0 a5.5,5.5 0 1 0 11,0 a5.5,5.5 0 1 0 -11,0
       M6,6 m-3.2,0 a3.2,3.2 0 1 1 6.4,0 a3.2,3.2 0 1 1 -6.4,0"
    fill="url(#brassBody)"
    fill-rule="evenodd"/>

  <!-- Inner rim shadow to add depth but keep center transparent -->
  <circle cx="6" cy="6" r="3.4" fill="url(#innerRimShadow)" fill-opacity="0.45"/>

  <!-- Highlight arc on upper-left of the rim -->
  <path
    d="M6 6 m -3.6 0
       a3.6 3.6 0 0 1 3.6 -3.6
       a3.6 3.6 0 0 1 2.6 0.95"
    fill="none"
    stroke="url(#rimSheen)"
    stroke-width="0.55"
    stroke-linecap="round"
    stroke-opacity="0.85"/>
</svg>
