<?xml version="1.0" encoding="UTF-8"?>
<svg xmlns="http://www.w3.org/2000/svg" width="88.34" height="65.32" viewBox="0 0 88.34 65.32">
  <defs>
    <linearGradient id="glassGradient" x1="0" y1="0" x2="0" y2="1">
      <stop offset="0%" stop-color="#0a0d12"/>
      <stop offset="100%" stop-color="#050608"/>
    </linearGradient>
    <radialGradient id="glowGradient" cx="0.5" cy="0.5" r="0.7">
      <stop offset="0%" stop-color="#4bd4ff" stop-opacity="0.08"/>
      <stop offset="100%" stop-color="#4bd4ff" stop-opacity="0"/>
    </radialGradient>
    <!-- Bezel gradient for dimensional edge -->
    <linearGradient id="bezelTop" x1="0" y1="0" x2="0" y2="1">
      <stop offset="0%" stop-color="#3a3a3a"/>
      <stop offset="50%" stop-color="#2a2a2a"/>
      <stop offset="100%" stop-color="#1a1a1a"/>
    </linearGradient>
    <linearGradient id="bezelBottom" x1="0" y1="0" x2="0" y2="1">
      <stop offset="0%" stop-color="#0a0a0a"/>
      <stop offset="50%" stop-color="#1a1a1a"/>
      <stop offset="100%" stop-color="#2a2a2a"/>
    </linearGradient>
    <linearGradient id="bezelLeft" x1="0" y1="0" x2="1" y2="0">
      <stop offset="0%" stop-color="#2a2a2a"/>
      <stop offset="50%" stop-color="#1a1a1a"/>
      <stop offset="100%" stop-color="#0a0a0a"/>
    </linearGradient>
    <linearGradient id="bezelRight" x1="0" y1="0" x2="1" y2="0">
      <stop offset="0%" stop-color="#0a0a0a"/>
      <stop offset="50%" stop-color="#1a1a1a"/>
      <stop offset="100%" stop-color="#2a2a2a"/>
    </linearGradient>
  </defs>

  <!-- Clipping path for rounded corners -->
  <defs>
    <clipPath id="roundedCorners">
      <rect x="0" y="0" width="88.34" height="65.32" rx="5.26"/>
    </clipPath>
  </defs>

  <g clip-path="url(#roundedCorners)">
    <!-- Background -->
    <rect x="0" y="0" width="88.34" height="65.32" fill="url(#glassGradient)"/>

    <!-- Grid lines - vertical (every 2px) -->
    <g stroke="#2a3844" stroke-width="0.3" opacity="0.25">
      <line x1="2" y1="2.5" x2="2" y2="62.82"/>
      <line x1="4" y1="2.5" x2="4" y2="62.82"/>
      <line x1="6" y1="2.5" x2="6" y2="62.82"/>
      <line x1="8" y1="2.5" x2="8" y2="62.82"/>
      <line x1="10" y1="2.5" x2="10" y2="62.82"/>
      <line x1="12" y1="2.5" x2="12" y2="62.82"/>
      <line x1="14" y1="2.5" x2="14" y2="62.82"/>
      <line x1="16" y1="2.5" x2="16" y2="62.82"/>
      <line x1="18" y1="2.5" x2="18" y2="62.82"/>
      <line x1="20" y1="2.5" x2="20" y2="62.82"/>
      <line x1="22" y1="2.5" x2="22" y2="62.82"/>
      <line x1="24" y1="2.5" x2="24" y2="62.82"/>
      <line x1="26" y1="2.5" x2="26" y2="62.82"/>
      <line x1="28" y1="2.5" x2="28" y2="62.82"/>
      <line x1="30" y1="2.5" x2="30" y2="62.82"/>
      <line x1="32" y1="2.5" x2="32" y2="62.82"/>
      <line x1="34" y1="2.5" x2="34" y2="62.82"/>
      <line x1="36" y1="2.5" x2="36" y2="62.82"/>
      <line x1="38" y1="2.5" x2="38" y2="62.82"/>
      <line x1="40" y1="2.5" x2="40" y2="62.82"/>
      <line x1="42" y1="2.5" x2="42" y2="62.82"/>
      <line x1="44" y1="2.5" x2="44" y2="62.82"/>
      <line x1="46" y1="2.5" x2="46" y2="62.82"/>
      <line x1="48" y1="2.5" x2="48" y2="62.82"/>
      <line x1="50" y1="2.5" x2="50" y2="62.82"/>
      <line x1="52" y1="2.5" x2="52" y2="62.82"/>
      <line x1="54" y1="2.5" x2="54" y2="62.82"/>
      <line x1="56" y1="2.5" x2="56" y2="62.82"/>
      <line x1="58" y1="2.5" x2="58" y2="62.82"/>
      <line x1="60" y1="2.5" x2="60" y2="62.82"/>
      <line x1="62" y1="2.5" x2="62" y2="62.82"/>
      <line x1="64" y1="2.5" x2="64" y2="62.82"/>
      <line x1="66" y1="2.5" x2="66" y2="62.82"/>
      <line x1="68" y1="2.5" x2="68" y2="62.82"/>
      <line x1="70" y1="2.5" x2="70" y2="62.82"/>
      <line x1="72" y1="2.5" x2="72" y2="62.82"/>
      <line x1="74" y1="2.5" x2="74" y2="62.82"/>
      <line x1="76" y1="2.5" x2="76" y2="62.82"/>
      <line x1="78" y1="2.5" x2="78" y2="62.82"/>
      <line x1="80" y1="2.5" x2="80" y2="62.82"/>
      <line x1="82" y1="2.5" x2="82" y2="62.82"/>
      <line x1="84" y1="2.5" x2="84" y2="62.82"/>
      <line x1="86" y1="2.5" x2="86" y2="62.82"/>
    </g>

    <!-- Grid lines - horizontal (every 2px) -->
    <g stroke="#2a3844" stroke-width="0.3" opacity="0.25">
      <line x1="2.5" y1="2" x2="85.84" y2="2"/>
      <line x1="2.5" y1="4" x2="85.84" y2="4"/>
      <line x1="2.5" y1="6" x2="85.84" y2="6"/>
      <line x1="2.5" y1="8" x2="85.84" y2="8"/>
      <line x1="2.5" y1="10" x2="85.84" y2="10"/>
      <line x1="2.5" y1="12" x2="85.84" y2="12"/>
      <line x1="2.5" y1="14" x2="85.84" y2="14"/>
      <line x1="2.5" y1="16" x2="85.84" y2="16"/>
      <line x1="2.5" y1="18" x2="85.84" y2="18"/>
      <line x1="2.5" y1="20" x2="85.84" y2="20"/>
      <line x1="2.5" y1="22" x2="85.84" y2="22"/>
      <line x1="2.5" y1="24" x2="85.84" y2="24"/>
      <line x1="2.5" y1="26" x2="85.84" y2="26"/>
      <line x1="2.5" y1="28" x2="85.84" y2="28"/>
      <line x1="2.5" y1="30" x2="85.84" y2="30"/>
      <line x1="2.5" y1="32" x2="85.84" y2="32"/>
      <line x1="2.5" y1="34" x2="85.84" y2="34"/>
      <line x1="2.5" y1="36" x2="85.84" y2="36"/>
      <line x1="2.5" y1="38" x2="85.84" y2="38"/>
      <line x1="2.5" y1="40" x2="85.84" y2="40"/>
      <line x1="2.5" y1="42" x2="85.84" y2="42"/>
      <line x1="2.5" y1="44" x2="85.84" y2="44"/>
      <line x1="2.5" y1="46" x2="85.84" y2="46"/>
      <line x1="2.5" y1="48" x2="85.84" y2="48"/>
      <line x1="2.5" y1="50" x2="85.84" y2="50"/>
      <line x1="2.5" y1="52" x2="85.84" y2="52"/>
      <line x1="2.5" y1="54" x2="85.84" y2="54"/>
      <line x1="2.5" y1="56" x2="85.84" y2="56"/>
      <line x1="2.5" y1="58" x2="85.84" y2="58"/>
      <line x1="2.5" y1="60" x2="85.84" y2="60"/>
      <line x1="2.5" y1="62" x2="85.84" y2="62"/>
      <line x1="2.5" y1="64" x2="85.84" y2="64"/>
    </g>

    <!-- Subtle glow overlay -->
    <rect x="0" y="0" width="88.34" height="65.32" fill="url(#glowGradient)" opacity="0.5"/>
  </g>

  <!-- Dimensional bezel (3D effect) -->
  <!-- Top highlight edge -->
  <rect x="2" y="0" width="84.34" height="2.5" rx="5.26" fill="url(#bezelTop)" opacity="0.6"/>
  <!-- Left highlight edge -->
  <rect x="0" y="2" width="2.5" height="61.32" fill="url(#bezelLeft)" opacity="0.6"/>
  <!-- Bottom shadow edge -->
  <rect x="2" y="62.82" width="84.34" height="2.5" rx="5.26" fill="url(#bezelBottom)" opacity="0.7"/>
  <!-- Right shadow edge -->
  <rect x="85.84" y="2" width="2.5" height="61.32" fill="url(#bezelRight)" opacity="0.7"/>

  <!-- Inner shadow for recessed look -->
  <rect x="2.5" y="2.5" width="83.34" height="60.32" rx="4" fill="none" stroke="#000000" stroke-width="1" opacity="0.5"/>

  <!-- Inner highlight for glass effect -->
  <rect x="3.5" y="3.5" width="81.34" height="58.32" rx="3.5" fill="none" stroke="#ffffff" stroke-width="0.3" opacity="0.15"/>

  <!-- Outer border with rounded corners -->
  <rect x="0" y="0" width="88.34" height="65.32" rx="5.26" fill="none" stroke="#1a1a1a" stroke-width="0.5"/>
</svg>
