<?xml version="1.0" encoding="UTF-8" standalone="no"?>
<!-- Generator: Adobe Illustrator 25.4.1, SVG Export Plug-In . SVG Version: 6.00 Build 0)  -->

<svg
   version="1.0"
   id="svg10799"
   inkscape:version="1.4.3 (0d15f75, 2025-12-25)"
   x="0px"
   y="0px"
   width="27.99345px"
   height="31.5642px"
   viewBox="0 0 27.99345 31.5642"
   enable-background="new 0 0 27.99345 31.5642"
   xml:space="preserve"
   sodipodi:docname="dark_toggle_pos4.svg"
   xmlns:inkscape="http://www.inkscape.org/namespaces/inkscape"
   xmlns:sodipodi="http://sodipodi.sourceforge.net/DTD/sodipodi-0.dtd"
   xmlns="http://www.w3.org/2000/svg"
   xmlns:svg="http://www.w3.org/2000/svg"><defs
   id="defs27" />
<sodipodi:namedview
   bordercolor="#625943"
   borderopacity="1.0"
   fit-margin-bottom="0"
   fit-margin-left="0"
   fit-margin-right="0"
   fit-margin-top="0"
   id="base"
   inkscape:current-layer="svg10799"
   inkscape:cx="7.2920158"
   inkscape:cy="11.366097"
   inkscape:document-units="mm"
   inkscape:pageopacity="0.0"
   inkscape:pageshadow="2"
   inkscape:window-height="1101"
   inkscape:window-maximized="0"
   inkscape:window-width="1800"
   inkscape:window-x="0"
   inkscape:window-y="40"
   inkscape:zoom="16.936332"
   pagecolor="#ffffff"
   showgrid="false"
   units="px"
   inkscape:showpageshadow="0"
   inkscape:pagecheckerboard="0"
   inkscape:deskcolor="#505050">
	</sodipodi:namedview>
<g
   id="g14">
	<g
   id="g2">
		
			<linearGradient
   id="SVGID_1_"
   gradientUnits="userSpaceOnUse"
   x1="-601.75171"
   y1="1790.22363"
   x2="-576.25226"
   y2="1790.22363"
   gradientTransform="matrix(0 1 1 0 -1776.22693 604.78479)">
			<stop
   offset="0"
   style="stop-color:#2a2a2a"
   id="stop1" />
			<stop
   offset="1"
   style="stop-color:#151515"
   id="stop2" />
		</linearGradient>
		<path
   fill="url(#SVGID_1_)"
   d="M13.99699,28.53252c-7.03042,0-12.75027-5.7193-12.75027-12.74918    c0-7.03097,5.71985-12.75027,12.75027-12.75027s12.74973,5.7193,12.74973,12.75028    C26.74673,22.81322,21.02743,28.53252,13.99699,28.53252z"
   id="path2" />
	</g>
	
		<linearGradient
   id="SVGID_00000096777038531252213230000009804720766335326622_"
   gradientUnits="userSpaceOnUse"
   x1="1062.53003"
   y1="-4087.45093"
   x2="1086.75305"
   y2="-4087.45093"
   gradientTransform="matrix(0 1 -1 0 -4073.4541 -1058.84595)">
		<stop
   offset="0.00559"
   style="stop-color:#3a3a3a"
   id="stop3" />
		<stop
   offset="1"
   style="stop-color:#1a1a1a"
   id="stop4" />
	</linearGradient>
	<circle
   fill="url(#SVGID_00000096777038531252213230000009804720766335326622_)"
   cx="13.99672"
   cy="15.79557"
   r="12.11152"
   id="circle4" />
	<circle
   fill="#252525"
   cx="13.99672"
   cy="15.79557"
   r="11.39265"
   id="circle5" />
	
		<linearGradient
   id="SVGID_00000152252859137990743480000007651465109097556108_"
   gradientUnits="userSpaceOnUse"
   x1="61.00904"
   y1="-49.85027"
   x2="61.00904"
   y2="-46.82552"
   gradientTransform="matrix(1 0 0 -1 -47.00625 -32.5551)">
		<stop
   offset="0"
   style="stop-color:#333333"
   id="stop5" />
		<stop
   offset="1"
   style="stop-color:#1a1a1a"
   id="stop6" />
	</linearGradient>
	<path
   fill="url(#SVGID_00000152252859137990743480000007651465109097556108_)"
   d="M2.72933,14.27042L2.2606,14.72517   c-0.47991,0.63159-0.47648,1.50659,0.00837,2.13439l0.43448,0.40306l22.58141,0.03255l0.43901-0.41921   c0.50169-0.62492,0.50533-1.51351,0.00878-2.14253l-0.4478-0.43746L2.72933,14.27042z"
   id="path6" />
	
		<linearGradient
   id="SVGID_00000125568419862787530720000009955595133921108374_"
   gradientUnits="userSpaceOnUse"
   x1="-1239.05579"
   y1="-377.65833"
   x2="-1219.99048"
   y2="-377.65833"
   gradientTransform="matrix(0 -1 -1 0 -363.66144 -1213.74036)">
		<stop
   offset="0"
   style="stop-color:#2a2a2a"
   id="stop7" />
		<stop
   offset="1"
   style="stop-color:#151515"
   id="stop8" />
	</linearGradient>
	<circle
   fill="url(#SVGID_00000125568419862787530720000009955595133921108374_)"
   cx="13.99689"
   cy="15.78276"
   r="9.53265"
   id="circle8" />
	<circle
   fill="#0a0a0a"
   cx="13.99689"
   cy="15.78276"
   r="8.90881"
   id="circle9" />
	<path
   opacity="0.28"
   d="M13.99764,26.80466c-4.54871,0-8.23616-4.01955-8.23616-8.97792s3.68746-9.87056,8.23616-9.87056   s8.23616,4.91218,8.23616,9.87056S18.54635,26.80466,13.99764,26.80466z"
   id="path9" />
	
		<linearGradient
   id="SVGID_00000160170103584361779110000012459129992462676407_"
   gradientUnits="userSpaceOnUse"
   x1="-1883.01038"
   y1="27.0931"
   x2="-1883.01038"
   y2="10.44352"
   gradientTransform="matrix(-1 0 0 -1 -1869.01343 34.55115)">
		<stop
   offset="0"
   style="stop-color:#2a2a2a"
   id="stop9" />
		<stop
   offset="1"
   style="stop-color:#111111"
   id="stop10" />
	</linearGradient>
	<circle
   fill="url(#SVGID_00000160170103584361779110000012459129992462676407_)"
   cx="13.99689"
   cy="15.78284"
   r="8.32479"
   id="circle10" />
	<circle
   fill="#1c1c1c"
   cx="13.99689"
   cy="15.78284"
   r="7.41801"
   id="circle11" />
	<g
   opacity="0.43"
   id="g12">
		<path
   opacity="0.28"
   fill="#1a1a1a"
   d="M5.68113,15.90713c-0.0006,0.04062-0.00626,0.0799-0.00626,0.12065    c0,4.46236,3.72589,8.07986,8.32202,8.07986C9.44272,24.10764,5.74832,20.44687,5.68113,15.90713z"
   id="path11" />
		<path
   opacity="0.28"
   fill="#1a1a1a"
   d="M13.9969,24.10764c4.59613,0,8.32196-3.6175,8.32196-8.07986    c0-0.04075-0.00566-0.08003-0.00626-0.12065C22.24541,20.44687,18.55108,24.10764,13.9969,24.10764z"
   id="path12" />
	</g>
	
		<linearGradient
   id="SVGID_00000026141003703015952050000003453255544830421139_"
   gradientUnits="userSpaceOnUse"
   x1="-1883.01038"
   y1="12.75301"
   x2="-1883.01038"
   y2="24.78362"
   gradientTransform="matrix(-1 0 0 -1 -1869.01343 34.55115)">
		<stop
   offset="0"
   style="stop-color:#2a2a2a"
   id="stop12" />
		<stop
   offset="1"
   style="stop-color:#1a1a1a"
   id="stop13" />
	</linearGradient>
	<circle
   fill="url(#SVGID_00000026141003703015952050000003453255544830421139_)"
   cx="13.99689"
   cy="15.78284"
   r="6.01531"
   id="circle13" />
	<circle
   fill="#1a1a1a"
   cx="13.99689"
   cy="15.78276"
   r="5.30972"
   id="circle14" />
</g>
<path
   opacity="0.28"
   d="m 14.0028,31.5642 c -3.28014,0 -5.93923,-3.19316 -5.93923,-7.13211 0,-3.93895 2.65908,-7.84122 5.93923,-7.84122 3.28015,0 5.93923,3.90227 5.93923,7.84122 0,3.93895 -2.65908,7.13211 -5.93923,7.13211 z"
   id="path14"
   style="display:none" />
<linearGradient
   id="SVGID_00000065773025901285426760000012969200050422914733_"
   gradientUnits="userSpaceOnUse"
   x1="13.99672"
   y1="-72.39881"
   x2="13.99672"
   y2="-79.82219"
   gradientTransform="matrix(1.0183877,0,0,-1.0730958,-0.2577076,-96.191015)">
	<stop
   offset="0"
   style="stop-color:#050505;stop-opacity:1;"
   id="stop14" />
	<stop
   offset="1"
   style="stop-color:#111111"
   id="stop15" />
</linearGradient>

<linearGradient
   id="SVGID_00000012444713953208277950000016664908420957321654_"
   gradientUnits="userSpaceOnUse"
   x1="107.93118"
   y1="230.67648"
   x2="107.93118"
   y2="233.87488"
   gradientTransform="matrix(-1,0,0,0.50871,121.93364,-135.0216)">
	<stop
   offset="0"
   style="stop-color:#3a3a3a"
   id="stop16" />
	<stop
   offset="1"
   style="stop-color:#2a2a2a;stop-opacity:0"
   id="stop17" />
</linearGradient>
<ellipse
   opacity="0.2"
   fill="url(#SVGID_00000012444713953208277950000016664908420957321654_)"
   cx="14.00246"
   cy="-16.859869"
   rx="1.34428"
   ry="0.81353003"
   id="ellipse17"
   style="display:inline;fill:url(#SVGID_00000012444713953208277950000016664908420957321654_)"
   transform="scale(1,-1)" />
<linearGradient
   id="SVGID_00000150823890337663003440000017085013996016341916_"
   gradientUnits="userSpaceOnUse"
   x1="13.99672"
   y1="-73.4698"
   x2="13.99672"
   y2="-90.36673"
   gradientTransform="translate(-3.398639e-4,90.448483)">
	<stop
   offset="0"
   style="stop-color:#7d745a"
   id="stop18" />
	<stop
   offset="1"
   style="stop-color:#494233"
   id="stop19" />
</linearGradient>
<ellipse
   fill="url(#SVGID_00000065773025901285426760000012969200050422914733_)"
   cx="13.996383"
   cy="-14.517159"
   id="circle15"
   style="display:inline;fill:#000000;fill-opacity:1;stroke-width:1.04538"
   transform="scale(1,-1)"
   rx="3.7799394"
   ry="3.9829991" /><path
   fill="url(#SVGID_00000150823890337663003440000017085013996016341916_)"
   d="m 19.7938,8.7476797 c 0.30488,-0.73767 0.4752,-1.54511 0.4752,-2.39285 0,-3.46396 -2.80819,-6.27308009 -6.27214,-6.27308009 -3.46542,0 -6.2730798,2.80912009 -6.2730798,6.27308009 0,0.6346 0.09608,1.24649 0.27139,1.8239 h -0.0019 l 1.28498,5.0382993 h 0.0089 c 0.49105,2.15182 2.4079598,3.76165 4.7096498,3.76165 2.30083,0 4.21774,-1.60983 4.70885,-3.76165 h 0.0091 z"
   id="path19"
   style="display:inline;fill:url(#SVGID_00000150823890337663003440000017085013996016341916_)" />
<linearGradient
   id="SVGID_00000057133146055382674790000003113578813706256522_"
   gradientUnits="userSpaceOnUse"
   x1="13.99672"
   y1="20.13625"
   x2="13.99672"
   y2="18.24235">
	<stop
   offset="0"
   style="stop-color:#000000"
   id="stop20" />
	<stop
   offset="1"
   style="stop-color:#000000;stop-opacity:0"
   id="stop21" />
</linearGradient>
<polygon
   fill="url(#SVGID_00000057133146055382674790000003113578813706256522_)"
   points="17.24006,18.24235 16.1491,20.13625 11.84435,20.13625 10.75339,18.24235 "
   id="polygon21"
   style="display:inline;fill:url(#SVGID_00000057133146055382674790000003113578813706256522_)"
   transform="matrix(1,0,0,-1,-3.398639e-4,30.000289)" />
<path
   fill="#a59b80"
   d="m 19.61173,8.1976597 h -2.99556 c -0.74298,-0.52054 -1.64333,-0.83124 -2.61928,-0.83124 -0.97632,0 -1.87692,0.3107 -2.61997,0.83124 H 8.3167302 l 1.21577,4.7669593 h 0.0084 c 0.4645998,2.03593 2.2782798,3.55906 4.4560098,3.55906 2.17692,0 3.99059,-1.52314 4.45526,-3.55906 h 0.0086 z"
   id="path21"
   style="display:inline" />
<g
   id="g5959-5_00000078752244077516203560000005940171760620210358_"
   transform="matrix(1,0,0,-1,301.93479,-1159.9507)"
   style="display:inline">
	
		<linearGradient
   id="path5961-3_00000168093514703044495810000000730023832126520232_"
   gradientUnits="userSpaceOnUse"
   x1="835.43243"
   y1="-5190.3979"
   x2="847.302"
   y2="-5190.3979"
   gradientTransform="matrix(0,1,1,0,4902.4595,-2007.7896)">
		<stop
   offset="0"
   style="stop-color:#a3997f"
   id="stop22" />
		<stop
   offset="1"
   style="stop-color:#7d745a"
   id="stop23" />
	</linearGradient>

		<path
   id="path5961-3_00000008146676893465136370000017095637066882825642_"
   inkscape:connector-curvature="0"
   fill="url(#path5961-3_00000168093514703044495810000000730023832126520232_)"
   d="m -287.93866,-1172.3571 c -3.27747,0 -5.93436,2.6579 -5.93436,5.9352 0,3.277 2.65692,5.9343 5.93436,5.9343 3.27875,0 5.93524,-2.6573 5.93524,-5.9343 -3e-5,-3.2773 -2.65649,-5.9352 -5.93524,-5.9352"
   style="fill:url(#path5961-3_00000168093514703044495810000000730023832126520232_)" />
</g>
<linearGradient
   id="SVGID_00000175312440177604282810000005772420987047474309_"
   gradientUnits="userSpaceOnUse"
   x1="107.93177"
   y1="241.89079"
   x2="107.93177"
   y2="248.21619"
   gradientTransform="matrix(-1 0 0 0.50871 121.93398 -105.02132)">
	<stop
   offset="0"
   style="stop-color:#3a3a3a"
   id="stop24" />
	<stop
   offset="1"
   style="stop-color:#2a2a2a;stop-opacity:0"
   id="stop25" />
</linearGradient>
<ellipse
   opacity="0.2"
   fill="url(#SVGID_00000175312440177604282810000005772420987047474309_)"
   cx="14.0022"
   cy="19.64066"
   rx="3.07161"
   ry="1.60891"
   id="ellipse25" />
<linearGradient
   id="SVGID_00000074411448893173401000000013713554947691289987_"
   gradientUnits="userSpaceOnUse"
   x1="107.93177"
   y1="232.93652"
   x2="107.93177"
   y2="237.85429"
   gradientTransform="matrix(-1 0 0 0.50871 121.93398 -105.02132)">
	<stop
   offset="0"
   style="stop-color:#3a3a3a"
   id="stop26" />
	<stop
   offset="1"
   style="stop-color:#2a2a2a;stop-opacity:0"
   id="stop27" />
</linearGradient>

</svg>
