<?xml version="1.0" encoding="UTF-8" standalone="no"?>
<svg
   width="50.8mm"
   height="128.5mm"
   viewBox="0 0 50.8 128.5"
   version="1.1"
   id="svg1"
   sodipodi:docname="Specula.svg"
   inkscape:version="1.4.3 (0d15f75, 2025-12-25)"
   xmlns:inkscape="http://www.inkscape.org/namespaces/inkscape"
   xmlns:sodipodi="http://sodipodi.sourceforge.net/DTD/sodipodi-0.dtd"
   xmlns="http://www.w3.org/2000/svg"
   xmlns:svg="http://www.w3.org/2000/svg">
  <sodipodi:namedview
     id="namedview1"
     pagecolor="#505050"
     bordercolor="#eeeeee"
     borderopacity="1"
     inkscape:showpageshadow="0"
     inkscape:pageopacity="0"
     inkscape:pagecheckerboard="0"
     inkscape:deskcolor="#505050"
     inkscape:document-units="mm"
     inkscape:zoom="1.8333987"
     inkscape:cx="117.26854"
     inkscape:cy="226.62828"
     inkscape:window-width="1800"
     inkscape:window-height="1101"
     inkscape:window-x="0"
     inkscape:window-y="40"
     inkscape:window-maximized="1"
     inkscape:current-layer="svg1" />
  <defs
     id="defs1" />
  <rect
     style="display:none;fill:#ffff00;fill-opacity:1;fill-rule:evenodd;stroke:#ffff00;stroke-width:0.235405;stroke-linecap:round;stroke-dasharray:none;stroke-opacity:1"
     id="left_vu_meter"
     width="38.064594"
     height="39.764595"
     x="6.367703"
     y="13.423013" />
  <rect
     style="display:none;fill:#ffff00;fill-opacity:1;fill-rule:evenodd;stroke:#ffff00;stroke-width:0.235406;stroke-linecap:round;stroke-dasharray:none;stroke-opacity:1"
     id="right_vu_meter"
     width="38.064594"
     height="39.764595"
     x="6.367703"
     y="59.505539" />
  <ellipse
     style="display:none;fill:#00ff00;fill-opacity:1;fill-rule:evenodd;stroke:#00ff00;stroke-width:0.329666;stroke-opacity:1"
     id="left_input"
     cx="9.3099117"
     cy="114.5"
     rx="2.3399999"
     ry="2.3396325"
     inkscape:label="left_input" />
  <ellipse
     style="display:none;fill:#00ff00;fill-opacity:1;fill-rule:evenodd;stroke:#00ff00;stroke-width:0.329666;stroke-opacity:1"
     id="right_input"
     cx="20.391472"
     cy="114.5"
     rx="2.3399999"
     ry="2.3396325"
     inkscape:label="right_input" />
  <path
     id="path27-8-4-9-7-4-0"
     style="display:inline;opacity:0.800745;fill:#c9c2ba;fill-opacity:0.937255;fill-rule:evenodd;stroke-width:0.150714;stroke-linecap:round;stroke-linejoin:round;stroke-opacity:0.937255;paint-order:fill markers stroke"
     d="m 36.066145,114.73896 a 4.5931138,4.5931138 0 0 1 -4.593114,4.5931 4.5931138,4.5931138 0 0 1 -4.593113,-4.5931 4.5931138,4.5931138 0 0 1 4.593113,-4.59312 4.5931138,4.5931138 0 0 1 4.593114,4.59312 z" />
  <ellipse
     style="display:none;fill:#0000ff;fill-opacity:1;fill-rule:evenodd;stroke:#0000ff;stroke-width:0.329666;stroke-opacity:1"
     id="left_output"
     cx="31.473032"
     cy="114.5"
     rx="2.3399999"
     ry="2.3396325"
     inkscape:label="left_output" />
  <path
     id="path27-8-4-9-7-4"
     style="display:inline;opacity:0.800745;fill:#c9c2ba;fill-opacity:0.937255;fill-rule:evenodd;stroke-width:0.150714;stroke-linecap:round;stroke-linejoin:round;stroke-opacity:0.937255;paint-order:fill markers stroke"
     d="m 47.147706,114.73896 a 4.5931138,4.5931138 0 0 1 -4.593114,4.5931 4.5931138,4.5931138 0 0 1 -4.593113,-4.5931 4.5931138,4.5931138 0 0 1 4.593113,-4.59312 4.5931138,4.5931138 0 0 1 4.593114,4.59312 z" />
  <ellipse
     style="display:none;fill:#0000ff;fill-opacity:1;fill-rule:evenodd;stroke:#0000ff;stroke-width:0.329666;stroke-opacity:1"
     id="right_output"
     cx="42.554592"
     cy="114.5"
     rx="2.3399999"
     ry="2.3396325"
     inkscape:label="right_output" />
  <path
     d="M 12.840685,3.717518 C 12.425743,3.629854 12.121842,3.5012802 12.121842,3.2382882 c 0,-0.017533 0,-0.035065 0,-0.052598 0.04675,-0.3039018 0.368188,-0.4441642 0.713,-0.4441642 0.31559,0 0.648713,0.111041 0.83573,0.3272789 L 14.03876,2.7298372 C 13.822522,2.4960666 13.360825,2.2564517 12.852375,2.2564517 c -0.01169,0 -0.02338,0 -0.03507,0 -0.794821,0.035066 -1.198075,0.5026069 -1.198075,0.9643038 0,0.374033 0.262992,0.7480659 0.812353,0.9000168 0.309746,0.087664 0.56105,0.1344181 0.888328,0.2746805 0.210394,0.087664 0.321434,0.2162378 0.321434,0.3798772 0,0.04091 -0.0058,0.075976 -0.01753,0.1168854 -0.09351,0.2922132 -0.414942,0.4324755 -0.753909,0.4383198 -0.01169,0 -0.02338,0 -0.03507,0 -0.420788,0 -0.870796,-0.1870165 -1.016902,-0.3740329 l -0.385722,0.309746 c 0.262991,0.3331231 0.929238,0.5318281 1.43769,0.5318281 0.50845,0 1.104565,-0.2571477 1.227295,-0.771443 0.01754,-0.093508 0.02922,-0.1811722 0.02922,-0.2688362 0,-0.5961151 -0.555206,-0.8766398 -1.285739,-1.0402792 z m 4.521507,-1.4610663 c -0.502606,0 -0.952615,0.2045493 -1.27405,0.5376724 V 2.3382714 H 15.59138 v 4.0500758 h 0.496762 V 5.260404 c 0.321435,0.3331231 0.771444,0.5376724 1.27405,0.5376724 0.975992,0 1.770813,-0.7948201 1.770813,-1.7708123 0,-0.9759923 -0.794821,-1.7708124 -1.770813,-1.7708124 z m 0,3.0565507 c -0.713,0 -1.291582,-0.5785822 -1.291582,-1.2857383 0,-0.7130004 0.578582,-1.2915826 1.291582,-1.2915826 0.707156,0 1.285739,0.5785822 1.285739,1.2915826 0,0.7071561 -0.578583,1.2857383 -1.285739,1.2857383 z m 6.619604,-1.2857383 c 0,-0.9759923 -0.794821,-1.7708124 -1.770813,-1.7708124 -0.981835,0 -1.770811,0.7948201 -1.770811,1.7708124 0,0.9818365 0.788976,1.7708123 1.770811,1.7708123 0.432476,0 0.824042,-0.1519508 1.133787,-0.4090986 L 22.988269,5.0324777 c -0.216238,0.1694836 -0.485073,0.2688362 -0.777287,0.2688362 -0.648713,0 -1.186385,-0.4909183 -1.262361,-1.1162547 h 3.027329 c 0,-0.052598 0.0058,-0.1051967 0.0058,-0.1577951 z M 20.983688,3.6824525 c 0.151951,-0.5318282 0.642869,-0.9292382 1.227295,-0.9292382 0.578582,0 1.075344,0.39741 1.221451,0.9292382 z m 6.806613,1.3500252 c -0.210393,0.1636394 -0.490918,0.2688362 -0.759755,0.2688362 -0.0058,0 -0.01169,0 -0.02338,-0.00584 C 26.212345,5.2837859 25.73896,4.6584489 25.73896,4.021424 V 3.945447 c 0.02922,-0.572738 0.485075,-1.1396318 1.180542,-1.1922301 0.03507,-0.00584 0.06429,-0.00584 0.09936,-0.00584 0.298058,0 0.578582,0.1227296 0.771443,0.2688363 l 0.3565,-0.350656 C 27.819528,2.3850311 27.410429,2.250613 27.007175,2.250613 c -0.239615,0 -0.479229,0.052598 -0.701312,0.1461066 -0.525983,0.2279264 -0.91755,0.7130003 -1.034434,1.2682056 -0.02338,0.1168853 -0.03507,0.2396148 -0.03507,0.3565001 0,0.525984 0.23377,1.034435 0.648713,1.3734023 0.321435,0.262992 0.724689,0.4032543 1.127944,0.4032543 0.251302,0 0.496762,-0.052598 0.724688,-0.1577951 0.146107,-0.064287 0.280525,-0.1519509 0.409099,-0.2571476 -0.0059,0 -0.356501,-0.350656 -0.356499,-0.350656 z M 31.74492,2.3382714 v 2.0747142 c 0,0.4909182 -0.397411,0.8883283 -0.888328,0.8883283 -0.485074,0 -0.882485,-0.3974101 -0.882485,-0.8883283 V 2.3382714 h -0.496762 v 2.0747142 c 0,0.7655987 0.619491,1.3850908 1.379246,1.3850908 0.338968,0 0.648713,-0.1227296 0.888329,-0.3214346 v 0.2396149 h 0.496762 V 2.3382714 Z M 34.361205,5.722101 V 1.6720253 H 33.864442 V 5.722101 Z m 3.235767,-3.4656493 c -0.981837,0 -1.770814,0.7889758 -1.770814,1.7708124 0,0.9759922 0.788977,1.7708123 1.770814,1.7708123 0.812352,0 1.27405,-0.5376724 1.27405,-0.5376724 v 0.4558527 h 0.496762 V 4.0272641 c 0,-0.9759923 -0.79482,-1.7708124 -1.770812,-1.7708124 z m 1.285737,1.7708124 c 0,0.7071561 -0.578582,1.2857383 -1.285737,1.2857383 -0.713002,0 -1.291584,-0.5785822 -1.291584,-1.2857383 0,-0.7130004 0.578582,-1.2915826 1.291584,-1.2915826 0.695467,0 1.285737,0.5727379 1.285737,1.2915826 z"
     id="text2"
     transform="translate(0,-0.672)"
     style="font-weight:600;font-size:4.93889px;line-height:0;font-family:Neokurat;-inkscape-font-specification:'Neokurat, Semi-Bold';text-align:center;letter-spacing:1.05833px;word-spacing:0.132292px;text-anchor:middle;display:inline;opacity:0.85;fill:#eedcbb;fill-opacity:0.89019608;fill-rule:evenodd;stroke-width:0.0920357;stroke-linecap:round;stroke-linejoin:round;stroke-opacity:0.631373;paint-order:fill markers stroke"
     aria-label="specula" />
  <path
     style="font-weight:600;font-size:2.82222px;line-height:0;font-family:Neokurat;-inkscape-font-specification:'Neokurat, Semi-Bold';text-align:center;letter-spacing:0.529167px;word-spacing:0.79375px;text-anchor:middle;display:inline;opacity:0.948225;fill:#eedcbb;fill-opacity:0.890196;fill-rule:evenodd;stroke-width:0.04;stroke-linecap:round;stroke-linejoin:round;stroke-opacity:0.898039;paint-order:fill markers stroke"
     d="m 15.236498,125.21283 c -0.163689,-0.0705 -0.285044,-0.10724 -0.434622,-0.14111 -0.206022,-0.048 -0.400755,-0.127 -0.400755,-0.29351 0,-0.0169 0.0028,-0.0339 0.0056,-0.0508 0.03104,-0.15804 0.220134,-0.26811 0.437445,-0.27093 0.0028,0 0.0028,0 0.0056,0 0.180622,0 0.372533,0.0621 0.510822,0.2032 l 0.174977,-0.16369 c -0.121355,-0.13547 -0.386644,-0.27375 -0.680155,-0.27375 -0.0056,0 -0.01129,0.003 -0.01693,0.003 -0.454377,0.006 -0.660399,0.30197 -0.680155,0.48823 -0.0028,0.0169 -0.0056,0.0367 -0.0056,0.0536 0,0.2286 0.180622,0.42898 0.462844,0.50518 0.183444,0.0508 0.333022,0.079 0.530577,0.16087 0.09596,0.0423 0.194733,0.11571 0.194733,0.24553 0,0.0254 -0.0028,0.0536 -0.01129,0.0819 -0.05644,0.1778 -0.253999,0.254 -0.437444,0.26246 -0.01129,0.003 -0.0254,0.003 -0.03669,0.003 -0.259644,0 -0.533399,-0.11571 -0.62371,-0.22577 l -0.191911,0.15522 c 0.149577,0.19473 0.536222,0.30762 0.82691,0.30762 0.285045,0 0.612422,-0.13547 0.697089,-0.43744 0.01693,-0.0508 0.02258,-0.1016 0.02258,-0.14676 0,-0.2032 -0.124177,-0.37253 -0.349955,-0.46567 z m 2.473677,-0.94826 v 0.76764 h -1.114777 v -0.76764 H 16.35551 v 1.9558 h 0.239888 v -0.94827 h 1.114777 v 0.94827 h 0.239889 v -1.9558 z m 1.948742,-0.0395 -1.018822,1.9953 h 0.268111 l 0.333022,-0.65194 h 0.832555 l 0.333022,0.65194 h 0.270933 z m -0.299156,1.11476 0.299156,-0.58701 0.299155,0.58701 z m 3.385253,-0.9285 c -0.112888,-0.0903 -0.259644,-0.14675 -0.417688,-0.14675 h -0.959555 v 1.9558 h 0.239889 v -0.61807 h 0.719666 c 0.369711,0 0.668866,-0.29915 0.668866,-0.66886 0,-0.21167 -0.09878,-0.39794 -0.251178,-0.52212 z m 0.01129,0.52212 c 0,0.23706 -0.191911,0.42897 -0.428977,0.42897 h -0.719666 v -0.85514 h 0.719666 c 0.237066,0 0.428977,0.19192 0.428977,0.42617 z m 1.231901,1.04704 v -0.6604 h 1.03011 v -0.23989 h -1.03011 v -0.57292 h 1.219199 v -0.2427 h -1.459088 v 1.9558 h 1.498599 v -0.23989 z m 1.849967,-1.71591 v 0.2427 h 0.694267 v 1.71309 h 0.239888 v -1.71309 h 0.694266 v -0.2427 z m 2.865963,-0.0395 -1.018821,1.9953 h 0.268111 l 0.333022,-0.65193 h 0.832555 l 0.333022,0.65193 h 0.270933 z m -0.299155,1.11477 0.299155,-0.58702 0.299156,0.58702 z m 2.727676,-0.0931 0.97931,-0.98214 h -0.341488 l -0.809977,0.80998 -0.307622,-0.30762 v -0.50236 h -0.242711 v 1.95581 h 0.242711 v -1.11478 l 1.114777,1.11478 h 0.341488 z m 1.920522,0.73378 v -0.66041 h 1.03011 v -0.23989 h -1.03011 v -0.57291 h 1.219199 v -0.24276 h -1.459089 v 1.95579 h 1.498599 v -0.23989 z m 3.706988,0.23989 -0.451555,-0.44874 c 0.231422,-0.14393 0.383822,-0.39793 0.383822,-0.69144 0,-0.44873 -0.364067,-0.81562 -0.815622,-0.81562 h -0.812799 v 1.95862 h 0.239889 v -1.13453 l 1.13171,1.13453 z m -0.307622,-1.14018 c 0,0.20037 -0.110066,0.40922 -0.318911,0.51647 l -0.829732,-0.82974 v -0.25965 h 0.57291 c 0.316089,0 0.575733,0.25683 0.575733,0.57292 z"
     id="text6"
     transform="translate(0,0.92717)"
     aria-label="SHPETE" />
  <path
     d="m 14.379029,109.75563 h -0.74577 v -0.22719 h 0.232127 v -1.26929 h -0.232127 v -0.22719 h 0.74577 v 0.22719 h -0.234596 v 1.26929 h 0.234596 z m 1.377947,0 -0.563032,-0.95073 -0.190147,-0.36795 h -0.0074 v 0.37535 0.94333 h -0.266699 v -1.72367 h 0.313619 l 0.560563,0.95074 0.190147,0.36794 h 0.0074 v -0.37535 -0.94333 h 0.266699 v 1.72367 z"
     id="text3"
     style="font-weight:500;font-size:2.46944px;line-height:0;font-family:'IBM Plex Sans';-inkscape-font-specification:'IBM Plex Sans, Medium';text-align:center;letter-spacing:0px;word-spacing:0.132292px;text-anchor:middle;display:inline;opacity:0.916201;fill:#f3e4ca;fill-opacity:0.89019608;fill-rule:evenodd;stroke-width:0.1;stroke-linecap:round;stroke-linejoin:round;stroke-opacity:0.631373;paint-order:fill markers stroke"
     aria-label="IN" />
  <path
     d="m 35.416086,109.78526 q -0.22472,0 -0.392641,-0.10124 -0.165453,-0.10372 -0.256822,-0.30127 -0.09137,-0.20003 -0.09137,-0.48895 0,-0.2914 0.09137,-0.48895 0.09137,-0.19756 0.256822,-0.29881 0.167921,-0.10371 0.392641,-0.10371 0.227188,0 0.39264,0.10371 0.167922,0.10125 0.259292,0.29881 0.09137,0.19755 0.09137,0.48895 0,0.28892 -0.09137,0.48895 -0.09137,0.19755 -0.259292,0.30127 -0.165452,0.10124 -0.39264,0.10124 z m 0,-0.24941 q 0.135819,0 0.234596,-0.0617 0.09878,-0.0617 0.155575,-0.17533 0.0568,-0.11359 0.0568,-0.26916 v -0.27164 q 0,-0.15805 -0.0568,-0.27164 -0.0568,-0.1136 -0.155575,-0.17286 -0.09878,-0.0617 -0.234596,-0.0617 -0.130881,0 -0.232128,0.0617 -0.101247,0.0593 -0.158044,0.17286 -0.05433,0.11359 -0.05433,0.27164 v 0.27164 q 0,0.15557 0.05433,0.26916 0.0568,0.1136 0.158044,0.17533 0.101247,0.0617 0.232128,0.0617 z m 1.081615,-1.50389 h 0.274108 v 1.06186 q 0,0.1457 0.03457,0.24448 0.03704,0.0988 0.118533,0.14816 0.08149,0.0494 0.214842,0.0494 0.135819,0 0.214841,-0.0494 0.08149,-0.0494 0.118533,-0.14816 0.03704,-0.0988 0.03704,-0.24448 v -1.06186 h 0.274108 v 1.01741 q 0,0.25188 -0.06421,0.41487 -0.06174,0.16298 -0.204963,0.242 -0.140758,0.079 -0.377825,0.079 -0.237066,0 -0.377824,-0.079 -0.138289,-0.079 -0.200025,-0.242 -0.06174,-0.16299 -0.06174,-0.41487 z m 2.854672,0.24695 h -0.513644 v 1.47672 h -0.279046 v -1.47672 h -0.513644 v -0.24695 h 1.306334 z"
     id="text4"
     style="font-weight:500;font-size:2.46944px;line-height:0;font-family:'IBM Plex Sans';-inkscape-font-specification:'IBM Plex Sans, Medium';text-align:center;letter-spacing:0px;word-spacing:0.132292px;text-anchor:middle;display:inline;opacity:0.916201;fill:#f3e4ca;fill-opacity:0.89019608;fill-rule:evenodd;stroke-width:0.1;stroke-linecap:round;stroke-linejoin:round;stroke-opacity:0.631373;paint-order:fill markers stroke"
     aria-label="OUT" />
  <path
     d="m -126.26308,46.275003 h 0.0889 v 0.457199 q 0,0.06985 0.0169,0.118533 0.0169,0.04762 0.055,0.07197 0.0392,0.02434 0.10478,0.02434 0.0656,0 0.10371,-0.02434 0.0392,-0.02434 0.0561,-0.07197 0.0169,-0.04868 0.0169,-0.118533 v -0.457199 h 0.0889 v 0.436032 q 0,0.106892 -0.0265,0.1778 -0.0254,0.06985 -0.0847,0.103716 -0.0593,0.03387 -0.15769,0.03387 -0.0984,0 -0.15557,-0.03387 -0.0572,-0.03387 -0.0826,-0.103716 -0.0243,-0.07091 -0.0243,-0.1778 z m 1.17157,0.738715 -0.26988,-0.450849 -0.0889,-0.164041 h -0.003 v 0.164041 0.450849 h -0.0868 v -0.738715 h 0.10265 l 0.26988,0.450849 0.0889,0.164041 h 0.003 v -0.164041 -0.450849 h 0.0868 v 0.738715 z m 0.56091,0 h -0.29633 v -0.07408 h 0.10372 v -0.590549 h -0.10372 v -0.07408 h 0.29633 v 0.07408 h -0.10371 v 0.590549 h 0.10371 z m 0.63818,-0.660398 h -0.23495 v 0.660398 h -0.0889 V 46.35332 h -0.23495 v -0.07832 h 0.5588 z m 0.72284,0.673098 q -0.0878,0 -0.14499,-0.04551 -0.0561,-0.04551 -0.0825,-0.130174 -0.0265,-0.08573 -0.0265,-0.206375 0,-0.120649 0.0265,-0.206374 0.0264,-0.08573 0.0825,-0.130174 0.0572,-0.04551 0.14499,-0.04551 0.0889,0 0.14499,0.04551 0.0561,0.04445 0.0825,0.130174 0.0265,0.08572 0.0265,0.206374 0,0.12065 -0.0265,0.206375 -0.0265,0.08467 -0.0825,0.130174 -0.0561,0.04551 -0.14499,0.04551 z m 0,-0.07726 q 0.0582,0 0.0931,-0.03069 0.0349,-0.03175 0.0508,-0.08678 0.0169,-0.05609 0.0169,-0.127 v -0.120649 q 0,-0.07197 -0.0169,-0.127 -0.0159,-0.05503 -0.0508,-0.08573 -0.0349,-0.03175 -0.0931,-0.03175 -0.0572,0 -0.0931,0.03175 -0.0349,0.03069 -0.0519,0.08573 -0.0159,0.05503 -0.0159,0.127 v 0.120649 q 0,0.07091 0.0159,0.127 0.0169,0.05503 0.0519,0.08678 0.036,0.03069 0.0931,0.03069 z m 0.59795,0.06456 h -0.0953 l 0.28258,-0.662515 h -0.31538 v 0.137583 h -0.0794 v -0.213783 h 0.48472 v 0.07832 z m 0.67204,0.0127 q -0.0836,0 -0.14075,-0.02752 -0.0571,-0.02857 -0.0868,-0.07726 -0.0286,-0.04868 -0.0286,-0.109008 0,-0.07514 0.0413,-0.119591 0.0413,-0.04551 0.10795,-0.0635 v -0.0085 q -0.0582,-0.02011 -0.0931,-0.06456 -0.0339,-0.04551 -0.0339,-0.109008 0,-0.08467 0.0614,-0.134408 0.0624,-0.0508 0.1725,-0.0508 0.11007,0 0.17145,0.0508 0.0624,0.04974 0.0624,0.134408 0,0.0635 -0.0349,0.109008 -0.0339,0.04445 -0.0921,0.06456 v 0.0085 q 0.0667,0.01799 0.10795,0.0635 0.0413,0.04445 0.0413,0.119591 0,0.06032 -0.0296,0.109008 -0.0286,0.04868 -0.0857,0.07726 -0.0561,0.02752 -0.14076,0.02752 z m 0,-0.07726 q 0.0773,0 0.1196,-0.03493 0.0423,-0.03493 0.0423,-0.09737 v -0.02222 q 0,-0.06244 -0.0423,-0.09737 -0.0423,-0.03493 -0.1196,-0.03493 -0.0772,0 -0.11959,0.03493 -0.0423,0.03493 -0.0423,0.09737 v 0.02222 q 0,0.06244 0.0423,0.09737 0.0423,0.03493 0.11959,0.03493 z m 0,-0.360891 q 0.0688,0 0.10478,-0.02963 0.037,-0.03069 0.037,-0.08678 v -0.01588 q 0,-0.05609 -0.037,-0.08573 -0.036,-0.03069 -0.10478,-0.03069 -0.0688,0 -0.10583,0.03069 -0.036,0.02963 -0.036,0.08573 v 0.01588 q 0,0.05609 0.036,0.08678 0.037,0.02963 0.10583,0.02963 z m 0.79904,0.425449 h -0.0847 v -0.144992 h -0.35666 v -0.07832 l 0.30903,-0.515407 h 0.13229 v 0.51964 h 0.1069 v 0.07408 h -0.1069 z m -0.09,-0.669923 -0.26776,0.450848 h 0.27305 v -0.450848 z m 0.4392,0.244474 h 0.0804 q 0.0751,0 0.11218,-0.03492 0.0381,-0.03493 0.0381,-0.08784 v -0.0074 q 0,-0.05821 -0.037,-0.08678 -0.036,-0.02963 -0.0952,-0.02963 -0.0572,0 -0.0931,0.0254 -0.036,0.02434 -0.0593,0.06668 l -0.0656,-0.0508 q 0.0191,-0.02963 0.0476,-0.05715 0.0286,-0.02752 0.0709,-0.04551 0.0423,-0.01799 0.10159,-0.01799 0.0624,0 0.11325,0.02222 0.0508,0.02117 0.0804,0.06244 0.0307,0.04127 0.0307,0.101599 0,0.07091 -0.0413,0.1143 -0.0413,0.04339 -0.10055,0.05821 v 0.0042 q 0.0402,0.0074 0.0751,0.03069 0.036,0.02222 0.0582,0.06138 0.0222,0.0381 0.0222,0.09419 0,0.0635 -0.0318,0.112183 -0.0307,0.04762 -0.0878,0.07514 -0.0561,0.02752 -0.13124,0.02752 -0.0635,0 -0.109,-0.01799 -0.0444,-0.01905 -0.0762,-0.04763 -0.0307,-0.02857 -0.054,-0.06032 l 0.0667,-0.0508 q 0.0286,0.04339 0.0656,0.07091 0.0381,0.02646 0.10584,0.02646 0.0783,0 0.11853,-0.03598 0.0402,-0.03598 0.0402,-0.100542 v -0.0085 q 0,-0.06562 -0.0402,-0.100542 -0.0402,-0.03598 -0.11853,-0.03598 h -0.0868 z"
     id="text1"
     style="font-size:1.05833px;line-height:0;font-family:'IBM Plex Sans';-inkscape-font-specification:'IBM Plex Sans, Normal';text-align:center;letter-spacing:0px;word-spacing:0.132292px;text-anchor:middle;opacity:0.900489;fill:#eedcbb;fill-opacity:0.890196;fill-rule:evenodd;stroke-width:0.1;stroke-linecap:round;stroke-linejoin:round;stroke-opacity:0.631373;paint-order:fill markers stroke"
     transform="rotate(-90)"
     aria-label="UNIT 07843" />
  <path
     d="m -125.70429,47.508502 h -0.23495 V 48.1689 h -0.0889 v -0.660398 h -0.23495 v -0.07832 h 0.5588 z m 0.38523,0.660398 h -0.0889 v -0.2921 l -0.254,-0.446615 h 0.1016 l 0.19685,0.355599 h 0.003 l 0.19685,-0.355599 h 0.1016 l -0.25718,0.44344 z m 0.45826,0 h -0.0889 v -0.738715 h 0.29422 q 0.0667,0 0.11218,0.02646 0.0466,0.0254 0.0699,0.07303 0.0243,0.04657 0.0243,0.112183 0,0.06456 -0.0243,0.112183 -0.0233,0.04763 -0.0699,0.07408 -0.0455,0.0254 -0.11218,0.0254 h -0.20532 z m 0,-0.660398 v 0.266699 h 0.20532 q 0.0349,0 0.0593,-0.01164 0.0254,-0.0127 0.0381,-0.03598 0.0138,-0.02434 0.0138,-0.05821 v -0.05503 q 0,-0.03387 -0.0138,-0.05715 -0.0127,-0.02434 -0.0381,-0.03598 -0.0243,-0.0127 -0.0593,-0.0127 z m 1.0033,0.660398 h -0.45085 v -0.738715 h 0.45085 v 0.07832 h -0.36195 v 0.247649 h 0.34078 v 0.07832 h -0.34078 v 0.256116 h 0.36195 z m 0.22225,0.0127 q -0.0328,0 -0.0487,-0.01693 -0.0159,-0.01799 -0.0159,-0.04445 v -0.01376 q 0,-0.02752 0.0159,-0.04445 0.0159,-0.01693 0.0487,-0.01693 0.0339,0 0.0487,0.01693 0.0159,0.01693 0.0159,0.04445 v 0.01376 q 0,0.02646 -0.0159,0.04445 -0.0148,0.01693 -0.0487,0.01693 z m 0,-0.434973 q -0.0328,0 -0.0487,-0.01693 -0.0159,-0.01799 -0.0159,-0.04445 v -0.01376 q 0,-0.02752 0.0159,-0.04445 0.0159,-0.01693 0.0487,-0.01693 0.0339,0 0.0487,0.01693 0.0159,0.01693 0.0159,0.04445 v 0.01376 q 0,0.02646 -0.0159,0.04445 -0.0148,0.01693 -0.0487,0.01693 z m 0.91122,0.422274 h -0.10795 l -0.24553,-0.738715 h 0.0953 l 0.12171,0.372532 0.0815,0.277283 h 0.005 l 0.0836,-0.277283 0.12276,-0.372532 h 0.0921 z m 0.36301,-0.738715 h 0.0889 v 0.457199 q 0,0.06985 0.0169,0.118533 0.0169,0.04763 0.055,0.07197 0.0392,0.02434 0.10478,0.02434 0.0656,0 0.10371,-0.02434 0.0392,-0.02434 0.0561,-0.07197 0.0169,-0.04868 0.0169,-0.118533 v -0.457199 h 0.0889 v 0.436032 q 0,0.106891 -0.0265,0.1778 -0.0254,0.06985 -0.0847,0.103716 -0.0593,0.03387 -0.15769,0.03387 -0.0984,0 -0.15557,-0.03387 -0.0571,-0.03387 -0.0825,-0.103716 -0.0243,-0.07091 -0.0243,-0.1778 z m 1.10489,0.738715 v -0.738715 h 0.11854 l 0.1397,0.261408 0.072,0.136524 h 0.005 l 0.073,-0.136524 0.1397,-0.261408 h 0.1143 V 48.1689 h -0.0868 v -0.498474 -0.123825 h -0.005 l -0.0624,0.123825 -0.17674,0.321732 -0.17674,-0.321732 -0.0624,-0.123825 h -0.005 v 0.123825 0.498474 z m 1.31022,0 h -0.45085 v -0.738715 h 0.45085 v 0.07832 h -0.36195 v 0.247649 h 0.34078 v 0.07832 h -0.34078 v 0.256116 h 0.36195 z m 0.64981,-0.660398 h -0.23495 V 48.1689 h -0.0889 v -0.660398 h -0.23495 v -0.07832 h 0.5588 z m 0.57256,0.660398 h -0.45085 v -0.738715 h 0.45085 v 0.07832 h -0.36195 v 0.247649 h 0.34078 v 0.07832 h -0.34078 v 0.256116 h 0.36195 z m 0.25506,-0.317499 V 48.1689 h -0.0889 v -0.738715 h 0.29421 q 0.0646,0 0.11007,0.02434 0.0466,0.02434 0.0709,0.07091 0.0254,0.04657 0.0254,0.1143 0,0.08043 -0.0381,0.133349 -0.0381,0.05292 -0.11007,0.06985 l 0.16933,0.325966 h -0.10054 l -0.15981,-0.317499 z m 0,-0.0762 h 0.20531 q 0.0349,0 0.0593,-0.01164 0.0254,-0.0127 0.0381,-0.03598 0.0138,-0.02434 0.0138,-0.05821 v -0.05503 q 0,-0.03387 -0.0138,-0.05715 -0.0127,-0.02434 -0.0381,-0.03598 -0.0243,-0.0127 -0.0593,-0.0127 h -0.20531 z"
     id="text5"
     style="font-size:1.05833px;line-height:0;font-family:'IBM Plex Sans';-inkscape-font-specification:'IBM Plex Sans, Normal';text-align:center;letter-spacing:0px;word-spacing:0.132292px;text-anchor:middle;opacity:0.900489;fill:#eedcbb;fill-opacity:0.890196;fill-rule:evenodd;stroke-width:0.1;stroke-linecap:round;stroke-linejoin:round;stroke-opacity:0.631373;paint-order:fill markers stroke"
     transform="rotate(-90)"
     aria-label="TYPE: VU METER" />
  <path
     d="m -125.73815,49.3368 h -0.48577 v -0.07832 h 0.20638 v -0.594781 h -0.007 l -0.18627,0.173566 -0.0519,-0.05609 0.19579,-0.183091 h 0.13865 v 0.660398 h 0.19049 z m 0.3736,0.0127 q -0.0879,0 -0.145,-0.04551 -0.0561,-0.04551 -0.0825,-0.130174 -0.0264,-0.08572 -0.0264,-0.206375 0,-0.120649 0.0264,-0.206374 0.0265,-0.08573 0.0825,-0.130175 0.0572,-0.04551 0.145,-0.04551 0.0889,0 0.14499,0.04551 0.0561,0.04445 0.0825,0.130175 0.0264,0.08572 0.0264,0.206374 0,0.12065 -0.0264,0.206375 -0.0265,0.08467 -0.0825,0.130174 -0.0561,0.04551 -0.14499,0.04551 z m 0,-0.07726 q 0.0582,0 0.0931,-0.03069 0.0349,-0.03175 0.0508,-0.08678 0.0169,-0.05609 0.0169,-0.127 v -0.120649 q 0,-0.07197 -0.0169,-0.127 -0.0159,-0.05503 -0.0508,-0.08573 -0.0349,-0.03175 -0.0931,-0.03175 -0.0572,0 -0.0931,0.03175 -0.0349,0.03069 -0.0519,0.08573 -0.0159,0.05503 -0.0159,0.127 v 0.120649 q 0,0.07091 0.0159,0.127 0.0169,0.05503 0.0519,0.08678 0.036,0.03069 0.0931,0.03069 z m 0.69214,0.06456 h -0.10795 l -0.24553,-0.738715 h 0.0953 l 0.12171,0.372532 0.0815,0.277283 h 0.005 l 0.0836,-0.277283 0.12277,-0.372532 h 0.0921 z m 0.34396,0.211666 v -0.757765 h 0.0847 v 0.0889 h 0.004 q 0.0212,-0.05186 0.0624,-0.0762 0.0413,-0.0254 0.0974,-0.0254 0.0688,0 0.11853,0.03492 0.0497,0.03493 0.0762,0.09948 0.0275,0.0635 0.0275,0.151341 0,0.08678 -0.0275,0.151342 -0.0265,0.06456 -0.0762,0.09948 -0.0497,0.03493 -0.11853,0.03493 -0.0561,0 -0.0963,-0.0254 -0.0392,-0.0254 -0.0635,-0.0762 h -0.004 v 0.300566 z m 0.22543,-0.275166 q 0.072,0 0.11324,-0.04445 0.0413,-0.04551 0.0413,-0.118533 v -0.09313 q 0,-0.07303 -0.0413,-0.117475 -0.0413,-0.04551 -0.11324,-0.04551 -0.0381,0 -0.0709,0.01376 -0.0318,0.01376 -0.0508,0.03704 -0.0191,0.02328 -0.0191,0.05398 v 0.203199 q 0,0.03493 0.0191,0.06032 0.019,0.02434 0.0508,0.0381 0.0328,0.0127 0.0709,0.0127 z m 0.3884,0.275166 v -0.757765 h 0.0847 v 0.0889 h 0.004 q 0.0212,-0.05186 0.0624,-0.0762 0.0413,-0.0254 0.0974,-0.0254 0.0688,0 0.11853,0.03492 0.0497,0.03493 0.0762,0.09948 0.0275,0.0635 0.0275,0.151341 0,0.08678 -0.0275,0.151342 -0.0265,0.06456 -0.0762,0.09948 -0.0497,0.03493 -0.11853,0.03493 -0.0561,0 -0.0963,-0.0254 -0.0392,-0.0254 -0.0635,-0.0762 h -0.004 v 0.300566 z m 0.22543,-0.275166 q 0.072,0 0.11324,-0.04445 0.0413,-0.04551 0.0413,-0.118533 v -0.09313 q 0,-0.07303 -0.0413,-0.117475 -0.0413,-0.04551 -0.11324,-0.04551 -0.0381,0 -0.0709,0.01376 -0.0317,0.01376 -0.0508,0.03704 -0.019,0.02328 -0.019,0.05398 v 0.203199 q 0,0.03493 0.019,0.06032 0.0191,0.02434 0.0508,0.0381 0.0328,0.0127 0.0709,0.0127 z m 1.03928,0.0762 q -0.0931,0 -0.15981,-0.04233 -0.0667,-0.04339 -0.10266,-0.126999 -0.0349,-0.08467 -0.0349,-0.208491 0,-0.123825 0.0349,-0.20955 0.036,-0.08678 0.10266,-0.131233 0.0667,-0.04551 0.15981,-0.04551 0.0921,0 0.15557,0.04233 0.0635,0.04233 0.0984,0.119592 l -0.072,0.04339 q -0.0222,-0.05715 -0.0677,-0.09102 -0.0455,-0.03493 -0.1143,-0.03493 -0.0952,0 -0.14923,0.06985 -0.0529,0.06879 -0.0529,0.182033 v 0.110066 q 0,0.113241 0.0529,0.178858 0.054,0.06456 0.14923,0.06456 0.0709,0 0.11853,-0.03598 0.0476,-0.03704 0.0699,-0.09737 l 0.0709,0.04445 q -0.0349,0.07726 -0.1016,0.122766 -0.0656,0.04551 -0.15769,0.04551 z m 0.9525,-0.0127 h -0.0931 l -0.0741,-0.218016 h -0.29845 l -0.0741,0.218016 h -0.09 l 0.25823,-0.738715 h 0.11324 z m -0.18945,-0.296333 -0.0931,-0.267757 -0.0318,-0.09207 h -0.005 l -0.0318,0.09207 -0.0931,0.267757 z m 0.71544,0.296333 h -0.40323 v -0.738715 h 0.0889 v 0.660398 h 0.31433 z m 0.3884,0 h -0.29633 v -0.07408 h 0.10372 v -0.590549 h -0.10372 v -0.07408 h 0.29633 v 0.07408 h -0.10371 v 0.590549 h 0.10371 z m 0.16193,0 v -0.738715 h 0.30374 q 0.091,0 0.14393,0.05186 0.0529,0.05186 0.0529,0.138642 0,0.05503 -0.0201,0.08784 -0.019,0.03281 -0.0476,0.04868 -0.0275,0.01588 -0.0519,0.02011 v 0.0063 q 0.0201,0.0011 0.0445,0.01164 0.0254,0.0095 0.0476,0.02963 0.0233,0.02011 0.0381,0.05186 0.0148,0.03175 0.0148,0.07832 0,0.06033 -0.0254,0.109008 -0.0243,0.04868 -0.0677,0.07726 -0.0423,0.02752 -0.0974,0.02752 z m 0.0889,-0.342899 v 0.264582 h 0.21907 q 0.0381,0 0.0656,-0.0127 0.0275,-0.01376 0.0423,-0.03916 0.0148,-0.0254 0.0148,-0.06244 V 49.1082 q 0,-0.03704 -0.0148,-0.06244 -0.0148,-0.0254 -0.0423,-0.0381 -0.0275,-0.01376 -0.0656,-0.01376 z m 0,-0.317499 v 0.241299 h 0.20425 q 0.0349,0 0.0593,-0.01164 0.0254,-0.0127 0.0392,-0.03493 0.0138,-0.02328 0.0138,-0.05609 v -0.03598 q 0,-0.03281 -0.0138,-0.05503 -0.0138,-0.02328 -0.0392,-0.03493 -0.0243,-0.0127 -0.0593,-0.0127 z m 0.69109,0.342899 V 49.3368 h -0.0889 v -0.738715 h 0.29421 q 0.0646,0 0.11007,0.02434 0.0466,0.02434 0.0709,0.07091 0.0254,0.04657 0.0254,0.1143 0,0.08043 -0.0381,0.133349 -0.0381,0.05292 -0.11007,0.06985 l 0.16933,0.325966 h -0.10054 l -0.15981,-0.317499 z m 0,-0.0762 h 0.20531 q 0.0349,0 0.0593,-0.01164 0.0254,-0.0127 0.0381,-0.03598 0.0138,-0.02434 0.0138,-0.05821 v -0.05503 q 0,-0.03387 -0.0138,-0.05715 -0.0127,-0.02434 -0.0381,-0.03598 -0.0243,-0.0127 -0.0593,-0.0127 h -0.20531 z m 1.14405,0.393699 h -0.0931 l -0.0741,-0.218016 h -0.29845 l -0.0741,0.218016 h -0.09 l 0.25824,-0.738715 h 0.11324 z m -0.18944,-0.296333 -0.0931,-0.267757 -0.0318,-0.09207 h -0.005 l -0.0318,0.09207 -0.0931,0.267757 z m 0.72707,-0.364065 h -0.23495 V 49.3368 h -0.0889 v -0.660398 h -0.23495 v -0.07832 h 0.5588 z m 0.57256,0.660398 h -0.45085 v -0.738715 h 0.45085 v 0.07832 h -0.36195 v 0.247649 h 0.34078 v 0.07832 h -0.34078 v 0.256116 h 0.36195 z m 0.16616,0 v -0.738715 h 0.24765 q 0.0921,0 0.1598,0.04128 0.0688,0.04022 0.10584,0.122766 0.037,0.08149 0.037,0.205316 0,0.123825 -0.037,0.206375 -0.037,0.08149 -0.10584,0.122766 -0.0677,0.04022 -0.1598,0.04022 z m 0.0889,-0.07832 h 0.15875 q 0.0614,0 0.10795,-0.02752 0.0466,-0.02752 0.073,-0.07832 0.0265,-0.05186 0.0265,-0.124883 v -0.120649 q 0,-0.07302 -0.0265,-0.124883 -0.0265,-0.05186 -0.073,-0.07832 -0.0466,-0.02752 -0.10795,-0.02752 h -0.15875 z"
     id="text7"
     style="font-size:1.05833px;line-height:0;font-family:'IBM Plex Sans';-inkscape-font-specification:'IBM Plex Sans, Normal';text-align:center;letter-spacing:0px;word-spacing:0.132292px;text-anchor:middle;opacity:0.900489;fill:#eedcbb;fill-opacity:0.890196;fill-rule:evenodd;stroke-width:0.1;stroke-linecap:round;stroke-linejoin:round;stroke-opacity:0.631373;paint-order:fill markers stroke"
     transform="rotate(-90)"
     aria-label="10Vpp CALIBRATED" />
</svg>
