<?xml version="1.0" encoding="UTF-8" standalone="no"?>
<!-- Shapetaker Attenuverter Indicator - Small (54x54px) - Knurled 4ms Style -->

<svg
   version="1.0"
   width="54px"
   height="54px"
   viewBox="0 0 54 54"
   id="svg43"
   sodipodi:docname="st_attenuverter_small_indicator.svg"
   inkscape:version="1.4.3 (0d15f75, 2025-12-25)"
   xmlns:inkscape="http://www.inkscape.org/namespaces/inkscape"
   xmlns:sodipodi="http://sodipodi.sourceforge.net/DTD/sodipodi-0.dtd"
   xmlns="http://www.w3.org/2000/svg"
   xmlns:svg="http://www.w3.org/2000/svg">
  <sodipodi:namedview
     id="namedview43"
     pagecolor="#505050"
     bordercolor="#eeeeee"
     borderopacity="1"
     inkscape:showpageshadow="0"
     inkscape:pageopacity="0"
     inkscape:pagecheckerboard="0"
     inkscape:deskcolor="#505050"
     inkscape:zoom="18.074074"
     inkscape:cx="27"
     inkscape:cy="26.972336"
     inkscape:window-width="1800"
     inkscape:window-height="1101"
     inkscape:window-x="0"
     inkscape:window-y="40"
     inkscape:window-maximized="1"
     inkscape:current-layer="svg43" />

  <!-- Knurled grip ring - highlight ridges (36 ridges at 10° intervals) -->
  <g stroke="#58554b" stroke-width="0.9" opacity="0.55" stroke-linecap="butt" id="knurl_highlight">
    <line x1="27" y1="8.5" x2="27" y2="3.5" id="kh0"/>
    <line x1="27" y1="8.5" x2="27" y2="3.5" transform="rotate(10 27 27)" id="kh1"/>
    <line x1="27" y1="8.5" x2="27" y2="3.5" transform="rotate(20 27 27)" id="kh2"/>
    <line x1="27" y1="8.5" x2="27" y2="3.5" transform="rotate(30 27 27)" id="kh3"/>
    <line x1="27" y1="8.5" x2="27" y2="3.5" transform="rotate(40 27 27)" id="kh4"/>
    <line x1="27" y1="8.5" x2="27" y2="3.5" transform="rotate(50 27 27)" id="kh5"/>
    <line x1="27" y1="8.5" x2="27" y2="3.5" transform="rotate(60 27 27)" id="kh6"/>
    <line x1="27" y1="8.5" x2="27" y2="3.5" transform="rotate(70 27 27)" id="kh7"/>
    <line x1="27" y1="8.5" x2="27" y2="3.5" transform="rotate(80 27 27)" id="kh8"/>
    <line x1="27" y1="8.5" x2="27" y2="3.5" transform="rotate(90 27 27)" id="kh9"/>
    <line x1="27" y1="8.5" x2="27" y2="3.5" transform="rotate(100 27 27)" id="kh10"/>
    <line x1="27" y1="8.5" x2="27" y2="3.5" transform="rotate(110 27 27)" id="kh11"/>
    <line x1="27" y1="8.5" x2="27" y2="3.5" transform="rotate(120 27 27)" id="kh12"/>
    <line x1="27" y1="8.5" x2="27" y2="3.5" transform="rotate(130 27 27)" id="kh13"/>
    <line x1="27" y1="8.5" x2="27" y2="3.5" transform="rotate(140 27 27)" id="kh14"/>
    <line x1="27" y1="8.5" x2="27" y2="3.5" transform="rotate(150 27 27)" id="kh15"/>
    <line x1="27" y1="8.5" x2="27" y2="3.5" transform="rotate(160 27 27)" id="kh16"/>
    <line x1="27" y1="8.5" x2="27" y2="3.5" transform="rotate(170 27 27)" id="kh17"/>
    <line x1="27" y1="8.5" x2="27" y2="3.5" transform="rotate(180 27 27)" id="kh18"/>
    <line x1="27" y1="8.5" x2="27" y2="3.5" transform="rotate(190 27 27)" id="kh19"/>
    <line x1="27" y1="8.5" x2="27" y2="3.5" transform="rotate(200 27 27)" id="kh20"/>
    <line x1="27" y1="8.5" x2="27" y2="3.5" transform="rotate(210 27 27)" id="kh21"/>
    <line x1="27" y1="8.5" x2="27" y2="3.5" transform="rotate(220 27 27)" id="kh22"/>
    <line x1="27" y1="8.5" x2="27" y2="3.5" transform="rotate(230 27 27)" id="kh23"/>
    <line x1="27" y1="8.5" x2="27" y2="3.5" transform="rotate(240 27 27)" id="kh24"/>
    <line x1="27" y1="8.5" x2="27" y2="3.5" transform="rotate(250 27 27)" id="kh25"/>
    <line x1="27" y1="8.5" x2="27" y2="3.5" transform="rotate(260 27 27)" id="kh26"/>
    <line x1="27" y1="8.5" x2="27" y2="3.5" transform="rotate(270 27 27)" id="kh27"/>
    <line x1="27" y1="8.5" x2="27" y2="3.5" transform="rotate(280 27 27)" id="kh28"/>
    <line x1="27" y1="8.5" x2="27" y2="3.5" transform="rotate(290 27 27)" id="kh29"/>
    <line x1="27" y1="8.5" x2="27" y2="3.5" transform="rotate(300 27 27)" id="kh30"/>
    <line x1="27" y1="8.5" x2="27" y2="3.5" transform="rotate(310 27 27)" id="kh31"/>
    <line x1="27" y1="8.5" x2="27" y2="3.5" transform="rotate(320 27 27)" id="kh32"/>
    <line x1="27" y1="8.5" x2="27" y2="3.5" transform="rotate(330 27 27)" id="kh33"/>
    <line x1="27" y1="8.5" x2="27" y2="3.5" transform="rotate(340 27 27)" id="kh34"/>
    <line x1="27" y1="8.5" x2="27" y2="3.5" transform="rotate(350 27 27)" id="kh35"/>
  </g>

  <!-- Knurled grip ring - shadow ridges (offset 5° from highlights) -->
  <g stroke="#0e0d0b" stroke-width="0.65" opacity="0.6" stroke-linecap="butt" id="knurl_shadow">
    <line x1="27" y1="8.8" x2="27" y2="3.8" transform="rotate(5 27 27)" id="ks0"/>
    <line x1="27" y1="8.8" x2="27" y2="3.8" transform="rotate(15 27 27)" id="ks1"/>
    <line x1="27" y1="8.8" x2="27" y2="3.8" transform="rotate(25 27 27)" id="ks2"/>
    <line x1="27" y1="8.8" x2="27" y2="3.8" transform="rotate(35 27 27)" id="ks3"/>
    <line x1="27" y1="8.8" x2="27" y2="3.8" transform="rotate(45 27 27)" id="ks4"/>
    <line x1="27" y1="8.8" x2="27" y2="3.8" transform="rotate(55 27 27)" id="ks5"/>
    <line x1="27" y1="8.8" x2="27" y2="3.8" transform="rotate(65 27 27)" id="ks6"/>
    <line x1="27" y1="8.8" x2="27" y2="3.8" transform="rotate(75 27 27)" id="ks7"/>
    <line x1="27" y1="8.8" x2="27" y2="3.8" transform="rotate(85 27 27)" id="ks8"/>
    <line x1="27" y1="8.8" x2="27" y2="3.8" transform="rotate(95 27 27)" id="ks9"/>
    <line x1="27" y1="8.8" x2="27" y2="3.8" transform="rotate(105 27 27)" id="ks10"/>
    <line x1="27" y1="8.8" x2="27" y2="3.8" transform="rotate(115 27 27)" id="ks11"/>
    <line x1="27" y1="8.8" x2="27" y2="3.8" transform="rotate(125 27 27)" id="ks12"/>
    <line x1="27" y1="8.8" x2="27" y2="3.8" transform="rotate(135 27 27)" id="ks13"/>
    <line x1="27" y1="8.8" x2="27" y2="3.8" transform="rotate(145 27 27)" id="ks14"/>
    <line x1="27" y1="8.8" x2="27" y2="3.8" transform="rotate(155 27 27)" id="ks15"/>
    <line x1="27" y1="8.8" x2="27" y2="3.8" transform="rotate(165 27 27)" id="ks16"/>
    <line x1="27" y1="8.8" x2="27" y2="3.8" transform="rotate(175 27 27)" id="ks17"/>
    <line x1="27" y1="8.8" x2="27" y2="3.8" transform="rotate(185 27 27)" id="ks18"/>
    <line x1="27" y1="8.8" x2="27" y2="3.8" transform="rotate(195 27 27)" id="ks19"/>
    <line x1="27" y1="8.8" x2="27" y2="3.8" transform="rotate(205 27 27)" id="ks20"/>
    <line x1="27" y1="8.8" x2="27" y2="3.8" transform="rotate(215 27 27)" id="ks21"/>
    <line x1="27" y1="8.8" x2="27" y2="3.8" transform="rotate(225 27 27)" id="ks22"/>
    <line x1="27" y1="8.8" x2="27" y2="3.8" transform="rotate(235 27 27)" id="ks23"/>
    <line x1="27" y1="8.8" x2="27" y2="3.8" transform="rotate(245 27 27)" id="ks24"/>
    <line x1="27" y1="8.8" x2="27" y2="3.8" transform="rotate(255 27 27)" id="ks25"/>
    <line x1="27" y1="8.8" x2="27" y2="3.8" transform="rotate(265 27 27)" id="ks26"/>
    <line x1="27" y1="8.8" x2="27" y2="3.8" transform="rotate(275 27 27)" id="ks27"/>
    <line x1="27" y1="8.8" x2="27" y2="3.8" transform="rotate(285 27 27)" id="ks28"/>
    <line x1="27" y1="8.8" x2="27" y2="3.8" transform="rotate(295 27 27)" id="ks29"/>
    <line x1="27" y1="8.8" x2="27" y2="3.8" transform="rotate(305 27 27)" id="ks30"/>
    <line x1="27" y1="8.8" x2="27" y2="3.8" transform="rotate(315 27 27)" id="ks31"/>
    <line x1="27" y1="8.8" x2="27" y2="3.8" transform="rotate(325 27 27)" id="ks32"/>
    <line x1="27" y1="8.8" x2="27" y2="3.8" transform="rotate(335 27 27)" id="ks33"/>
    <line x1="27" y1="8.8" x2="27" y2="3.8" transform="rotate(345 27 27)" id="ks34"/>
    <line x1="27" y1="8.8" x2="27" y2="3.8" transform="rotate(355 27 27)" id="ks35"/>
  </g>

  <!-- Inner ring edge (separates knurled grip from smooth cap) -->
  <circle cx="27" cy="27" r="18" fill="none" stroke="#1a1917" stroke-width="0.7" opacity="0.7" id="inner_ring"/>

  <!-- Cap edge -->
  <circle
     cx="27"
     cy="27"
     r="16"
     fill="none"
     stroke="#131211"
     stroke-width="0.6"
     id="circle41"
     style="stroke:#24201f;stroke-opacity:1" />

  <!-- Solid ivory pointer dot, matching the vintage main knobs -->
  <circle
     id="pointer_dot"
     cx="27"
     cy="3.65"
     r="1.35"
     fill="#e8e0ce" />
</svg>
