<?xml version="1.0" encoding="UTF-8" standalone="no"?>
<svg
   width="54"
   height="54"
   viewBox="0 0 14.2875 14.2875"
   version="1.1"
   id="svg47"
   sodipodi:docname="vintage_knob_rotate.svg"
   inkscape:version="1.4.3 (0d15f75, 2025-12-25)"
   xmlns:inkscape="http://www.inkscape.org/namespaces/inkscape"
   xmlns:sodipodi="http://sodipodi.sourceforge.net/DTD/sodipodi-0.dtd"
   xmlns="http://www.w3.org/2000/svg"
   xmlns:svg="http://www.w3.org/2000/svg">
  <sodipodi:namedview
     id="namedview47"
     pagecolor="#505050"
     bordercolor="#eeeeee"
     borderopacity="1"
     inkscape:showpageshadow="0"
     inkscape:pageopacity="0"
     inkscape:pagecheckerboard="0"
     inkscape:deskcolor="#505050"
     inkscape:zoom="16.440487"
     inkscape:cx="31.14263"
     inkscape:cy="28.223008"
     inkscape:window-width="1800"
     inkscape:window-height="1102"
     inkscape:window-x="0"
     inkscape:window-y="39"
     inkscape:window-maximized="1"
     inkscape:current-layer="svg47" />
  <defs
     id="defs2">
    <radialGradient
       id="hcFill"
       cx="0.5"
       cy="0.5"
       r="0.95">
      <stop
         offset="0"
         stop-color="#2b2b29"
         id="stop1" />
      <stop
         offset="1"
         stop-color="#0f0f0e"
         id="stop2" />
    </radialGradient>
  </defs>
  <path
     d="M 12.934 7.144 L 12.933 7.245 L 12.930 7.346 L 12.925 7.447 L 12.918 7.548 L 12.908 7.648 L 12.890 7.748 L 12.850 7.844 L 12.743 7.931 L 12.527 7.996 L 12.310 8.055 L 12.200 8.127 L 12.154 8.209 L 12.126 8.294 L 12.103 8.380 L 12.080 8.466 L 12.056 8.552 L 12.030 8.638 L 12.004 8.723 L 11.975 8.807 L 11.946 8.892 L 11.915 8.975 L 11.883 9.058 L 11.851 9.142 L 11.823 9.227 L 11.812 9.321 L 11.858 9.443 L 12.000 9.618 L 12.136 9.798 L 12.172 9.931 L 12.148 10.033 L 12.104 10.124 L 12.053 10.211 L 11.999 10.297 L 11.944 10.381 L 11.887 10.465 L 11.828 10.547 L 11.768 10.628 L 11.706 10.708 L 11.643 10.787 L 11.578 10.865 L 11.511 10.940 L 11.438 11.010 L 11.348 11.064 L 11.211 11.072 L 10.997 10.997 L 10.788 10.917 L 10.657 10.911 L 10.571 10.950 L 10.499 11.003 L 10.429 11.059 L 10.360 11.115 L 10.290 11.171 L 10.219 11.225 L 10.147 11.278 L 10.075 11.330 L 10.001 11.380 L 9.927 11.430 L 9.852 11.478 L 9.778 11.527 L 9.705 11.580 L 9.641 11.649 L 9.606 11.775 L 9.618 12.000 L 9.622 12.226 L 9.573 12.354 L 9.494 12.422 L 9.405 12.470 L 9.312 12.511 L 9.219 12.549 L 9.124 12.584 L 9.029 12.618 L 8.933 12.650 L 8.837 12.681 L 8.740 12.709 L 8.642 12.736 L 8.544 12.761 L 8.445 12.782 L 8.345 12.795 L 8.241 12.787 L 8.126 12.712 L 7.996 12.527 L 7.874 12.338 L 7.772 12.257 L 7.679 12.238 L 7.589 12.238 L 7.500 12.243 L 7.411 12.247 L 7.322 12.251 L 7.233 12.253 L 7.144 12.254 L 7.055 12.253 L 6.965 12.251 L 6.876 12.247 L 6.787 12.243 L 6.698 12.238 L 6.608 12.238 L 6.516 12.257 L 6.414 12.338 L 6.291 12.527 L 6.162 12.712 L 6.047 12.787 L 5.942 12.795 L 5.842 12.782 L 5.743 12.761 L 5.645 12.736 L 5.548 12.709 L 5.451 12.681 L 5.355 12.650 L 5.259 12.618 L 5.164 12.584 L 5.069 12.549 L 4.975 12.511 L 4.883 12.470 L 4.794 12.422 L 4.714 12.354 L 4.665 12.226 L 4.670 12.000 L 4.681 11.775 L 4.646 11.649 L 4.583 11.580 L 4.510 11.527 L 4.435 11.478 L 4.360 11.430 L 4.286 11.380 L 4.213 11.330 L 4.140 11.278 L 4.068 11.225 L 3.998 11.171 L 3.928 11.115 L 3.858 11.059 L 3.789 11.003 L 3.716 10.950 L 3.631 10.911 L 3.500 10.917 L 3.290 10.997 L 3.076 11.072 L 2.939 11.064 L 2.850 11.010 L 2.777 10.940 L 2.709 10.865 L 2.644 10.787 L 2.581 10.708 L 2.520 10.628 L 2.460 10.547 L 2.401 10.465 L 2.344 10.381 L 2.288 10.297 L 2.235 10.211 L 2.184 10.124 L 2.140 10.033 L 2.116 9.931 L 2.151 9.798 L 2.288 9.618 L 2.429 9.443 L 2.475 9.321 L 2.465 9.227 L 2.437 9.142 L 2.405 9.058 L 2.373 8.975 L 2.342 8.892 L 2.312 8.807 L 2.284 8.723 L 2.257 8.638 L 2.232 8.552 L 2.207 8.466 L 2.184 8.380 L 2.161 8.294 L 2.134 8.209 L 2.087 8.127 L 1.978 8.055 L 1.761 7.996 L 1.544 7.931 L 1.438 7.844 L 1.397 7.748 L 1.379 7.648 L 1.369 7.548 L 1.362 7.447 L 1.357 7.346 L 1.355 7.245 L 1.354 7.144 L 1.355 7.043 L 1.357 6.942 L 1.362 6.841 L 1.369 6.740 L 1.379 6.639 L 1.397 6.540 L 1.438 6.443 L 1.544 6.357 L 1.761 6.291 L 1.978 6.233 L 2.087 6.161 L 2.134 6.079 L 2.161 5.993 L 2.184 5.907 L 2.207 5.821 L 2.232 5.735 L 2.257 5.650 L 2.284 5.565 L 2.312 5.480 L 2.342 5.396 L 2.373 5.312 L 2.405 5.229 L 2.437 5.146 L 2.465 5.060 L 2.475 4.967 L 2.429 4.844 L 2.288 4.670 L 2.151 4.489 L 2.116 4.357 L 2.140 4.255 L 2.184 4.164 L 2.235 4.076 L 2.288 3.991 L 2.344 3.906 L 2.401 3.823 L 2.460 3.740 L 2.520 3.659 L 2.581 3.579 L 2.644 3.500 L 2.709 3.423 L 2.777 3.348 L 2.850 3.278 L 2.939 3.223 L 3.076 3.216 L 3.290 3.290 L 3.500 3.370 L 3.631 3.376 L 3.716 3.337 L 3.789 3.284 L 3.858 3.228 L 3.928 3.172 L 3.998 3.117 L 4.068 3.063 L 4.140 3.010 L 4.213 2.958 L 4.286 2.907 L 4.360 2.858 L 4.435 2.809 L 4.510 2.760 L 4.583 2.708 L 4.646 2.638 L 4.681 2.512 L 4.670 2.288 L 4.665 2.062 L 4.714 1.934 L 4.794 1.865 L 4.883 1.817 L 4.975 1.777 L 5.069 1.739 L 5.164 1.703 L 5.259 1.669 L 5.355 1.637 L 5.451 1.607 L 5.548 1.578 L 5.645 1.551 L 5.743 1.527 L 5.842 1.506 L 5.942 1.492 L 6.047 1.501 L 6.162 1.575 L 6.291 1.761 L 6.414 1.949 L 6.516 2.031 L 6.608 2.050 L 6.698 2.049 L 6.787 2.045 L 6.876 2.040 L 6.965 2.037 L 7.055 2.034 L 7.144 2.034 L 7.233 2.034 L 7.322 2.037 L 7.411 2.040 L 7.500 2.045 L 7.589 2.049 L 7.679 2.050 L 7.772 2.031 L 7.874 1.949 L 7.996 1.761 L 8.126 1.575 L 8.241 1.501 L 8.345 1.492 L 8.445 1.506 L 8.544 1.527 L 8.642 1.551 L 8.740 1.578 L 8.837 1.607 L 8.933 1.637 L 9.029 1.669 L 9.124 1.703 L 9.219 1.739 L 9.312 1.777 L 9.405 1.817 L 9.494 1.865 L 9.573 1.934 L 9.622 2.062 L 9.618 2.288 L 9.606 2.512 L 9.641 2.638 L 9.705 2.708 L 9.778 2.760 L 9.852 2.809 L 9.927 2.858 L 10.001 2.907 L 10.075 2.958 L 10.147 3.010 L 10.219 3.063 L 10.290 3.117 L 10.360 3.172 L 10.429 3.228 L 10.499 3.284 L 10.571 3.337 L 10.657 3.376 L 10.788 3.370 L 10.997 3.290 L 11.211 3.216 L 11.348 3.223 L 11.438 3.278 L 11.511 3.348 L 11.578 3.423 L 11.643 3.500 L 11.706 3.579 L 11.768 3.659 L 11.828 3.740 L 11.887 3.823 L 11.944 3.906 L 11.999 3.991 L 12.053 4.076 L 12.104 4.164 L 12.148 4.255 L 12.172 4.357 L 12.136 4.489 L 12.000 4.670 L 11.858 4.844 L 11.812 4.967 L 11.823 5.060 L 11.851 5.146 L 11.883 5.229 L 11.915 5.312 L 11.946 5.396 L 11.975 5.480 L 12.004 5.565 L 12.030 5.650 L 12.056 5.735 L 12.080 5.821 L 12.103 5.907 L 12.126 5.993 L 12.154 6.079 L 12.200 6.161 L 12.310 6.233 L 12.527 6.291 L 12.743 6.357 L 12.850 6.443 L 12.890 6.540 L 12.908 6.639 L 12.918 6.740 L 12.925 6.841 L 12.930 6.942 L 12.933 7.043 Z"
     fill="url(#hcFill)"
     id="path2" />
  <g
     id="g1">
    <path
       d="M 11.939 6.125 L 12.309 6.326 L 12.671 6.563 L 12.706 6.852 L 12.714 7.144 L 12.706 7.435 L 12.671 7.725 L 12.309 7.962 L 11.939 8.163"
       fill="none"
       stroke="#55554f"
       stroke-width="0.34"
       stroke-linecap="round"
       opacity="0.30"
       id="path5"
       style="stroke:#1f1f1b;stroke-opacity:1;opacity:1" />
    <path
       d="M 11.622 9.138 L 11.804 9.518 L 11.957 9.923 L 11.815 10.177 L 11.650 10.418 L 11.472 10.649 L 11.274 10.863 L 10.842 10.842 L 10.424 10.787"
       fill="none"
       stroke="#55554f"
       stroke-width="0.34"
       stroke-linecap="round"
       opacity="0.30"
       id="path7"
       style="stroke:#1f1f1b;stroke-opacity:1;opacity:1" />
    <path
       d="M 9.595 11.389 L 9.518 11.804 L 9.404 12.221 L 9.140 12.343 L 8.865 12.441 L 8.585 12.524 L 8.299 12.580 L 7.962 12.309 L 7.656 12.019"
       fill="none"
       stroke="#55554f"
       stroke-width="0.34"
       stroke-linecap="round"
       opacity="0.30"
       id="path9"
       style="stroke:#1f1f1b;stroke-opacity:1;opacity:1" />
    <path
       d="M 6.631 12.019 L 6.326 12.309 L 5.988 12.580 L 5.702 12.524 L 5.423 12.441 L 5.148 12.343 L 4.883 12.221 L 4.769 11.804 L 4.693 11.389"
       fill="none"
       stroke="#55554f"
       stroke-width="0.34"
       stroke-linecap="round"
       opacity="0.30"
       id="path11"
       style="stroke:#1f1f1b;stroke-opacity:1;opacity:1" />
    <path
       d="M 3.864 10.787 L 3.446 10.842 L 3.013 10.863 L 2.815 10.649 L 2.638 10.418 L 2.473 10.177 L 2.330 9.923 L 2.484 9.518 L 2.666 9.138"
       fill="none"
       stroke="#55554f"
       stroke-width="0.34"
       stroke-linecap="round"
       opacity="0.30"
       id="path13"
       style="stroke:#1f1f1b;stroke-opacity:1;opacity:1" />
    <path
       d="M 2.349 8.163 L 1.978 7.962 L 1.616 7.725 L 1.582 7.435 L 1.574 7.144 L 1.582 6.852 L 1.616 6.563 L 1.978 6.326 L 2.349 6.125"
       fill="none"
       stroke="#55554f"
       stroke-width="0.34"
       stroke-linecap="round"
       opacity="0.30"
       id="path15"
       style="stroke:#1f1f1b;stroke-opacity:1;opacity:1" />
    <path
       d="M 2.666 5.150 L 2.484 4.769 L 2.330 4.365 L 2.473 4.110 L 2.638 3.870 L 2.815 3.639 L 3.013 3.425 L 3.446 3.446 L 3.864 3.501"
       fill="none"
       stroke="#55554f"
       stroke-width="0.34"
       stroke-linecap="round"
       opacity="0.30"
       id="path17"
       style="stroke:#1f1f1b;stroke-opacity:1;opacity:1" />
    <path
       d="M 7.656 2.269 L 7.962 1.978 L 8.299 1.707 L 8.585 1.764 L 8.865 1.846 L 9.140 1.944 L 9.404 2.066 L 9.518 2.484 L 9.595 2.898"
       fill="none"
       stroke="#55554f"
       stroke-width="0.34"
       stroke-linecap="round"
       opacity="0.30"
       id="path21"
       style="stroke:#1f1f1b;stroke-opacity:1;opacity:1" />
    <path
       d="M 10.424 3.501 L 10.842 3.446 L 11.274 3.425 L 11.472 3.639 L 11.650 3.870 L 11.815 4.110 L 11.957 4.365 L 11.804 4.769 L 11.622 5.150"
       fill="none"
       stroke="#55554f"
       stroke-width="0.34"
       stroke-linecap="round"
       opacity="0.30"
       id="path23"
       style="stroke:#1f1f1b;stroke-opacity:1;opacity:1" />
    <path
       d="M 4.693 2.898 L 4.769 2.484 L 4.883 2.066 L 5.148 1.944 L 5.423 1.846 L 5.702 1.764 L 5.988 1.707 L 6.326 1.978 L 6.631 2.269"
       fill="none"
       stroke="#55554f"
       stroke-width="0.34"
       stroke-linecap="round"
       opacity="0.30"
       id="path19"
       style="stroke:#1f1f1b;stroke-opacity:1;opacity:1" />
  </g>
  <path
     d="M 12.934 7.144 L 12.933 7.245 L 12.930 7.346 L 12.925 7.447 L 12.918 7.548 L 12.908 7.648 L 12.890 7.748 L 12.850 7.844 L 12.743 7.931 L 12.527 7.996 L 12.310 8.055 L 12.200 8.127 L 12.154 8.209 L 12.126 8.294 L 12.103 8.380 L 12.080 8.466 L 12.056 8.552 L 12.030 8.638 L 12.004 8.723 L 11.975 8.807 L 11.946 8.892 L 11.915 8.975 L 11.883 9.058 L 11.851 9.142 L 11.823 9.227 L 11.812 9.321 L 11.858 9.443 L 12.000 9.618 L 12.136 9.798 L 12.172 9.931 L 12.148 10.033 L 12.104 10.124 L 12.053 10.211 L 11.999 10.297 L 11.944 10.381 L 11.887 10.465 L 11.828 10.547 L 11.768 10.628 L 11.706 10.708 L 11.643 10.787 L 11.578 10.865 L 11.511 10.940 L 11.438 11.010 L 11.348 11.064 L 11.211 11.072 L 10.997 10.997 L 10.788 10.917 L 10.657 10.911 L 10.571 10.950 L 10.499 11.003 L 10.429 11.059 L 10.360 11.115 L 10.290 11.171 L 10.219 11.225 L 10.147 11.278 L 10.075 11.330 L 10.001 11.380 L 9.927 11.430 L 9.852 11.478 L 9.778 11.527 L 9.705 11.580 L 9.641 11.649 L 9.606 11.775 L 9.618 12.000 L 9.622 12.226 L 9.573 12.354 L 9.494 12.422 L 9.405 12.470 L 9.312 12.511 L 9.219 12.549 L 9.124 12.584 L 9.029 12.618 L 8.933 12.650 L 8.837 12.681 L 8.740 12.709 L 8.642 12.736 L 8.544 12.761 L 8.445 12.782 L 8.345 12.795 L 8.241 12.787 L 8.126 12.712 L 7.996 12.527 L 7.874 12.338 L 7.772 12.257 L 7.679 12.238 L 7.589 12.238 L 7.500 12.243 L 7.411 12.247 L 7.322 12.251 L 7.233 12.253 L 7.144 12.254 L 7.055 12.253 L 6.965 12.251 L 6.876 12.247 L 6.787 12.243 L 6.698 12.238 L 6.608 12.238 L 6.516 12.257 L 6.414 12.338 L 6.291 12.527 L 6.162 12.712 L 6.047 12.787 L 5.942 12.795 L 5.842 12.782 L 5.743 12.761 L 5.645 12.736 L 5.548 12.709 L 5.451 12.681 L 5.355 12.650 L 5.259 12.618 L 5.164 12.584 L 5.069 12.549 L 4.975 12.511 L 4.883 12.470 L 4.794 12.422 L 4.714 12.354 L 4.665 12.226 L 4.670 12.000 L 4.681 11.775 L 4.646 11.649 L 4.583 11.580 L 4.510 11.527 L 4.435 11.478 L 4.360 11.430 L 4.286 11.380 L 4.213 11.330 L 4.140 11.278 L 4.068 11.225 L 3.998 11.171 L 3.928 11.115 L 3.858 11.059 L 3.789 11.003 L 3.716 10.950 L 3.631 10.911 L 3.500 10.917 L 3.290 10.997 L 3.076 11.072 L 2.939 11.064 L 2.850 11.010 L 2.777 10.940 L 2.709 10.865 L 2.644 10.787 L 2.581 10.708 L 2.520 10.628 L 2.460 10.547 L 2.401 10.465 L 2.344 10.381 L 2.288 10.297 L 2.235 10.211 L 2.184 10.124 L 2.140 10.033 L 2.116 9.931 L 2.151 9.798 L 2.288 9.618 L 2.429 9.443 L 2.475 9.321 L 2.465 9.227 L 2.437 9.142 L 2.405 9.058 L 2.373 8.975 L 2.342 8.892 L 2.312 8.807 L 2.284 8.723 L 2.257 8.638 L 2.232 8.552 L 2.207 8.466 L 2.184 8.380 L 2.161 8.294 L 2.134 8.209 L 2.087 8.127 L 1.978 8.055 L 1.761 7.996 L 1.544 7.931 L 1.438 7.844 L 1.397 7.748 L 1.379 7.648 L 1.369 7.548 L 1.362 7.447 L 1.357 7.346 L 1.355 7.245 L 1.354 7.144 L 1.355 7.043 L 1.357 6.942 L 1.362 6.841 L 1.369 6.740 L 1.379 6.639 L 1.397 6.540 L 1.438 6.443 L 1.544 6.357 L 1.761 6.291 L 1.978 6.233 L 2.087 6.161 L 2.134 6.079 L 2.161 5.993 L 2.184 5.907 L 2.207 5.821 L 2.232 5.735 L 2.257 5.650 L 2.284 5.565 L 2.312 5.480 L 2.342 5.396 L 2.373 5.312 L 2.405 5.229 L 2.437 5.146 L 2.465 5.060 L 2.475 4.967 L 2.429 4.844 L 2.288 4.670 L 2.151 4.489 L 2.116 4.357 L 2.140 4.255 L 2.184 4.164 L 2.235 4.076 L 2.288 3.991 L 2.344 3.906 L 2.401 3.823 L 2.460 3.740 L 2.520 3.659 L 2.581 3.579 L 2.644 3.500 L 2.709 3.423 L 2.777 3.348 L 2.850 3.278 L 2.939 3.223 L 3.076 3.216 L 3.290 3.290 L 3.500 3.370 L 3.631 3.376 L 3.716 3.337 L 3.789 3.284 L 3.858 3.228 L 3.928 3.172 L 3.998 3.117 L 4.068 3.063 L 4.140 3.010 L 4.213 2.958 L 4.286 2.907 L 4.360 2.858 L 4.435 2.809 L 4.510 2.760 L 4.583 2.708 L 4.646 2.638 L 4.681 2.512 L 4.670 2.288 L 4.665 2.062 L 4.714 1.934 L 4.794 1.865 L 4.883 1.817 L 4.975 1.777 L 5.069 1.739 L 5.164 1.703 L 5.259 1.669 L 5.355 1.637 L 5.451 1.607 L 5.548 1.578 L 5.645 1.551 L 5.743 1.527 L 5.842 1.506 L 5.942 1.492 L 6.047 1.501 L 6.162 1.575 L 6.291 1.761 L 6.414 1.949 L 6.516 2.031 L 6.608 2.050 L 6.698 2.049 L 6.787 2.045 L 6.876 2.040 L 6.965 2.037 L 7.055 2.034 L 7.144 2.034 L 7.233 2.034 L 7.322 2.037 L 7.411 2.040 L 7.500 2.045 L 7.589 2.049 L 7.679 2.050 L 7.772 2.031 L 7.874 1.949 L 7.996 1.761 L 8.126 1.575 L 8.241 1.501 L 8.345 1.492 L 8.445 1.506 L 8.544 1.527 L 8.642 1.551 L 8.740 1.578 L 8.837 1.607 L 8.933 1.637 L 9.029 1.669 L 9.124 1.703 L 9.219 1.739 L 9.312 1.777 L 9.405 1.817 L 9.494 1.865 L 9.573 1.934 L 9.622 2.062 L 9.618 2.288 L 9.606 2.512 L 9.641 2.638 L 9.705 2.708 L 9.778 2.760 L 9.852 2.809 L 9.927 2.858 L 10.001 2.907 L 10.075 2.958 L 10.147 3.010 L 10.219 3.063 L 10.290 3.117 L 10.360 3.172 L 10.429 3.228 L 10.499 3.284 L 10.571 3.337 L 10.657 3.376 L 10.788 3.370 L 10.997 3.290 L 11.211 3.216 L 11.348 3.223 L 11.438 3.278 L 11.511 3.348 L 11.578 3.423 L 11.643 3.500 L 11.706 3.579 L 11.768 3.659 L 11.828 3.740 L 11.887 3.823 L 11.944 3.906 L 11.999 3.991 L 12.053 4.076 L 12.104 4.164 L 12.148 4.255 L 12.172 4.357 L 12.136 4.489 L 12.000 4.670 L 11.858 4.844 L 11.812 4.967 L 11.823 5.060 L 11.851 5.146 L 11.883 5.229 L 11.915 5.312 L 11.946 5.396 L 11.975 5.480 L 12.004 5.565 L 12.030 5.650 L 12.056 5.735 L 12.080 5.821 L 12.103 5.907 L 12.126 5.993 L 12.154 6.079 L 12.200 6.161 L 12.310 6.233 L 12.527 6.291 L 12.743 6.357 L 12.850 6.443 L 12.890 6.540 L 12.908 6.639 L 12.918 6.740 L 12.925 6.841 L 12.930 6.942 L 12.933 7.043 Z"
     fill="none"
     stroke="#050505"
     stroke-width="0.12"
     id="path3" />
  <path
     d="M 12.644 7.144 L 12.643 7.240 L 12.641 7.336 L 12.636 7.432 L 12.630 7.527 L 12.620 7.623 L 12.603 7.718 L 12.564 7.809 L 12.463 7.891 L 12.258 7.954 L 12.051 8.009 L 11.947 8.077 L 11.903 8.155 L 11.877 8.237 L 11.855 8.318 L 11.833 8.400 L 11.810 8.482 L 11.786 8.563 L 11.761 8.644 L 11.734 8.724 L 11.706 8.804 L 11.676 8.884 L 11.646 8.963 L 11.616 9.042 L 11.589 9.123 L 11.579 9.212 L 11.623 9.328 L 11.757 9.494 L 11.887 9.666 L 11.920 9.791 L 11.897 9.888 L 11.856 9.975 L 11.807 10.058 L 11.757 10.139 L 11.704 10.220 L 11.649 10.299 L 11.594 10.377 L 11.537 10.454 L 11.478 10.530 L 11.418 10.605 L 11.356 10.679 L 11.292 10.750 L 11.223 10.817 L 11.138 10.868 L 11.008 10.875 L 10.805 10.805 L 10.605 10.728 L 10.481 10.723 L 10.400 10.760 L 10.331 10.810 L 10.265 10.863 L 10.199 10.917 L 10.133 10.969 L 10.065 11.021 L 9.997 11.071 L 9.928 11.120 L 9.858 11.168 L 9.788 11.215 L 9.717 11.262 L 9.646 11.308 L 9.577 11.358 L 9.516 11.424 L 9.483 11.544 L 9.494 11.757 L 9.499 11.972 L 9.452 12.093 L 9.376 12.158 L 9.292 12.204 L 9.204 12.243 L 9.115 12.279 L 9.025 12.312 L 8.935 12.345 L 8.843 12.375 L 8.752 12.404 L 8.660 12.431 L 8.567 12.456 L 8.474 12.480 L 8.380 12.500 L 8.285 12.513 L 8.186 12.505 L 8.077 12.434 L 7.954 12.258 L 7.837 12.079 L 7.740 12.001 L 7.652 11.983 L 7.567 11.983 L 7.482 11.988 L 7.398 11.992 L 7.313 11.995 L 7.228 11.998 L 7.144 11.998 L 7.059 11.998 L 6.974 11.995 L 6.890 11.992 L 6.805 11.988 L 6.720 11.983 L 6.635 11.983 L 6.547 12.001 L 6.450 12.079 L 6.334 12.258 L 6.211 12.434 L 6.102 12.505 L 6.003 12.513 L 5.907 12.500 L 5.813 12.480 L 5.720 12.456 L 5.628 12.431 L 5.536 12.404 L 5.444 12.375 L 5.353 12.345 L 5.263 12.312 L 5.173 12.279 L 5.084 12.243 L 4.996 12.204 L 4.911 12.158 L 4.836 12.093 L 4.789 11.972 L 4.793 11.757 L 4.804 11.544 L 4.771 11.424 L 4.711 11.358 L 4.642 11.308 L 4.571 11.262 L 4.500 11.215 L 4.429 11.168 L 4.359 11.120 L 4.290 11.071 L 4.222 11.021 L 4.155 10.969 L 4.088 10.917 L 4.023 10.863 L 3.957 10.810 L 3.888 10.760 L 3.806 10.723 L 3.682 10.728 L 3.483 10.805 L 3.280 10.875 L 3.150 10.868 L 3.065 10.817 L 2.995 10.750 L 2.931 10.679 L 2.869 10.605 L 2.809 10.530 L 2.751 10.454 L 2.694 10.377 L 2.638 10.299 L 2.584 10.220 L 2.531 10.139 L 2.480 10.058 L 2.432 9.975 L 2.390 9.888 L 2.367 9.791 L 2.401 9.666 L 2.531 9.494 L 2.665 9.328 L 2.709 9.212 L 2.699 9.123 L 2.672 9.042 L 2.642 8.963 L 2.611 8.884 L 2.582 8.804 L 2.554 8.724 L 2.527 8.644 L 2.501 8.563 L 2.477 8.482 L 2.454 8.400 L 2.432 8.318 L 2.410 8.237 L 2.384 8.155 L 2.340 8.077 L 2.236 8.009 L 2.030 7.954 L 1.824 7.891 L 1.723 7.809 L 1.685 7.718 L 1.668 7.623 L 1.658 7.527 L 1.651 7.432 L 1.647 7.336 L 1.644 7.240 L 1.643 7.144 L 1.644 7.048 L 1.647 6.952 L 1.651 6.856 L 1.658 6.760 L 1.668 6.665 L 1.685 6.570 L 1.723 6.478 L 1.824 6.396 L 2.030 6.334 L 2.236 6.278 L 2.340 6.210 L 2.384 6.132 L 2.410 6.051 L 2.432 5.969 L 2.454 5.887 L 2.477 5.806 L 2.501 5.724 L 2.527 5.644 L 2.554 5.563 L 2.582 5.483 L 2.611 5.404 L 2.642 5.325 L 2.672 5.246 L 2.699 5.165 L 2.709 5.076 L 2.665 4.959 L 2.531 4.793 L 2.401 4.622 L 2.367 4.496 L 2.390 4.399 L 2.432 4.313 L 2.480 4.230 L 2.531 4.148 L 2.584 4.068 L 2.638 3.989 L 2.694 3.911 L 2.751 3.833 L 2.809 3.757 L 2.869 3.682 L 2.931 3.609 L 2.995 3.537 L 3.065 3.471 L 3.150 3.419 L 3.280 3.412 L 3.483 3.483 L 3.682 3.559 L 3.806 3.565 L 3.888 3.528 L 3.957 3.477 L 4.023 3.424 L 4.088 3.371 L 4.155 3.318 L 4.222 3.267 L 4.290 3.216 L 4.359 3.167 L 4.429 3.119 L 4.500 3.072 L 4.571 3.026 L 4.642 2.980 L 4.711 2.930 L 4.771 2.864 L 4.804 2.744 L 4.793 2.531 L 4.789 2.316 L 4.836 2.194 L 4.911 2.129 L 4.996 2.084 L 5.084 2.045 L 5.173 2.009 L 5.263 1.975 L 5.353 1.943 L 5.444 1.912 L 5.536 1.884 L 5.628 1.856 L 5.720 1.831 L 5.813 1.808 L 5.907 1.788 L 6.003 1.775 L 6.102 1.783 L 6.211 1.854 L 6.334 2.030 L 6.450 2.209 L 6.547 2.287 L 6.635 2.304 L 6.720 2.304 L 6.805 2.300 L 6.890 2.295 L 6.974 2.292 L 7.059 2.290 L 7.144 2.289 L 7.228 2.290 L 7.313 2.292 L 7.398 2.295 L 7.482 2.300 L 7.567 2.304 L 7.652 2.304 L 7.740 2.287 L 7.837 2.209 L 7.954 2.030 L 8.077 1.854 L 8.186 1.783 L 8.285 1.775 L 8.380 1.788 L 8.474 1.808 L 8.567 1.831 L 8.660 1.856 L 8.752 1.884 L 8.843 1.912 L 8.935 1.943 L 9.025 1.975 L 9.115 2.009 L 9.204 2.045 L 9.292 2.084 L 9.376 2.129 L 9.452 2.194 L 9.499 2.316 L 9.494 2.531 L 9.483 2.744 L 9.516 2.864 L 9.577 2.930 L 9.646 2.980 L 9.717 3.026 L 9.788 3.072 L 9.858 3.119 L 9.928 3.167 L 9.997 3.216 L 10.065 3.267 L 10.133 3.318 L 10.199 3.371 L 10.265 3.424 L 10.331 3.477 L 10.400 3.528 L 10.481 3.565 L 10.605 3.559 L 10.805 3.483 L 11.008 3.412 L 11.138 3.419 L 11.223 3.471 L 11.292 3.537 L 11.356 3.609 L 11.418 3.682 L 11.478 3.757 L 11.537 3.833 L 11.594 3.911 L 11.649 3.989 L 11.704 4.068 L 11.757 4.148 L 11.807 4.230 L 11.856 4.313 L 11.897 4.399 L 11.920 4.496 L 11.887 4.622 L 11.757 4.793 L 11.623 4.959 L 11.579 5.076 L 11.589 5.165 L 11.616 5.246 L 11.646 5.325 L 11.676 5.404 L 11.706 5.483 L 11.734 5.563 L 11.761 5.644 L 11.786 5.724 L 11.810 5.806 L 11.833 5.887 L 11.855 5.969 L 11.877 6.051 L 11.903 6.132 L 11.947 6.210 L 12.051 6.278 L 12.258 6.334 L 12.463 6.396 L 12.564 6.478 L 12.603 6.570 L 12.620 6.665 L 12.630 6.760 L 12.636 6.856 L 12.641 6.952 L 12.643 7.048 Z"
     fill="none"
     stroke="#0a0a0a"
     stroke-width="0.42"
     opacity="0.24"
     id="path4" />
  <path
     d="M 12.029 8.272 L 12.001 8.377 L 11.972 8.483 L 11.941 8.588 L 11.909 8.692 L 11.874 8.796 L 11.837 8.898 L 11.798 9.001 L 11.759 9.103"
     fill="none"
     stroke="#080808"
     stroke-width="0.30"
     stroke-linecap="round"
     opacity="0.36"
     id="path6" />
  <path
     d="M 10.433 10.928 L 10.348 10.996 L 10.263 11.065 L 10.176 11.132 L 10.089 11.197 L 9.999 11.260 L 9.909 11.322 L 9.818 11.382 L 9.726 11.441"
     fill="none"
     stroke="#080808"
     stroke-width="0.30"
     stroke-linecap="round"
     opacity="0.36"
     id="path8" />
  <path
     d="M 7.581 12.138 L 7.471 12.144 L 7.362 12.149 L 7.253 12.153 L 7.144 12.154 L 7.034 12.153 L 6.925 12.149 L 6.816 12.144 L 6.707 12.138"
     fill="none"
     stroke="#080808"
     stroke-width="0.30"
     stroke-linecap="round"
     opacity="0.36"
     id="path10" />
  <path
     d="M 4.561 11.441 L 4.470 11.382 L 4.378 11.322 L 4.288 11.260 L 4.199 11.197 L 4.111 11.132 L 4.025 11.065 L 3.940 10.996 L 3.854 10.928"
     fill="none"
     stroke="#080808"
     stroke-width="0.30"
     stroke-linecap="round"
     opacity="0.36"
     id="path12" />
  <path
     d="M 2.529 9.103 L 2.490 9.001 L 2.451 8.898 L 2.414 8.796 L 2.379 8.692 L 2.346 8.588 L 2.316 8.483 L 2.287 8.377 L 2.259 8.272"
     fill="none"
     stroke="#080808"
     stroke-width="0.30"
     stroke-linecap="round"
     opacity="0.36"
     id="path14" />
  <path
     d="M 2.259 6.016 L 2.287 5.910 L 2.316 5.805 L 2.346 5.700 L 2.379 5.596 L 2.414 5.492 L 2.451 5.389 L 2.490 5.287 L 2.529 5.185"
     fill="none"
     stroke="#080808"
     stroke-width="0.30"
     stroke-linecap="round"
     opacity="0.36"
     id="path16" />
  <path
     d="M 3.854 3.360 L 3.940 3.291 L 4.025 3.223 L 4.111 3.156 L 4.199 3.091 L 4.288 3.027 L 4.378 2.966 L 4.470 2.906 L 4.561 2.846"
     fill="none"
     stroke="#080808"
     stroke-width="0.30"
     stroke-linecap="round"
     opacity="0.36"
     id="path18" />
  <path
     d="M 6.707 2.149 L 6.816 2.144 L 6.925 2.138 L 7.034 2.135 L 7.144 2.134 L 7.253 2.135 L 7.362 2.138 L 7.471 2.144 L 7.581 2.149"
     fill="none"
     stroke="#080808"
     stroke-width="0.30"
     stroke-linecap="round"
     opacity="0.36"
     id="path20" />
  <path
     d="M 9.726 2.846 L 9.818 2.906 L 9.909 2.966 L 9.999 3.027 L 10.089 3.091 L 10.176 3.156 L 10.263 3.223 L 10.348 3.291 L 10.433 3.360"
     fill="none"
     stroke="#080808"
     stroke-width="0.30"
     stroke-linecap="round"
     opacity="0.36"
     id="path22" />
  <path
     d="M 11.759 5.185 L 11.798 5.287 L 11.837 5.389 L 11.874 5.492 L 11.909 5.596 L 11.941 5.700 L 11.972 5.805 L 12.001 5.910 L 12.029 6.016"
     fill="none"
     stroke="#080808"
     stroke-width="0.30"
     stroke-linecap="round"
     opacity="0.36"
     id="path24" />
  <circle
     cx="7.143750"
     cy="7.143750"
     r="3.70"
     fill="none"
     stroke="#080808"
     stroke-width="0.38"
     opacity="0.85"
     id="circle24" />
  <circle
     cx="7.143750"
     cy="7.143750"
     r="2.95"
     fill="#1b1b1a"
     id="circle25" />
  <circle
     cx="7.1962171"
     cy="0.83523363"
     r="0.37401831"
     fill="#0a0a0a"
     opacity="0.7"
     id="circle26"
     style="stroke-width:1.24673" />
  <circle
     cx="7.1338811"
     cy="0.78536457"
     r="0.33661649"
     fill="#e8e0ce"
     id="circle27"
     style="stroke-width:1.24673" />
  <line
     x1="4.00"
     y1="12.37"
     x2="3.68"
     y2="12.90"
     stroke="#d8cdb0"
     stroke-width="0.17"
     stroke-linecap="round"
     opacity="0.85"
     id="line27"
     style="opacity:0.39678616" />
  <line
     x1="2.62"
     y1="11.53"
     x2="2.35"
     y2="11.79"
     stroke="#d8cdb0"
     stroke-width="0.10"
     stroke-linecap="round"
     opacity="0.55"
     id="line28"
     style="opacity:0.39678616" />
  <line
     x1="1.82"
     y1="10.12"
     x2="1.28"
     y2="10.42"
     stroke="#d8cdb0"
     stroke-width="0.17"
     stroke-linecap="round"
     opacity="0.85"
     id="line29"
     style="opacity:0.39678616" />
  <line
     x1="1.04"
     y1="8.70"
     x2="0.67"
     y2="8.79"
     stroke="#d8cdb0"
     stroke-width="0.10"
     stroke-linecap="round"
     opacity="0.55"
     id="line30"
     style="opacity:0.39678616" />
  <line
     x1="1.04"
     y1="7.08"
     x2="0.42"
     y2="7.07"
     stroke="#d8cdb0"
     stroke-width="0.17"
     stroke-linecap="round"
     opacity="0.85"
     id="line31"
     style="opacity:0.39678616" />
  <line
     x1="1.07"
     y1="5.46"
     x2="0.71"
     y2="5.36"
     stroke="#d8cdb0"
     stroke-width="0.10"
     stroke-linecap="round"
     opacity="0.55"
     id="line32"
     style="opacity:0.39678616" />
  <line
     x1="1.88"
     y1="4.06"
     x2="1.35"
     y2="3.74"
     stroke="#d8cdb0"
     stroke-width="0.17"
     stroke-linecap="round"
     opacity="0.85"
     id="line33"
     style="opacity:0.39678616" />
  <line
     x1="2.71"
     y1="2.67"
     x2="2.45"
     y2="2.40"
     stroke="#d8cdb0"
     stroke-width="0.10"
     stroke-linecap="round"
     opacity="0.55"
     id="line34"
     style="opacity:0.39678616" />
  <line
     x1="4.11"
     y1="1.85"
     x2="3.80"
     y2="1.31"
     stroke="#d8cdb0"
     stroke-width="0.17"
     stroke-linecap="round"
     opacity="0.85"
     id="line35"
     style="opacity:0.39678616" />
  <line
     x1="5.52"
     y1="1.06"
     x2="5.43"
     y2="0.69"
     stroke="#d8cdb0"
     stroke-width="0.10"
     stroke-linecap="round"
     opacity="0.55"
     id="line36"
     style="opacity:0.39678616" />
  <line
     x1="8.76"
     y1="1.06"
     x2="8.86"
     y2="0.69"
     stroke="#d8cdb0"
     stroke-width="0.10"
     stroke-linecap="round"
     opacity="0.55"
     id="line38"
     style="opacity:0.39678616" />
  <line
     x1="10.18"
     y1="1.85"
     x2="10.48"
     y2="1.31"
     stroke="#d8cdb0"
     stroke-width="0.17"
     stroke-linecap="round"
     opacity="0.85"
     id="line39"
     style="opacity:0.39678616" />
  <line
     x1="11.58"
     y1="2.67"
     x2="11.84"
     y2="2.40"
     stroke="#d8cdb0"
     stroke-width="0.10"
     stroke-linecap="round"
     opacity="0.55"
     id="line40"
     style="opacity:0.39678616" />
  <line
     x1="12.41"
     y1="4.06"
     x2="12.94"
     y2="3.74"
     stroke="#d8cdb0"
     stroke-width="0.17"
     stroke-linecap="round"
     opacity="0.85"
     id="line41"
     style="opacity:0.39678616" />
  <line
     x1="13.21"
     y1="5.46"
     x2="13.58"
     y2="5.36"
     stroke="#d8cdb0"
     stroke-width="0.10"
     stroke-linecap="round"
     opacity="0.55"
     id="line42"
     style="opacity:0.39678616" />
  <line
     x1="13.24"
     y1="7.08"
     x2="13.86"
     y2="7.07"
     stroke="#d8cdb0"
     stroke-width="0.17"
     stroke-linecap="round"
     opacity="0.85"
     id="line43"
     style="opacity:0.39678616" />
  <line
     x1="13.25"
     y1="8.70"
     x2="13.62"
     y2="8.79"
     stroke="#d8cdb0"
     stroke-width="0.10"
     stroke-linecap="round"
     opacity="0.55"
     id="line44"
     style="opacity:0.39678616" />
  <line
     x1="12.47"
     y1="10.12"
     x2="13.01"
     y2="10.42"
     stroke="#d8cdb0"
     stroke-width="0.17"
     stroke-linecap="round"
     opacity="0.85"
     id="line45"
     style="opacity:0.39678616" />
  <line
     x1="11.67"
     y1="11.53"
     x2="11.94"
     y2="11.79"
     stroke="#d8cdb0"
     stroke-width="0.10"
     stroke-linecap="round"
     opacity="0.55"
     id="line46"
     style="opacity:0.39678616" />
  <line
     x1="10.29"
     y1="12.37"
     x2="10.60"
     y2="12.90"
     stroke="#d8cdb0"
     stroke-width="0.17"
     stroke-linecap="round"
     opacity="0.85"
     id="line47"
     style="opacity:0.39678616" />
</svg>
