<svg width="18" height="12" viewBox="0 0 18 12" xmlns="http://www.w3.org/2000/svg">
<defs><radialGradient id="slCapH" cx="0.38" cy="0.30" r="1.0"><stop offset="0" stop-color="#34342f"/><stop offset="1" stop-color="#0f0f0e"/></radialGradient>
<linearGradient id="slWH" x1="0.1" y1="0" x2="0.9" y2="1"><stop offset="0" stop-color="#ffffff" stop-opacity="0.13"/><stop offset="1" stop-color="#ffffff" stop-opacity="0"/></linearGradient>
<linearGradient id="slBH" x1="0.1" y1="0" x2="0.9" y2="1"><stop offset="0" stop-color="#000000" stop-opacity="0"/><stop offset="1" stop-color="#000000" stop-opacity="0.35"/></linearGradient></defs>
<rect x="0.6" y="0.9" width="16.9" height="10.6" rx="1.8" fill="#000000" opacity="0.35"/>
<rect x="0.4" y="0.5" width="17.0" height="10.8" rx="1.8" fill="url(#slCapH)" stroke="#060606" stroke-width="0.25"/>
<rect x="0.4" y="0.5" width="17.0" height="10.8" rx="1.8" fill="url(#slWH)"/>
<rect x="0.4" y="0.5" width="17.0" height="10.8" rx="1.8" fill="url(#slBH)"/>
<line x1="1.2" y1="1.2" x2="16.6" y2="1.2" stroke="#8f887a" stroke-width="0.3" opacity="0.6"/>
<line x1="3.58" y1="1.6" x2="3.58" y2="10.2" stroke="#080808" stroke-width="0.55" stroke-linecap="round" opacity="0.8"/>
<line x1="3.20" y1="1.6" x2="3.20" y2="10.2" stroke="#5a5a54" stroke-width="0.32" stroke-linecap="round" opacity="0.72"/>
<line x1="5.78" y1="1.6" x2="5.78" y2="10.2" stroke="#080808" stroke-width="0.55" stroke-linecap="round" opacity="0.8"/>
<line x1="5.40" y1="1.6" x2="5.40" y2="10.2" stroke="#5a5a54" stroke-width="0.32" stroke-linecap="round" opacity="0.62"/>
<line x1="12.98" y1="1.6" x2="12.98" y2="10.2" stroke="#080808" stroke-width="0.55" stroke-linecap="round" opacity="0.8"/>
<line x1="12.60" y1="1.6" x2="12.60" y2="10.2" stroke="#5a5a54" stroke-width="0.32" stroke-linecap="round" opacity="0.52"/>
<line x1="15.18" y1="1.6" x2="15.18" y2="10.2" stroke="#080808" stroke-width="0.55" stroke-linecap="round" opacity="0.8"/>
<line x1="14.80" y1="1.6" x2="14.80" y2="10.2" stroke="#5a5a54" stroke-width="0.32" stroke-linecap="round" opacity="0.42"/>
<rect x="7.9" y="0.9" width="2.6" height="10.0" fill="#0a0a0a" opacity="0.6"/>
<rect x="8.1" y="1.0" width="2.1" height="9.8" fill="#e8e0ce"/>
<rect x="8.1" y="1.0" width="0.6" height="9.8" fill="#ffffff" opacity="0.25"/>
</svg>
