<svg width="200" height="12" viewBox="0 0 200 12" xmlns="http://www.w3.org/2000/svg">
<defs><linearGradient id="slSlotH" x1="0" y1="0" x2="0" y2="1"><stop offset="0" stop-color="#0a0908"/><stop offset="1" stop-color="#26231e"/></linearGradient><linearGradient id="gSlotShH" x1="0" y1="0" x2="0" y2="1"><stop offset="0" stop-color="#060505" stop-opacity="0.80"/><stop offset="1" stop-color="#060505" stop-opacity="0"/></linearGradient></defs>
<rect x="4" y="3.0" width="192" height="6.0" rx="2.6" fill="url(#slSlotH)" stroke="#0d0b08" stroke-width="0.5"/>
<rect x="4.5" y="3.0" width="191" height="6.0" rx="0.9" fill="url(#gSlotShH)"/>
<line x1="6" y1="8.5" x2="194" y2="8.5" stroke="#6f6753" stroke-width="0.4" opacity="0.75"/>
<line x1="5" y1="3.25" x2="195" y2="3.25" stroke="#000000" stroke-width="0.4" opacity="0.7"/>
<line x1="6.00" y1="10.2" x2="6.00" y2="11.9" stroke="#d8cdb0" stroke-width="0.45" stroke-linecap="round" opacity="0.85"/>
<line x1="24.80" y1="10.2" x2="24.80" y2="11.3" stroke="#d8cdb0" stroke-width="0.3" stroke-linecap="round" opacity="0.5"/>
<line x1="43.60" y1="10.2" x2="43.60" y2="11.3" stroke="#d8cdb0" stroke-width="0.3" stroke-linecap="round" opacity="0.5"/>
<line x1="62.40" y1="10.2" x2="62.40" y2="11.3" stroke="#d8cdb0" stroke-width="0.3" stroke-linecap="round" opacity="0.5"/>
<line x1="81.20" y1="10.2" x2="81.20" y2="11.3" stroke="#d8cdb0" stroke-width="0.3" stroke-linecap="round" opacity="0.5"/>
<line x1="100.00" y1="10.2" x2="100.00" y2="11.9" stroke="#d8cdb0" stroke-width="0.45" stroke-linecap="round" opacity="0.85"/>
<line x1="118.80" y1="10.2" x2="118.80" y2="11.3" stroke="#d8cdb0" stroke-width="0.3" stroke-linecap="round" opacity="0.5"/>
<line x1="137.60" y1="10.2" x2="137.60" y2="11.3" stroke="#d8cdb0" stroke-width="0.3" stroke-linecap="round" opacity="0.5"/>
<line x1="156.40" y1="10.2" x2="156.40" y2="11.3" stroke="#d8cdb0" stroke-width="0.3" stroke-linecap="round" opacity="0.5"/>
<line x1="175.20" y1="10.2" x2="175.20" y2="11.3" stroke="#d8cdb0" stroke-width="0.3" stroke-linecap="round" opacity="0.5"/>
<line x1="194.00" y1="10.2" x2="194.00" y2="11.9" stroke="#d8cdb0" stroke-width="0.45" stroke-linecap="round" opacity="0.85"/>
</svg>
