<svg width="18" height="90" viewBox="0 0 18 90" xmlns="http://www.w3.org/2000/svg">
<defs>
<linearGradient id="slSlot" x1="0" y1="0" x2="1" y2="0"><stop offset="0" stop-color="#0a0908"/><stop offset="1" stop-color="#26231e"/></linearGradient>
<linearGradient id="gSlotSh" x1="0" y1="0" x2="1" y2="0"><stop offset="0" stop-color="#060505" stop-opacity="0.80"/><stop offset="1" stop-color="#060505" stop-opacity="0"/></linearGradient></defs>
<rect x="6.0" y="4" width="6.0" height="82" rx="2.6" fill="url(#slSlot)" stroke="#0d0b08" stroke-width="0.5"/>
<rect x="6.0" y="4.5" width="6.0" height="81" rx="0.9" fill="url(#gSlotSh)"/>
<line x1="11.50" y1="6" x2="11.50" y2="84" stroke="#6f6753" stroke-width="0.4" opacity="0.75"/>
<line x1="6.25" y1="5" x2="6.25" y2="85" stroke="#000000" stroke-width="0.4" opacity="0.7"/>
<line x1="13.2" y1="6.00" x2="15.2" y2="6.00" stroke="#d8cdb0" stroke-width="0.45" stroke-linecap="round" opacity="0.85"/>
<line x1="13.2" y1="13.80" x2="14.2" y2="13.80" stroke="#d8cdb0" stroke-width="0.3" stroke-linecap="round" opacity="0.5"/>
<line x1="13.2" y1="21.60" x2="14.2" y2="21.60" stroke="#d8cdb0" stroke-width="0.3" stroke-linecap="round" opacity="0.5"/>
<line x1="13.2" y1="29.40" x2="14.2" y2="29.40" stroke="#d8cdb0" stroke-width="0.3" stroke-linecap="round" opacity="0.5"/>
<line x1="13.2" y1="37.20" x2="14.2" y2="37.20" stroke="#d8cdb0" stroke-width="0.3" stroke-linecap="round" opacity="0.5"/>
<line x1="13.2" y1="45.00" x2="15.2" y2="45.00" stroke="#d8cdb0" stroke-width="0.45" stroke-linecap="round" opacity="0.85"/>
<line x1="13.2" y1="52.80" x2="14.2" y2="52.80" stroke="#d8cdb0" stroke-width="0.3" stroke-linecap="round" opacity="0.5"/>
<line x1="13.2" y1="60.60" x2="14.2" y2="60.60" stroke="#d8cdb0" stroke-width="0.3" stroke-linecap="round" opacity="0.5"/>
<line x1="13.2" y1="68.40" x2="14.2" y2="68.40" stroke="#d8cdb0" stroke-width="0.3" stroke-linecap="round" opacity="0.5"/>
<line x1="13.2" y1="76.20" x2="14.2" y2="76.20" stroke="#d8cdb0" stroke-width="0.3" stroke-linecap="round" opacity="0.5"/>
<line x1="13.2" y1="84.00" x2="15.2" y2="84.00" stroke="#d8cdb0" stroke-width="0.45" stroke-linecap="round" opacity="0.85"/>
</svg>
