<svg width="18" height="22" viewBox="0 0 18 22" xmlns="http://www.w3.org/2000/svg">
<defs>
<radialGradient id="slCap" cx="0.38" cy="0.30" r="1.0"><stop offset="0" stop-color="#34342f"/><stop offset="1" stop-color="#0f0f0e"/></radialGradient>
<linearGradient id="slW" x1="0.1" y1="0" x2="0.9" y2="1"><stop offset="0" stop-color="#ffffff" stop-opacity="0.13"/><stop offset="1" stop-color="#ffffff" stop-opacity="0"/></linearGradient>
<linearGradient id="slB" x1="0.1" y1="0" x2="0.9" y2="1"><stop offset="0" stop-color="#000000" stop-opacity="0"/><stop offset="1" stop-color="#000000" stop-opacity="0.35"/></linearGradient>
</defs>
<rect x="0.8" y="1.4" width="16.6" height="20.0" rx="2.2" fill="#000000" opacity="0.35"/>
<rect x="0.7" y="0.8" width="16.6" height="20.2" rx="2.2" fill="url(#slCap)" stroke="#060606" stroke-width="0.3"/>
<rect x="0.7" y="0.8" width="16.6" height="20.2" rx="2.2" fill="url(#slW)"/>
<rect x="0.7" y="0.8" width="16.6" height="20.2" rx="2.2" fill="url(#slB)"/>
<line x1="2.2" y1="1.6" x2="15.8" y2="1.6" stroke="#8f887a" stroke-width="0.35" opacity="0.6"/>
<line x1="2.6" y1="4.05" x2="15.4" y2="4.05" stroke="#080808" stroke-width="0.7" stroke-linecap="round" opacity="0.8"/>
<line x1="2.6" y1="3.60" x2="15.4" y2="3.60" stroke="#5a5a54" stroke-width="0.4" stroke-linecap="round" opacity="0.72"/>
<line x1="2.6" y1="6.85" x2="15.4" y2="6.85" stroke="#080808" stroke-width="0.7" stroke-linecap="round" opacity="0.8"/>
<line x1="2.6" y1="6.40" x2="15.4" y2="6.40" stroke="#5a5a54" stroke-width="0.4" stroke-linecap="round" opacity="0.62"/>
<line x1="2.6" y1="16.05" x2="15.4" y2="16.05" stroke="#080808" stroke-width="0.7" stroke-linecap="round" opacity="0.8"/>
<line x1="2.6" y1="15.60" x2="15.4" y2="15.60" stroke="#5a5a54" stroke-width="0.4" stroke-linecap="round" opacity="0.52"/>
<line x1="2.6" y1="18.85" x2="15.4" y2="18.85" stroke="#080808" stroke-width="0.7" stroke-linecap="round" opacity="0.8"/>
<line x1="2.6" y1="18.40" x2="15.4" y2="18.40" stroke="#5a5a54" stroke-width="0.4" stroke-linecap="round" opacity="0.42"/>
<rect x="1.4" y="9.9" width="15.2" height="2.6" fill="#0a0a0a" opacity="0.6"/>
<rect x="1.5" y="10.1" width="15.0" height="2.1" fill="#e8e0ce"/>
<rect x="1.5" y="10.1" width="15.0" height="0.7" fill="#ffffff" opacity="0.25"/>
</svg>
