<svg width="18" height="120" viewBox="0 0 18 120" xmlns="http://www.w3.org/2000/svg">
<defs>
<linearGradient id="gPlate" x1="0" y1="0" x2="0" y2="1"><stop offset="0" stop-color="#221c16"/><stop offset="1" stop-color="#151110"/></linearGradient>
<linearGradient id="slSlot" x1="0" y1="0" x2="1" y2="0"><stop offset="0" stop-color="#050404"/><stop offset="1" stop-color="#221e19"/></linearGradient>
<linearGradient id="gSlotSh" x1="0" y1="0" x2="1" y2="0"><stop offset="0" stop-color="#060505" stop-opacity="0.80"/><stop offset="1" stop-color="#060505" stop-opacity="0"/></linearGradient>
<linearGradient id="gLip" x1="0" y1="0" x2="0" y2="1"><stop offset="0" stop-color="#000000" stop-opacity="0.60"/><stop offset="1" stop-color="#000000" stop-opacity="0"/></linearGradient>
<linearGradient id="gBot" x1="0" y1="0" x2="0" y2="1"><stop offset="0" stop-color="#f0e2c4" stop-opacity="0"/><stop offset="1" stop-color="#f0e2c4" stop-opacity="0.08"/></linearGradient>
</defs>
<rect x="3.95" y="2.75" width="10.6" height="114.90" rx="3.6" fill="none" stroke="#f0e2c4" stroke-width="0.6" opacity="0.16"/>
<rect x="3.6" y="2.2" width="10.8" height="115.60" rx="3.6" fill="url(#gPlate)" stroke="#0a0806" stroke-width="0.5"/>
<rect x="6.0" y="4" width="6.0" height="112" rx="2.6" fill="url(#slSlot)" stroke="#0d0b08" stroke-width="0.5"/>
<rect x="6.0" y="4.5" width="6.0" height="111" rx="0.9" fill="url(#gSlotSh)"/>
<rect x="6.2" y="4.2" width="5.6" height="9" fill="url(#gLip)"/>
<rect x="6.2" y="110.00" width="5.6" height="5.8" fill="url(#gBot)"/>
<line x1="11.50" y1="6" x2="11.50" y2="114" stroke="#6f6753" stroke-width="0.4" opacity="0.75"/>
<line x1="6.25" y1="5" x2="6.25" y2="115" stroke="#000000" stroke-width="0.4" opacity="0.7"/>
<line x1="9.05" y1="5.5" x2="9.05" y2="114.50" stroke="#060505" stroke-width="1.6" opacity="0.95"/>
<line x1="9.00" y1="5.7" x2="9.00" y2="114.30" stroke="#877c64" stroke-width="0.6" opacity="0.9"/>
<line x1="8.80" y1="6.2" x2="8.80" y2="113.80" stroke="#d8cba8" stroke-width="0.28" opacity="0.55"/>
<line x1="13.6" y1="6.00" x2="16.8" y2="6.00" stroke="#e2d6b8" stroke-width="0.7" stroke-linecap="round" opacity="0.95"/>
<line x1="1.2" y1="6.00" x2="4.4" y2="6.00" stroke="#e2d6b8" stroke-width="0.7" stroke-linecap="round" opacity="0.95"/>
<line x1="13.6" y1="16.80" x2="15.4" y2="16.80" stroke="#e2d6b8" stroke-width="0.5" stroke-linecap="round" opacity="0.7"/>
<line x1="2.6" y1="16.80" x2="4.4" y2="16.80" stroke="#e2d6b8" stroke-width="0.5" stroke-linecap="round" opacity="0.7"/>
<line x1="13.6" y1="27.60" x2="15.4" y2="27.60" stroke="#e2d6b8" stroke-width="0.5" stroke-linecap="round" opacity="0.7"/>
<line x1="2.6" y1="27.60" x2="4.4" y2="27.60" stroke="#e2d6b8" stroke-width="0.5" stroke-linecap="round" opacity="0.7"/>
<line x1="13.6" y1="38.40" x2="15.4" y2="38.40" stroke="#e2d6b8" stroke-width="0.5" stroke-linecap="round" opacity="0.7"/>
<line x1="2.6" y1="38.40" x2="4.4" y2="38.40" stroke="#e2d6b8" stroke-width="0.5" stroke-linecap="round" opacity="0.7"/>
<line x1="13.6" y1="49.20" x2="15.4" y2="49.20" stroke="#e2d6b8" stroke-width="0.5" stroke-linecap="round" opacity="0.7"/>
<line x1="2.6" y1="49.20" x2="4.4" y2="49.20" stroke="#e2d6b8" stroke-width="0.5" stroke-linecap="round" opacity="0.7"/>
<line x1="13.6" y1="60.00" x2="16.8" y2="60.00" stroke="#e2d6b8" stroke-width="0.7" stroke-linecap="round" opacity="0.95"/>
<line x1="1.2" y1="60.00" x2="4.4" y2="60.00" stroke="#e2d6b8" stroke-width="0.7" stroke-linecap="round" opacity="0.95"/>
<line x1="13.6" y1="70.80" x2="15.4" y2="70.80" stroke="#e2d6b8" stroke-width="0.5" stroke-linecap="round" opacity="0.7"/>
<line x1="2.6" y1="70.80" x2="4.4" y2="70.80" stroke="#e2d6b8" stroke-width="0.5" stroke-linecap="round" opacity="0.7"/>
<line x1="13.6" y1="81.60" x2="15.4" y2="81.60" stroke="#e2d6b8" stroke-width="0.5" stroke-linecap="round" opacity="0.7"/>
<line x1="2.6" y1="81.60" x2="4.4" y2="81.60" stroke="#e2d6b8" stroke-width="0.5" stroke-linecap="round" opacity="0.7"/>
<line x1="13.6" y1="92.40" x2="15.4" y2="92.40" stroke="#e2d6b8" stroke-width="0.5" stroke-linecap="round" opacity="0.7"/>
<line x1="2.6" y1="92.40" x2="4.4" y2="92.40" stroke="#e2d6b8" stroke-width="0.5" stroke-linecap="round" opacity="0.7"/>
<line x1="13.6" y1="103.20" x2="15.4" y2="103.20" stroke="#e2d6b8" stroke-width="0.5" stroke-linecap="round" opacity="0.7"/>
<line x1="2.6" y1="103.20" x2="4.4" y2="103.20" stroke="#e2d6b8" stroke-width="0.5" stroke-linecap="round" opacity="0.7"/>
<line x1="13.6" y1="114.00" x2="16.8" y2="114.00" stroke="#e2d6b8" stroke-width="0.7" stroke-linecap="round" opacity="0.95"/>
<line x1="1.2" y1="114.00" x2="4.4" y2="114.00" stroke="#e2d6b8" stroke-width="0.7" stroke-linecap="round" opacity="0.95"/>
</svg>
